<?xml version="1.0" encoding="UTF-8"?>
<!-- Created with Inkscape (http://www.inkscape.org/) -->
<svg width="1200" height="800" version="1.1" viewBox="0 0 317.5 211.67" xmlns="http://www.w3.org/2000/svg">
 <defs>
  <filter id="filter21394-2" x="-.1391" y="-.1391" width="1.2782" height="1.2782" color-interpolation-filters="sRGB">
   <feGaussianBlur stdDeviation="3.5086112"/>
  </filter>
  <filter id="filter21394-6" x="-.1391" y="-.1391" width="1.2782" height="1.2782" color-interpolation-filters="sRGB">
   <feGaussianBlur stdDeviation="3.5086112"/>
  </filter>
  <filter id="filter21394-4" x="-.1391" y="-.1391" width="1.2782" height="1.2782" color-interpolation-filters="sRGB">
   <feGaussianBlur stdDeviation="3.5086112"/>
  </filter>
  <filter id="filter21394-84" x="-.1391" y="-.1391" width="1.2782" height="1.2782" color-interpolation-filters="sRGB">
   <feGaussianBlur stdDeviation="3.5086112"/>
  </filter>
  <filter id="filter21394-98" x="-.1391" y="-.1391" width="1.2782" height="1.2782" color-interpolation-filters="sRGB">
   <feGaussianBlur stdDeviation="3.5086112"/>
  </filter>
  <filter id="filter21394-02" x="-.1391" y="-.1391" width="1.2782" height="1.2782" color-interpolation-filters="sRGB">
   <feGaussianBlur stdDeviation="3.5086112"/>
  </filter>
  <filter id="filter21394-604" x="-.1391" y="-.1391" width="1.2782" height="1.2782" color-interpolation-filters="sRGB">
   <feGaussianBlur stdDeviation="3.5086112"/>
  </filter>
  <filter id="filter21394-72" x="-.1391" y="-.1391" width="1.2782" height="1.2782" color-interpolation-filters="sRGB">
   <feGaussianBlur stdDeviation="3.5086112"/>
  </filter>
  <filter id="filter21394-985" x="-.1391" y="-.1391" width="1.2782" height="1.2782" color-interpolation-filters="sRGB">
   <feGaussianBlur stdDeviation="3.5086112"/>
  </filter>
  <filter id="filter21394-55" x="-.1391" y="-.1391" width="1.2782" height="1.2782" color-interpolation-filters="sRGB">
   <feGaussianBlur stdDeviation="3.5086112"/>
  </filter>
  <filter id="filter21394-1-81" x="-.1391" y="-.1391" width="1.2782" height="1.2782" color-interpolation-filters="sRGB">
   <feGaussianBlur stdDeviation="3.5086112"/>
  </filter>
  <filter id="filter21394-1-5" x="-.1391" y="-.1391" width="1.2782" height="1.2782" color-interpolation-filters="sRGB">
   <feGaussianBlur stdDeviation="3.5086112"/>
  </filter>
  <filter id="filter21394-1-2" x="-.1391" y="-.1391" width="1.2782" height="1.2782" color-interpolation-filters="sRGB">
   <feGaussianBlur stdDeviation="3.5086112"/>
  </filter>
  <filter id="filter21394-1-5-5" x="-.1391" y="-.1391" width="1.2782" height="1.2782" color-interpolation-filters="sRGB">
   <feGaussianBlur stdDeviation="3.5086112"/>
  </filter>
  <filter id="filter21394-1-5-8" x="-.1391" y="-.1391" width="1.2782" height="1.2782" color-interpolation-filters="sRGB">
   <feGaussianBlur stdDeviation="3.5086112"/>
  </filter>
  <filter id="filter21394-1-5-6" x="-.1391" y="-.1391" width="1.2782" height="1.2782" color-interpolation-filters="sRGB">
   <feGaussianBlur stdDeviation="3.5086112"/>
  </filter>
  <filter id="filter21394-1-5-84" x="-.1391" y="-.1391" width="1.2782" height="1.2782" color-interpolation-filters="sRGB">
   <feGaussianBlur stdDeviation="3.5086112"/>
  </filter>
  <filter id="filter21394-1-5-1" x="-.1391" y="-.1391" width="1.2782" height="1.2782" color-interpolation-filters="sRGB">
   <feGaussianBlur stdDeviation="3.5086112"/>
  </filter>
  <filter id="filter21394-1-5-14" x="-.1391" y="-.1391" width="1.2782" height="1.2782" color-interpolation-filters="sRGB">
   <feGaussianBlur stdDeviation="3.5086112"/>
  </filter>
  <filter id="filter21394-1-5-3" x="-.1391" y="-.1391" width="1.2782" height="1.2782" color-interpolation-filters="sRGB">
   <feGaussianBlur stdDeviation="3.5086112"/>
  </filter>
  <filter id="filter21394-6-7" x="-.1391" y="-.1391" width="1.2782" height="1.2782" color-interpolation-filters="sRGB">
   <feGaussianBlur stdDeviation="3.5086112"/>
  </filter>
  <filter id="filter21394-6-2" x="-.1391" y="-.1391" width="1.2782" height="1.2782" color-interpolation-filters="sRGB">
   <feGaussianBlur stdDeviation="3.5086112"/>
  </filter>
  <filter id="filter21394-6-9" x="-.1391" y="-.1391" width="1.2782" height="1.2782" color-interpolation-filters="sRGB">
   <feGaussianBlur stdDeviation="3.5086112"/>
  </filter>
  <filter id="filter21394-6-6" x="-.1391" y="-.1391" width="1.2782" height="1.2782" color-interpolation-filters="sRGB">
   <feGaussianBlur stdDeviation="3.5086112"/>
  </filter>
  <filter id="filter21394-6-76" x="-.1391" y="-.1391" width="1.2782" height="1.2782" color-interpolation-filters="sRGB">
   <feGaussianBlur stdDeviation="3.5086112"/>
  </filter>
  <filter id="filter21394-6-21" x="-.1391" y="-.1391" width="1.2782" height="1.2782" color-interpolation-filters="sRGB">
   <feGaussianBlur stdDeviation="3.5086112"/>
  </filter>
  <filter id="filter21394-6-5" x="-.1391" y="-.1391" width="1.2782" height="1.2782" color-interpolation-filters="sRGB">
   <feGaussianBlur stdDeviation="3.5086112"/>
  </filter>
  <filter id="filter21394-6-92" x="-.1391" y="-.1391" width="1.2782" height="1.2782" color-interpolation-filters="sRGB">
   <feGaussianBlur stdDeviation="3.5086112"/>
  </filter>
  <filter id="filter21394-6-4" x="-.1391" y="-.1391" width="1.2782" height="1.2782" color-interpolation-filters="sRGB">
   <feGaussianBlur stdDeviation="3.5086112"/>
  </filter>
  <filter id="filter21394-6-8" x="-.1391" y="-.1391" width="1.2782" height="1.2782" color-interpolation-filters="sRGB">
   <feGaussianBlur stdDeviation="3.5086112"/>
  </filter>
  <filter id="filter21394-6-929" x="-.1391" y="-.1391" width="1.2782" height="1.2782" color-interpolation-filters="sRGB">
   <feGaussianBlur stdDeviation="3.5086112"/>
  </filter>
  <filter id="filter21394-6-3" x="-.1391" y="-.1391" width="1.2782" height="1.2782" color-interpolation-filters="sRGB">
   <feGaussianBlur stdDeviation="3.5086112"/>
  </filter>
  <filter id="filter21394-6-24" x="-.1391" y="-.1391" width="1.2782" height="1.2782" color-interpolation-filters="sRGB">
   <feGaussianBlur stdDeviation="3.5086112"/>
  </filter>
  <filter id="filter21394-6-44" x="-.1391" y="-.1391" width="1.2782" height="1.2782" color-interpolation-filters="sRGB">
   <feGaussianBlur stdDeviation="3.5086112"/>
  </filter>
  <filter id="filter21394-6-45" x="-.1391" y="-.1391" width="1.2782" height="1.2782" color-interpolation-filters="sRGB">
   <feGaussianBlur stdDeviation="3.5086112"/>
  </filter>
  <filter id="filter21394-6-40" x="-.1391" y="-.1391" width="1.2782" height="1.2782" color-interpolation-filters="sRGB">
   <feGaussianBlur stdDeviation="3.5086112"/>
  </filter>
  <filter id="filter21394-6-243" x="-.1391" y="-.1391" width="1.2782" height="1.2782" color-interpolation-filters="sRGB">
   <feGaussianBlur stdDeviation="3.5086112"/>
  </filter>
  <filter id="filter21394-6-74" x="-.1391" y="-.1391" width="1.2782" height="1.2782" color-interpolation-filters="sRGB">
   <feGaussianBlur stdDeviation="3.5086112"/>
  </filter>
  <filter id="filter21394-6-25" x="-.1391" y="-.1391" width="1.2782" height="1.2782" color-interpolation-filters="sRGB">
   <feGaussianBlur stdDeviation="3.5086112"/>
  </filter>
  <filter id="filter21394-6-97" x="-.1391" y="-.1391" width="1.2782" height="1.2782" color-interpolation-filters="sRGB">
   <feGaussianBlur stdDeviation="3.5086112"/>
  </filter>
  <filter id="filter21394-6-71" x="-.1391" y="-.1391" width="1.2782" height="1.2782" color-interpolation-filters="sRGB">
   <feGaussianBlur stdDeviation="3.5086112"/>
  </filter>
  <filter id="filter21394-6-59" x="-.1391" y="-.1391" width="1.2782" height="1.2782" color-interpolation-filters="sRGB">
   <feGaussianBlur stdDeviation="3.5086112"/>
  </filter>
  <filter id="filter21394-6-34" x="-.1391" y="-.1391" width="1.2782" height="1.2782" color-interpolation-filters="sRGB">
   <feGaussianBlur stdDeviation="3.5086112"/>
  </filter>
  <filter id="filter21394-6-82" x="-.1391" y="-.1391" width="1.2782" height="1.2782" color-interpolation-filters="sRGB">
   <feGaussianBlur stdDeviation="3.5086112"/>
  </filter>
  <filter id="filter21394-6-243-5" x="-.1391" y="-.1391" width="1.2782" height="1.2782" color-interpolation-filters="sRGB">
   <feGaussianBlur stdDeviation="3.5086112"/>
  </filter>
  <filter id="filter21394-6-243-2" x="-.1391" y="-.1391" width="1.2782" height="1.2782" color-interpolation-filters="sRGB">
   <feGaussianBlur stdDeviation="3.5086112"/>
  </filter>
  <filter id="filter21394-6-243-3" x="-.1391" y="-.1391" width="1.2782" height="1.2782" color-interpolation-filters="sRGB">
   <feGaussianBlur stdDeviation="3.5086112"/>
  </filter>
  <filter id="filter21394-6-243-20" x="-.1391" y="-.1391" width="1.2782" height="1.2782" color-interpolation-filters="sRGB">
   <feGaussianBlur stdDeviation="3.5086112"/>
  </filter>
  <filter id="filter21394-6-243-62" x="-.1391" y="-.1391" width="1.2782" height="1.2782" color-interpolation-filters="sRGB">
   <feGaussianBlur stdDeviation="3.5086112"/>
  </filter>
  <filter id="filter21394-6-243-52" x="-.1391" y="-.1391" width="1.2782" height="1.2782" color-interpolation-filters="sRGB">
   <feGaussianBlur stdDeviation="3.5086112"/>
  </filter>
  <filter id="filter21394-6-243-1" x="-.1391" y="-.1391" width="1.2782" height="1.2782" color-interpolation-filters="sRGB">
   <feGaussianBlur stdDeviation="3.5086112"/>
  </filter>
  <filter id="filter5381" x="-.45034" y="-.45034" width="1.9007" height="1.9007" color-interpolation-filters="sRGB">
   <feGaussianBlur stdDeviation="0.14396708"/>
  </filter>
  <filter id="filter5381-1" x="-.45034" y="-.45034" width="1.9007" height="1.9007" color-interpolation-filters="sRGB">
   <feGaussianBlur stdDeviation="0.14396708"/>
  </filter>
  <filter id="filter5381-6" x="-.45034" y="-.45034" width="1.9007" height="1.9007" color-interpolation-filters="sRGB">
   <feGaussianBlur stdDeviation="0.14396708"/>
  </filter>
  <filter id="filter5381-66" x="-.45034" y="-.45034" width="1.9007" height="1.9007" color-interpolation-filters="sRGB">
   <feGaussianBlur stdDeviation="0.14396708"/>
  </filter>
  <filter id="filter5381-8" x="-.45034" y="-.45034" width="1.9007" height="1.9007" color-interpolation-filters="sRGB">
   <feGaussianBlur stdDeviation="0.14396708"/>
  </filter>
  <filter id="filter5381-67" x="-.45034" y="-.45034" width="1.9007" height="1.9007" color-interpolation-filters="sRGB">
   <feGaussianBlur stdDeviation="0.14396708"/>
  </filter>
  <filter id="filter5381-8-9" x="-.45034" y="-.45034" width="1.9007" height="1.9007" color-interpolation-filters="sRGB">
   <feGaussianBlur stdDeviation="0.14396708"/>
  </filter>
  <filter id="filter5381-8-6" x="-.45034" y="-.45034" width="1.9007" height="1.9007" color-interpolation-filters="sRGB">
   <feGaussianBlur stdDeviation="0.14396708"/>
  </filter>
  <filter id="filter5381-8-5" x="-.45034" y="-.45034" width="1.9007" height="1.9007" color-interpolation-filters="sRGB">
   <feGaussianBlur stdDeviation="0.14396708"/>
  </filter>
  <filter id="filter5381-8-93" x="-.45034" y="-.45034" width="1.9007" height="1.9007" color-interpolation-filters="sRGB">
   <feGaussianBlur stdDeviation="0.14396708"/>
  </filter>
 </defs>
 <g>
  <rect transform="scale(1,-1)" y="-211.67" width="317.5" height="211.67" fill-rule="evenodd" stroke-width=".26458"/>
  <g fill="#fff" fill-rule="evenodd" stroke-linecap="round" stroke-linejoin="round" stroke-width=".43843">
   <circle cx="239.31" cy="121.65" r=".27842" opacity=".99855"/>
   <circle cx="231.36" cy="124.56" r=".27842" opacity=".99855"/>
   <circle cx="235.07" cy="143.11" r=".27842" opacity=".99855"/>
  </g>
  <g fill="#0ff" fill-rule="evenodd" stroke-linecap="round" stroke-linejoin="round" stroke-width=".6041">
   <circle cx="234.81" cy="117.67" r=".38363" filter="url(#filter5381-8-93)" opacity=".99855"/>
   <circle cx="209.9" cy="157.95" r=".38363" filter="url(#filter5381-8-5)" opacity=".99855"/>
   <circle cx="251.77" cy="133.84" r=".38363" filter="url(#filter5381-8-6)" opacity=".99855"/>
  </g>
  <g fill="#fff" fill-rule="evenodd" stroke-linecap="round" stroke-linejoin="round" stroke-width=".43843">
   <circle cx="11.598" cy="117.15" r=".27842" opacity=".99855"/>
   <circle cx="22.878" cy="124.39" r=".27842" opacity=".99855"/>
   <circle cx="6.9165" cy="131.73" r=".27842" opacity=".99855"/>
   <circle cx="6.9165" cy="131.63" r=".27842" opacity=".99855"/>
   <circle cx="19.792" cy="173.87" r=".27842" opacity=".99855"/>
   <circle cx="14.578" cy="172.17" r=".27842" opacity=".99855"/>
   <circle cx="11.598" cy="171.1" r=".27842" opacity=".99855"/>
  </g>
  <g fill="#0ff" fill-rule="evenodd" stroke-linecap="round" stroke-linejoin="round">
   <g stroke-width=".6041">
    <circle cx="3.8307" cy="182.7" r=".38363" filter="url(#filter5381-67)" opacity=".99855"/>
    <circle cx="49.373" cy="160.25" r=".38363" filter="url(#filter5381-8)" opacity=".99855"/>
    <circle cx="297.09" cy="18.552" r=".38363" filter="url(#filter5381-8-9)" opacity=".99855"/>
    <circle cx="120.67" cy="48.203" r=".38363" filter="url(#filter5381-66)" opacity=".99855"/>
    <circle cx="99.384" cy="30.539" r=".38363" filter="url(#filter5381-6)" opacity=".99855"/>
    <circle cx="38.519" cy="7.2357" r=".38363" filter="url(#filter5381-1)" opacity=".99855"/>
    <circle cx="33.516" cy="135.6" r=".38363" filter="url(#filter5381)" opacity=".99855" style="mix-blend-mode:normal"/>
   </g>
   <circle cx="112.5" cy="115.84" r=".29665" opacity=".99855" stroke-width=".46714"/>
  </g>
  <g fill-rule="evenodd" stroke-linecap="round" stroke-linejoin="round" stroke-width=".43843">
   <circle cx="123.99" cy="22.274" r=".27842" fill="#fff" opacity=".99855"/>
   <circle cx="156.84" cy="41.763" r=".27842" fill="#0ff" opacity=".99855"/>
   <circle cx="179.12" cy="8.9094" r=".27842" fill="#00f" opacity=".99855"/>
  </g>
  <g fill="#fff" fill-rule="evenodd" stroke-linecap="round" stroke-linejoin="round" stroke-width=".43843">
   <circle cx="230.72" cy="6.1252" r=".27842" opacity=".99855"/>
   <circle cx="266.73" cy="113.78" r=".27842" opacity=".99855"/>
   <circle cx="279.35" cy="164.08" r=".27842" opacity=".99855"/>
   <circle cx="269.88" cy="183.57" r=".27842" opacity=".99855"/>
   <circle cx="270.99" cy="177.82" r=".27842" opacity=".99855"/>
   <circle cx="69.976" cy="208.63" r=".27842" opacity=".99855"/>
   <circle cx="81.67" cy="185.06" r=".27842" opacity=".99855"/>
   <circle cx="21.345" cy="191.37" r=".27842" opacity=".99855"/>
   <circle cx="18.19" cy="195.26" r=".27842" opacity=".99855"/>
   <circle cx="18.932" cy="203.25" r=".27842" opacity=".99855"/>
   <circle cx="122.88" cy="126.03" r=".27842" opacity=".99855"/>
   <circle cx="124.73" cy="121.21" r=".27842" opacity=".99855"/>
   <circle cx="205.47" cy="207.7" r=".27842" opacity=".99855"/>
   <circle cx="220.32" cy="192.85" r=".27842" opacity=".99855"/>
   <circle cx="290.48" cy="202.32" r=".27842" opacity=".99855"/>
   <circle cx="314.24" cy="12.25" r=".27842" opacity=".99855"/>
   <circle cx="216.8" cy="79.071" r=".27842" opacity=".99855"/>
   <circle cx="251.13" cy="36.937" r=".27842" opacity=".99855"/>
   <circle cx="279.16" cy="102.64" r=".27842" opacity=".99855"/>
   <circle cx="292.71" cy="96.89" r=".27842" opacity=".99855"/>
   <circle cx="173.55" cy="10.766" r=".27842" opacity=".99855"/>
   <circle cx="59.767" cy="3.341" r=".27842" opacity=".99855"/>
   <circle cx="76.658" cy="29.512" r=".27842" opacity=".99855"/>
   <circle cx="74.802" cy="20.789" r=".27842" opacity=".99855"/>
   <circle cx="229.42" cy="3.7123" r=".27842" opacity=".99855"/>
   <circle cx="133.83" cy="10.951" r=".27842" opacity=".99855"/>
   <circle cx="151.27" cy="20.232" r=".27842" opacity=".99855"/>
   <circle cx="250.39" cy="65.521" r=".27842" opacity=".99855"/>
  </g>
  <g stroke-linecap="round" stroke-linejoin="round">
   <g fill="#ff659f" stroke-width="1.023">
    <path transform="matrix(.017037 0 0 .022125 163.28 160.59)" d="m56.125 47.804a8.8104 8.3209 0 0 1-8.8104 8.3209 8.8104 8.3209 0 0 1-8.8104-8.3209 8.8104 8.3209 0 0 1 8.8104-8.3209 8.8104 8.3209 0 0 1 8.8104 8.3209zm-8.8275 30.43c-2.2302-0.025486-3.1596-24.888-4.7186-26.483-1.5589-1.595-25.229-1.9005-25.203-4.1307 0.02549-2.2302 24.338-1.808 25.933-3.367 1.595-1.5589 2.4507-26.58 4.6809-26.555 2.2302 0.02548 1.9934 25.043 3.5524 26.638 1.5589 1.595 26.395 1.745 26.369 3.9752-0.02548 2.2302-24.672 3.4048-26.267 4.9638-1.595 1.5589-2.1158 24.983-4.346 24.958z" filter="url(#filter21394-6-243-1)"/>
    <path transform="matrix(.017037 0 0 .022125 142.46 102.74)" d="m56.125 47.804a8.8104 8.3209 0 0 1-8.8104 8.3209 8.8104 8.3209 0 0 1-8.8104-8.3209 8.8104 8.3209 0 0 1 8.8104-8.3209 8.8104 8.3209 0 0 1 8.8104 8.3209zm-8.8275 30.43c-2.2302-0.025486-3.1596-24.888-4.7186-26.483-1.5589-1.595-25.229-1.9005-25.203-4.1307 0.02549-2.2302 24.338-1.808 25.933-3.367 1.595-1.5589 2.4507-26.58 4.6809-26.555 2.2302 0.02548 1.9934 25.043 3.5524 26.638 1.5589 1.595 26.395 1.745 26.369 3.9752-0.02548 2.2302-24.672 3.4048-26.267 4.9638-1.595 1.5589-2.1158 24.983-4.346 24.958z" filter="url(#filter21394-6-243-52)"/>
    <path transform="matrix(.017037 0 0 .022125 154.09 90.58)" d="m56.125 47.804a8.8104 8.3209 0 0 1-8.8104 8.3209 8.8104 8.3209 0 0 1-8.8104-8.3209 8.8104 8.3209 0 0 1 8.8104-8.3209 8.8104 8.3209 0 0 1 8.8104 8.3209zm-8.8275 30.43c-2.2302-0.025486-3.1596-24.888-4.7186-26.483-1.5589-1.595-25.229-1.9005-25.203-4.1307 0.02549-2.2302 24.338-1.808 25.933-3.367 1.595-1.5589 2.4507-26.58 4.6809-26.555 2.2302 0.02548 1.9934 25.043 3.5524 26.638 1.5589 1.595 26.395 1.745 26.369 3.9752-0.02548 2.2302-24.672 3.4048-26.267 4.9638-1.595 1.5589-2.1158 24.983-4.346 24.958z" filter="url(#filter21394-6-243-62)"/>
    <path transform="matrix(.017037 0 0 .022125 256.81 153.3)" d="m56.125 47.804a8.8104 8.3209 0 0 1-8.8104 8.3209 8.8104 8.3209 0 0 1-8.8104-8.3209 8.8104 8.3209 0 0 1 8.8104-8.3209 8.8104 8.3209 0 0 1 8.8104 8.3209zm-8.8275 30.43c-2.2302-0.025486-3.1596-24.888-4.7186-26.483-1.5589-1.595-25.229-1.9005-25.203-4.1307 0.02549-2.2302 24.338-1.808 25.933-3.367 1.595-1.5589 2.4507-26.58 4.6809-26.555 2.2302 0.02548 1.9934 25.043 3.5524 26.638 1.5589 1.595 26.395 1.745 26.369 3.9752-0.02548 2.2302-24.672 3.4048-26.267 4.9638-1.595 1.5589-2.1158 24.983-4.346 24.958z" filter="url(#filter21394-6-243-20)"/>
    <path transform="matrix(.017037 0 0 .022125 104.35 167.62)" d="m56.125 47.804a8.8104 8.3209 0 0 1-8.8104 8.3209 8.8104 8.3209 0 0 1-8.8104-8.3209 8.8104 8.3209 0 0 1 8.8104-8.3209 8.8104 8.3209 0 0 1 8.8104 8.3209zm-8.8275 30.43c-2.2302-0.025486-3.1596-24.888-4.7186-26.483-1.5589-1.595-25.229-1.9005-25.203-4.1307 0.02549-2.2302 24.338-1.808 25.933-3.367 1.595-1.5589 2.4507-26.58 4.6809-26.555 2.2302 0.02548 1.9934 25.043 3.5524 26.638 1.5589 1.595 26.395 1.745 26.369 3.9752-0.02548 2.2302-24.672 3.4048-26.267 4.9638-1.595 1.5589-2.1158 24.983-4.346 24.958z" filter="url(#filter21394-6-243-3)"/>
    <path transform="matrix(.017037 0 0 .022125 135.43 77.604)" d="m56.125 47.804a8.8104 8.3209 0 0 1-8.8104 8.3209 8.8104 8.3209 0 0 1-8.8104-8.3209 8.8104 8.3209 0 0 1 8.8104-8.3209 8.8104 8.3209 0 0 1 8.8104 8.3209zm-8.8275 30.43c-2.2302-0.025486-3.1596-24.888-4.7186-26.483-1.5589-1.595-25.229-1.9005-25.203-4.1307 0.02549-2.2302 24.338-1.808 25.933-3.367 1.595-1.5589 2.4507-26.58 4.6809-26.555 2.2302 0.02548 1.9934 25.043 3.5524 26.638 1.5589 1.595 26.395 1.745 26.369 3.9752-0.02548 2.2302-24.672 3.4048-26.267 4.9638-1.595 1.5589-2.1158 24.983-4.346 24.958z" filter="url(#filter21394-6-243-2)"/>
    <path transform="matrix(.017037 0 0 .022125 147.33 38.947)" d="m56.125 47.804a8.8104 8.3209 0 0 1-8.8104 8.3209 8.8104 8.3209 0 0 1-8.8104-8.3209 8.8104 8.3209 0 0 1 8.8104-8.3209 8.8104 8.3209 0 0 1 8.8104 8.3209zm-8.8275 30.43c-2.2302-0.025486-3.1596-24.888-4.7186-26.483-1.5589-1.595-25.229-1.9005-25.203-4.1307 0.02549-2.2302 24.338-1.808 25.933-3.367 1.595-1.5589 2.4507-26.58 4.6809-26.555 2.2302 0.02548 1.9934 25.043 3.5524 26.638 1.5589 1.595 26.395 1.745 26.369 3.9752-0.02548 2.2302-24.672 3.4048-26.267 4.9638-1.595 1.5589-2.1158 24.983-4.346 24.958z" filter="url(#filter21394-6-243-5)"/>
   </g>
   <g fill="#fff" stroke-width="1.023">
    <path transform="matrix(.017037 0 0 .022125 25.14 60.303)" d="m56.125 47.804a8.8104 8.3209 0 0 1-8.8104 8.3209 8.8104 8.3209 0 0 1-8.8104-8.3209 8.8104 8.3209 0 0 1 8.8104-8.3209 8.8104 8.3209 0 0 1 8.8104 8.3209zm-8.8275 30.43c-2.2302-0.025486-3.1596-24.888-4.7186-26.483-1.5589-1.595-25.229-1.9005-25.203-4.1307 0.02549-2.2302 24.338-1.808 25.933-3.367 1.595-1.5589 2.4507-26.58 4.6809-26.555 2.2302 0.02548 1.9934 25.043 3.5524 26.638 1.5589 1.595 26.395 1.745 26.369 3.9752-0.02548 2.2302-24.672 3.4048-26.267 4.9638-1.595 1.5589-2.1158 24.983-4.346 24.958z" filter="url(#filter21394-6-82)"/>
    <path transform="matrix(.017037 0 0 .022125 85.423 59.492)" d="m56.125 47.804a8.8104 8.3209 0 0 1-8.8104 8.3209 8.8104 8.3209 0 0 1-8.8104-8.3209 8.8104 8.3209 0 0 1 8.8104-8.3209 8.8104 8.3209 0 0 1 8.8104 8.3209zm-8.8275 30.43c-2.2302-0.025486-3.1596-24.888-4.7186-26.483-1.5589-1.595-25.229-1.9005-25.203-4.1307 0.02549-2.2302 24.338-1.808 25.933-3.367 1.595-1.5589 2.4507-26.58 4.6809-26.555 2.2302 0.02548 1.9934 25.043 3.5524 26.638 1.5589 1.595 26.395 1.745 26.369 3.9752-0.02548 2.2302-24.672 3.4048-26.267 4.9638-1.595 1.5589-2.1158 24.983-4.346 24.958z" filter="url(#filter21394-6-34)"/>
    <path transform="matrix(.017037 0 0 .022125 32.439 17.862)" d="m56.125 47.804a8.8104 8.3209 0 0 1-8.8104 8.3209 8.8104 8.3209 0 0 1-8.8104-8.3209 8.8104 8.3209 0 0 1 8.8104-8.3209 8.8104 8.3209 0 0 1 8.8104 8.3209zm-8.8275 30.43c-2.2302-0.025486-3.1596-24.888-4.7186-26.483-1.5589-1.595-25.229-1.9005-25.203-4.1307 0.02549-2.2302 24.338-1.808 25.933-3.367 1.595-1.5589 2.4507-26.58 4.6809-26.555 2.2302 0.02548 1.9934 25.043 3.5524 26.638 1.5589 1.595 26.395 1.745 26.369 3.9752-0.02548 2.2302-24.672 3.4048-26.267 4.9638-1.595 1.5589-2.1158 24.983-4.346 24.958z" filter="url(#filter21394-6-59)"/>
    <path transform="matrix(.017037 0 0 .022125 26.762 25.701)" d="m56.125 47.804a8.8104 8.3209 0 0 1-8.8104 8.3209 8.8104 8.3209 0 0 1-8.8104-8.3209 8.8104 8.3209 0 0 1 8.8104-8.3209 8.8104 8.3209 0 0 1 8.8104 8.3209zm-8.8275 30.43c-2.2302-0.025486-3.1596-24.888-4.7186-26.483-1.5589-1.595-25.229-1.9005-25.203-4.1307 0.02549-2.2302 24.338-1.808 25.933-3.367 1.595-1.5589 2.4507-26.58 4.6809-26.555 2.2302 0.02548 1.9934 25.043 3.5524 26.638 1.5589 1.595 26.395 1.745 26.369 3.9752-0.02548 2.2302-24.672 3.4048-26.267 4.9638-1.595 1.5589-2.1158 24.983-4.346 24.958z" filter="url(#filter21394-6-71)"/>
    <path transform="matrix(.017037 0 0 .022125 198.15 119.5)" d="m56.125 47.804a8.8104 8.3209 0 0 1-8.8104 8.3209 8.8104 8.3209 0 0 1-8.8104-8.3209 8.8104 8.3209 0 0 1 8.8104-8.3209 8.8104 8.3209 0 0 1 8.8104 8.3209zm-8.8275 30.43c-2.2302-0.025486-3.1596-24.888-4.7186-26.483-1.5589-1.595-25.229-1.9005-25.203-4.1307 0.02549-2.2302 24.338-1.808 25.933-3.367 1.595-1.5589 2.4507-26.58 4.6809-26.555 2.2302 0.02548 1.9934 25.043 3.5524 26.638 1.5589 1.595 26.395 1.745 26.369 3.9752-0.02548 2.2302-24.672 3.4048-26.267 4.9638-1.595 1.5589-2.1158 24.983-4.346 24.958z" filter="url(#filter21394-6-25)"/>
    <path transform="matrix(.017037 0 0 .022125 197.88 100.58)" d="m56.125 47.804a8.8104 8.3209 0 0 1-8.8104 8.3209 8.8104 8.3209 0 0 1-8.8104-8.3209 8.8104 8.3209 0 0 1 8.8104-8.3209 8.8104 8.3209 0 0 1 8.8104 8.3209zm-8.8275 30.43c-2.2302-0.025486-3.1596-24.888-4.7186-26.483-1.5589-1.595-25.229-1.9005-25.203-4.1307 0.02549-2.2302 24.338-1.808 25.933-3.367 1.595-1.5589 2.4507-26.58 4.6809-26.555 2.2302 0.02548 1.9934 25.043 3.5524 26.638 1.5589 1.595 26.395 1.745 26.369 3.9752-0.02548 2.2302-24.672 3.4048-26.267 4.9638-1.595 1.5589-2.1158 24.983-4.346 24.958z" filter="url(#filter21394-6-97)"/>
    <path transform="matrix(.017037 0 0 .022125 109.21 63.006)" d="m56.125 47.804a8.8104 8.3209 0 0 1-8.8104 8.3209 8.8104 8.3209 0 0 1-8.8104-8.3209 8.8104 8.3209 0 0 1 8.8104-8.3209 8.8104 8.3209 0 0 1 8.8104 8.3209zm-8.8275 30.43c-2.2302-0.025486-3.1596-24.888-4.7186-26.483-1.5589-1.595-25.229-1.9005-25.203-4.1307 0.02549-2.2302 24.338-1.808 25.933-3.367 1.595-1.5589 2.4507-26.58 4.6809-26.555 2.2302 0.02548 1.9934 25.043 3.5524 26.638 1.5589 1.595 26.395 1.745 26.369 3.9752-0.02548 2.2302-24.672 3.4048-26.267 4.9638-1.595 1.5589-2.1158 24.983-4.346 24.958z" filter="url(#filter21394-6-40)"/>
   </g>
   <path transform="matrix(.017037 0 0 .022125 92.992 66.521)" d="m56.125 47.804a8.8104 8.3209 0 0 1-8.8104 8.3209 8.8104 8.3209 0 0 1-8.8104-8.3209 8.8104 8.3209 0 0 1 8.8104-8.3209 8.8104 8.3209 0 0 1 8.8104 8.3209zm-8.8275 30.43c-2.2302-0.025486-3.1596-24.888-4.7186-26.483-1.5589-1.595-25.229-1.9005-25.203-4.1307 0.02549-2.2302 24.338-1.808 25.933-3.367 1.595-1.5589 2.4507-26.58 4.6809-26.555 2.2302 0.02548 1.9934 25.043 3.5524 26.638 1.5589 1.595 26.395 1.745 26.369 3.9752-0.02548 2.2302-24.672 3.4048-26.267 4.9638-1.595 1.5589-2.1158 24.983-4.346 24.958z" fill="#ff659f" filter="url(#filter21394-6-243)" stroke-width="1.023"/>
   <g fill="#fff" stroke-width="1.023">
    <path transform="matrix(.017037 0 0 .022125 103.81 54.897)" d="m56.125 47.804a8.8104 8.3209 0 0 1-8.8104 8.3209 8.8104 8.3209 0 0 1-8.8104-8.3209 8.8104 8.3209 0 0 1 8.8104-8.3209 8.8104 8.3209 0 0 1 8.8104 8.3209zm-8.8275 30.43c-2.2302-0.025486-3.1596-24.888-4.7186-26.483-1.5589-1.595-25.229-1.9005-25.203-4.1307 0.02549-2.2302 24.338-1.808 25.933-3.367 1.595-1.5589 2.4507-26.58 4.6809-26.555 2.2302 0.02548 1.9934 25.043 3.5524 26.638 1.5589 1.595 26.395 1.745 26.369 3.9752-0.02548 2.2302-24.672 3.4048-26.267 4.9638-1.595 1.5589-2.1158 24.983-4.346 24.958z" filter="url(#filter21394-6-74)"/>
    <path transform="matrix(.017037 0 0 .022125 169.49 67.602)" d="m56.125 47.804a8.8104 8.3209 0 0 1-8.8104 8.3209 8.8104 8.3209 0 0 1-8.8104-8.3209 8.8104 8.3209 0 0 1 8.8104-8.3209 8.8104 8.3209 0 0 1 8.8104 8.3209zm-8.8275 30.43c-2.2302-0.025486-3.1596-24.888-4.7186-26.483-1.5589-1.595-25.229-1.9005-25.203-4.1307 0.02549-2.2302 24.338-1.808 25.933-3.367 1.595-1.5589 2.4507-26.58 4.6809-26.555 2.2302 0.02548 1.9934 25.043 3.5524 26.638 1.5589 1.595 26.395 1.745 26.369 3.9752-0.02548 2.2302-24.672 3.4048-26.267 4.9638-1.595 1.5589-2.1158 24.983-4.346 24.958z" filter="url(#filter21394-6-45)"/>
    <path transform="matrix(.017037 0 0 .022125 73.528 75.982)" d="m56.125 47.804a8.8104 8.3209 0 0 1-8.8104 8.3209 8.8104 8.3209 0 0 1-8.8104-8.3209 8.8104 8.3209 0 0 1 8.8104-8.3209 8.8104 8.3209 0 0 1 8.8104 8.3209zm-8.8275 30.43c-2.2302-0.025486-3.1596-24.888-4.7186-26.483-1.5589-1.595-25.229-1.9005-25.203-4.1307 0.02549-2.2302 24.338-1.808 25.933-3.367 1.595-1.5589 2.4507-26.58 4.6809-26.555 2.2302 0.02548 1.9934 25.043 3.5524 26.638 1.5589 1.595 26.395 1.745 26.369 3.9752-0.02548 2.2302-24.672 3.4048-26.267 4.9638-1.595 1.5589-2.1158 24.983-4.346 24.958z" filter="url(#filter21394-6-44)"/>
    <path transform="matrix(.017037 0 0 .022125 87.315 83.011)" d="m56.125 47.804a8.8104 8.3209 0 0 1-8.8104 8.3209 8.8104 8.3209 0 0 1-8.8104-8.3209 8.8104 8.3209 0 0 1 8.8104-8.3209 8.8104 8.3209 0 0 1 8.8104 8.3209zm-8.8275 30.43c-2.2302-0.025486-3.1596-24.888-4.7186-26.483-1.5589-1.595-25.229-1.9005-25.203-4.1307 0.02549-2.2302 24.338-1.808 25.933-3.367 1.595-1.5589 2.4507-26.58 4.6809-26.555 2.2302 0.02548 1.9934 25.043 3.5524 26.638 1.5589 1.595 26.395 1.745 26.369 3.9752-0.02548 2.2302-24.672 3.4048-26.267 4.9638-1.595 1.5589-2.1158 24.983-4.346 24.958z" filter="url(#filter21394-6-3)"/>
    <path transform="matrix(.017037 0 0 .022125 78.124 85.173)" d="m56.125 47.804a8.8104 8.3209 0 0 1-8.8104 8.3209 8.8104 8.3209 0 0 1-8.8104-8.3209 8.8104 8.3209 0 0 1 8.8104-8.3209 8.8104 8.3209 0 0 1 8.8104 8.3209zm-8.8275 30.43c-2.2302-0.025486-3.1596-24.888-4.7186-26.483-1.5589-1.595-25.229-1.9005-25.203-4.1307 0.02549-2.2302 24.338-1.808 25.933-3.367 1.595-1.5589 2.4507-26.58 4.6809-26.555 2.2302 0.02548 1.9934 25.043 3.5524 26.638 1.5589 1.595 26.395 1.745 26.369 3.9752-0.02548 2.2302-24.672 3.4048-26.267 4.9638-1.595 1.5589-2.1158 24.983-4.346 24.958z" filter="url(#filter21394-6-24)"/>
    <path transform="matrix(.017037 0 0 .022125 103.26 94.905)" d="m56.125 47.804a8.8104 8.3209 0 0 1-8.8104 8.3209 8.8104 8.3209 0 0 1-8.8104-8.3209 8.8104 8.3209 0 0 1 8.8104-8.3209 8.8104 8.3209 0 0 1 8.8104 8.3209zm-8.8275 30.43c-2.2302-0.025486-3.1596-24.888-4.7186-26.483-1.5589-1.595-25.229-1.9005-25.203-4.1307 0.02549-2.2302 24.338-1.808 25.933-3.367 1.595-1.5589 2.4507-26.58 4.6809-26.555 2.2302 0.02548 1.9934 25.043 3.5524 26.638 1.5589 1.595 26.395 1.745 26.369 3.9752-0.02548 2.2302-24.672 3.4048-26.267 4.9638-1.595 1.5589-2.1158 24.983-4.346 24.958z" filter="url(#filter21394-6-929)"/>
    <path transform="matrix(.017037 0 0 .022125 273.84 22.457)" d="m56.125 47.804a8.8104 8.3209 0 0 1-8.8104 8.3209 8.8104 8.3209 0 0 1-8.8104-8.3209 8.8104 8.3209 0 0 1 8.8104-8.3209 8.8104 8.3209 0 0 1 8.8104 8.3209zm-8.8275 30.43c-2.2302-0.025486-3.1596-24.888-4.7186-26.483-1.5589-1.595-25.229-1.9005-25.203-4.1307 0.02549-2.2302 24.338-1.808 25.933-3.367 1.595-1.5589 2.4507-26.58 4.6809-26.555 2.2302 0.02548 1.9934 25.043 3.5524 26.638 1.5589 1.595 26.395 1.745 26.369 3.9752-0.02548 2.2302-24.672 3.4048-26.267 4.9638-1.595 1.5589-2.1158 24.983-4.346 24.958z" filter="url(#filter21394-6-21)"/>
    <path transform="matrix(.017037 0 0 .022125 279.25 36.514)" d="m56.125 47.804a8.8104 8.3209 0 0 1-8.8104 8.3209 8.8104 8.3209 0 0 1-8.8104-8.3209 8.8104 8.3209 0 0 1 8.8104-8.3209 8.8104 8.3209 0 0 1 8.8104 8.3209zm-8.8275 30.43c-2.2302-0.025486-3.1596-24.888-4.7186-26.483-1.5589-1.595-25.229-1.9005-25.203-4.1307 0.02549-2.2302 24.338-1.808 25.933-3.367 1.595-1.5589 2.4507-26.58 4.6809-26.555 2.2302 0.02548 1.9934 25.043 3.5524 26.638 1.5589 1.595 26.395 1.745 26.369 3.9752-0.02548 2.2302-24.672 3.4048-26.267 4.9638-1.595 1.5589-2.1158 24.983-4.346 24.958z" filter="url(#filter21394-6-5)"/>
    <path transform="matrix(.017037 0 0 .022125 286.55 22.728)" d="m56.125 47.804a8.8104 8.3209 0 0 1-8.8104 8.3209 8.8104 8.3209 0 0 1-8.8104-8.3209 8.8104 8.3209 0 0 1 8.8104-8.3209 8.8104 8.3209 0 0 1 8.8104 8.3209zm-8.8275 30.43c-2.2302-0.025486-3.1596-24.888-4.7186-26.483-1.5589-1.595-25.229-1.9005-25.203-4.1307 0.02549-2.2302 24.338-1.808 25.933-3.367 1.595-1.5589 2.4507-26.58 4.6809-26.555 2.2302 0.02548 1.9934 25.043 3.5524 26.638 1.5589 1.595 26.395 1.745 26.369 3.9752-0.02548 2.2302-24.672 3.4048-26.267 4.9638-1.595 1.5589-2.1158 24.983-4.346 24.958z" filter="url(#filter21394-6-92)"/>
    <path transform="matrix(.017037 0 0 .022125 181.39 20.295)" d="m56.125 47.804a8.8104 8.3209 0 0 1-8.8104 8.3209 8.8104 8.3209 0 0 1-8.8104-8.3209 8.8104 8.3209 0 0 1 8.8104-8.3209 8.8104 8.3209 0 0 1 8.8104 8.3209zm-8.8275 30.43c-2.2302-0.025486-3.1596-24.888-4.7186-26.483-1.5589-1.595-25.229-1.9005-25.203-4.1307 0.02549-2.2302 24.338-1.808 25.933-3.367 1.595-1.5589 2.4507-26.58 4.6809-26.555 2.2302 0.02548 1.9934 25.043 3.5524 26.638 1.5589 1.595 26.395 1.745 26.369 3.9752-0.02548 2.2302-24.672 3.4048-26.267 4.9638-1.595 1.5589-2.1158 24.983-4.346 24.958z" filter="url(#filter21394-6-4)"/>
    <path transform="matrix(.017037 0 0 .022125 91.911 126.53)" d="m56.125 47.804a8.8104 8.3209 0 0 1-8.8104 8.3209 8.8104 8.3209 0 0 1-8.8104-8.3209 8.8104 8.3209 0 0 1 8.8104-8.3209 8.8104 8.3209 0 0 1 8.8104 8.3209zm-8.8275 30.43c-2.2302-0.025486-3.1596-24.888-4.7186-26.483-1.5589-1.595-25.229-1.9005-25.203-4.1307 0.02549-2.2302 24.338-1.808 25.933-3.367 1.595-1.5589 2.4507-26.58 4.6809-26.555 2.2302 0.02548 1.9934 25.043 3.5524 26.638 1.5589 1.595 26.395 1.745 26.369 3.9752-0.02548 2.2302-24.672 3.4048-26.267 4.9638-1.595 1.5589-2.1158 24.983-4.346 24.958z" filter="url(#filter21394-6-8)"/>
    <path transform="matrix(.017037 0 0 .022125 212.75 26.242)" d="m56.125 47.804a8.8104 8.3209 0 0 1-8.8104 8.3209 8.8104 8.3209 0 0 1-8.8104-8.3209 8.8104 8.3209 0 0 1 8.8104-8.3209 8.8104 8.3209 0 0 1 8.8104 8.3209zm-8.8275 30.43c-2.2302-0.025486-3.1596-24.888-4.7186-26.483-1.5589-1.595-25.229-1.9005-25.203-4.1307 0.02549-2.2302 24.338-1.808 25.933-3.367 1.595-1.5589 2.4507-26.58 4.6809-26.555 2.2302 0.02548 1.9934 25.043 3.5524 26.638 1.5589 1.595 26.395 1.745 26.369 3.9752-0.02548 2.2302-24.672 3.4048-26.267 4.9638-1.595 1.5589-2.1158 24.983-4.346 24.958z" filter="url(#filter21394-6-76)"/>
    <path transform="matrix(.017037 0 0 .022125 67.852 104.37)" d="m56.125 47.804a8.8104 8.3209 0 0 1-8.8104 8.3209 8.8104 8.3209 0 0 1-8.8104-8.3209 8.8104 8.3209 0 0 1 8.8104-8.3209 8.8104 8.3209 0 0 1 8.8104 8.3209zm-8.8275 30.43c-2.2302-0.025486-3.1596-24.888-4.7186-26.483-1.5589-1.595-25.229-1.9005-25.203-4.1307 0.02549-2.2302 24.338-1.808 25.933-3.367 1.595-1.5589 2.4507-26.58 4.6809-26.555 2.2302 0.02548 1.9934 25.043 3.5524 26.638 1.5589 1.595 26.395 1.745 26.369 3.9752-0.02548 2.2302-24.672 3.4048-26.267 4.9638-1.595 1.5589-2.1158 24.983-4.346 24.958z" filter="url(#filter21394-6-6)"/>
    <path transform="matrix(.017037 0 0 .022125 208.42 98.96)" d="m56.125 47.804a8.8104 8.3209 0 0 1-8.8104 8.3209 8.8104 8.3209 0 0 1-8.8104-8.3209 8.8104 8.3209 0 0 1 8.8104-8.3209 8.8104 8.3209 0 0 1 8.8104 8.3209zm-8.8275 30.43c-2.2302-0.025486-3.1596-24.888-4.7186-26.483-1.5589-1.595-25.229-1.9005-25.203-4.1307 0.02549-2.2302 24.338-1.808 25.933-3.367 1.595-1.5589 2.4507-26.58 4.6809-26.555 2.2302 0.02548 1.9934 25.043 3.5524 26.638 1.5589 1.595 26.395 1.745 26.369 3.9752-0.02548 2.2302-24.672 3.4048-26.267 4.9638-1.595 1.5589-2.1158 24.983-4.346 24.958z" filter="url(#filter21394-6-9)"/>
    <path transform="matrix(.017037 0 0 .022125 115.43 48.409)" d="m56.125 47.804a8.8104 8.3209 0 0 1-8.8104 8.3209 8.8104 8.3209 0 0 1-8.8104-8.3209 8.8104 8.3209 0 0 1 8.8104-8.3209 8.8104 8.3209 0 0 1 8.8104 8.3209zm-8.8275 30.43c-2.2302-0.025486-3.1596-24.888-4.7186-26.483-1.5589-1.595-25.229-1.9005-25.203-4.1307 0.02549-2.2302 24.338-1.808 25.933-3.367 1.595-1.5589 2.4507-26.58 4.6809-26.555 2.2302 0.02548 1.9934 25.043 3.5524 26.638 1.5589 1.595 26.395 1.745 26.369 3.9752-0.02548 2.2302-24.672 3.4048-26.267 4.9638-1.595 1.5589-2.1158 24.983-4.346 24.958z" filter="url(#filter21394-6-2)"/>
    <path transform="matrix(.017037 0 0 .022125 100.02 25.161)" d="m56.125 47.804a8.8104 8.3209 0 0 1-8.8104 8.3209 8.8104 8.3209 0 0 1-8.8104-8.3209 8.8104 8.3209 0 0 1 8.8104-8.3209 8.8104 8.3209 0 0 1 8.8104 8.3209zm-8.8275 30.43c-2.2302-0.025486-3.1596-24.888-4.7186-26.483-1.5589-1.595-25.229-1.9005-25.203-4.1307 0.02549-2.2302 24.338-1.808 25.933-3.367 1.595-1.5589 2.4507-26.58 4.6809-26.555 2.2302 0.02548 1.9934 25.043 3.5524 26.638 1.5589 1.595 26.395 1.745 26.369 3.9752-0.02548 2.2302-24.672 3.4048-26.267 4.9638-1.595 1.5589-2.1158 24.983-4.346 24.958z" filter="url(#filter21394-6-7)"/>
   </g>
   <g fill="#4bc4ff" stroke-width="1.023">
    <path transform="matrix(.039818 0 0 .034807 178.14 168.64)" d="m56.125 47.804a8.8104 8.3209 0 0 1-8.8104 8.3209 8.8104 8.3209 0 0 1-8.8104-8.3209 8.8104 8.3209 0 0 1 8.8104-8.3209 8.8104 8.3209 0 0 1 8.8104 8.3209zm-8.8275 30.43c-2.2302-0.025486-3.1596-24.888-4.7186-26.483-1.5589-1.595-25.229-1.9005-25.203-4.1307 0.02549-2.2302 24.338-1.808 25.933-3.367 1.595-1.5589 2.4507-26.58 4.6809-26.555 2.2302 0.02548 1.9934 25.043 3.5524 26.638 1.5589 1.595 26.395 1.745 26.369 3.9752-0.02548 2.2302-24.672 3.4048-26.267 4.9638-1.595 1.5589-2.1158 24.983-4.346 24.958z" filter="url(#filter21394-1-5-3)"/>
    <path transform="matrix(.039818 0 0 .034807 11.89 16.713)" d="m56.125 47.804a8.8104 8.3209 0 0 1-8.8104 8.3209 8.8104 8.3209 0 0 1-8.8104-8.3209 8.8104 8.3209 0 0 1 8.8104-8.3209 8.8104 8.3209 0 0 1 8.8104 8.3209zm-8.8275 30.43c-2.2302-0.025486-3.1596-24.888-4.7186-26.483-1.5589-1.595-25.229-1.9005-25.203-4.1307 0.02549-2.2302 24.338-1.808 25.933-3.367 1.595-1.5589 2.4507-26.58 4.6809-26.555 2.2302 0.02548 1.9934 25.043 3.5524 26.638 1.5589 1.595 26.395 1.745 26.369 3.9752-0.02548 2.2302-24.672 3.4048-26.267 4.9638-1.595 1.5589-2.1158 24.983-4.346 24.958z" filter="url(#filter21394-1-5-14)"/>
    <path transform="matrix(.039818 0 0 .034807 195.31 37.406)" d="m56.125 47.804a8.8104 8.3209 0 0 1-8.8104 8.3209 8.8104 8.3209 0 0 1-8.8104-8.3209 8.8104 8.3209 0 0 1 8.8104-8.3209 8.8104 8.3209 0 0 1 8.8104 8.3209zm-8.8275 30.43c-2.2302-0.025486-3.1596-24.888-4.7186-26.483-1.5589-1.595-25.229-1.9005-25.203-4.1307 0.02549-2.2302 24.338-1.808 25.933-3.367 1.595-1.5589 2.4507-26.58 4.6809-26.555 2.2302 0.02548 1.9934 25.043 3.5524 26.638 1.5589 1.595 26.395 1.745 26.369 3.9752-0.02548 2.2302-24.672 3.4048-26.267 4.9638-1.595 1.5589-2.1158 24.983-4.346 24.958z" filter="url(#filter21394-1-5-1)"/>
    <path transform="matrix(.039818 0 0 .034807 283.2 56.591)" d="m56.125 47.804a8.8104 8.3209 0 0 1-8.8104 8.3209 8.8104 8.3209 0 0 1-8.8104-8.3209 8.8104 8.3209 0 0 1 8.8104-8.3209 8.8104 8.3209 0 0 1 8.8104 8.3209zm-8.8275 30.43c-2.2302-0.025486-3.1596-24.888-4.7186-26.483-1.5589-1.595-25.229-1.9005-25.203-4.1307 0.02549-2.2302 24.338-1.808 25.933-3.367 1.595-1.5589 2.4507-26.58 4.6809-26.555 2.2302 0.02548 1.9934 25.043 3.5524 26.638 1.5589 1.595 26.395 1.745 26.369 3.9752-0.02548 2.2302-24.672 3.4048-26.267 4.9638-1.595 1.5589-2.1158 24.983-4.346 24.958z" filter="url(#filter21394-1-5-84)"/>
    <path transform="matrix(.039818 0 0 .034807 120.55 185.95)" d="m56.125 47.804a8.8104 8.3209 0 0 1-8.8104 8.3209 8.8104 8.3209 0 0 1-8.8104-8.3209 8.8104 8.3209 0 0 1 8.8104-8.3209 8.8104 8.3209 0 0 1 8.8104 8.3209zm-8.8275 30.43c-2.2302-0.025486-3.1596-24.888-4.7186-26.483-1.5589-1.595-25.229-1.9005-25.203-4.1307 0.02549-2.2302 24.338-1.808 25.933-3.367 1.595-1.5589 2.4507-26.58 4.6809-26.555 2.2302 0.02548 1.9934 25.043 3.5524 26.638 1.5589 1.595 26.395 1.745 26.369 3.9752-0.02548 2.2302-24.672 3.4048-26.267 4.9638-1.595 1.5589-2.1158 24.983-4.346 24.958z" filter="url(#filter21394-1-5-6)"/>
    <path transform="matrix(.039818 0 0 .034807 133.24 140.95)" d="m56.125 47.804a8.8104 8.3209 0 0 1-8.8104 8.3209 8.8104 8.3209 0 0 1-8.8104-8.3209 8.8104 8.3209 0 0 1 8.8104-8.3209 8.8104 8.3209 0 0 1 8.8104 8.3209zm-8.8275 30.43c-2.2302-0.025486-3.1596-24.888-4.7186-26.483-1.5589-1.595-25.229-1.9005-25.203-4.1307 0.02549-2.2302 24.338-1.808 25.933-3.367 1.595-1.5589 2.4507-26.58 4.6809-26.555 2.2302 0.02548 1.9934 25.043 3.5524 26.638 1.5589 1.595 26.395 1.745 26.369 3.9752-0.02548 2.2302-24.672 3.4048-26.267 4.9638-1.595 1.5589-2.1158 24.983-4.346 24.958z" filter="url(#filter21394-1-5-8)"/>
    <path transform="matrix(.039818 0 0 .034807 82.037 84.381)" d="m56.125 47.804a8.8104 8.3209 0 0 1-8.8104 8.3209 8.8104 8.3209 0 0 1-8.8104-8.3209 8.8104 8.3209 0 0 1 8.8104-8.3209 8.8104 8.3209 0 0 1 8.8104 8.3209zm-8.8275 30.43c-2.2302-0.025486-3.1596-24.888-4.7186-26.483-1.5589-1.595-25.229-1.9005-25.203-4.1307 0.02549-2.2302 24.338-1.808 25.933-3.367 1.595-1.5589 2.4507-26.58 4.6809-26.555 2.2302 0.02548 1.9934 25.043 3.5524 26.638 1.5589 1.595 26.395 1.745 26.369 3.9752-0.02548 2.2302-24.672 3.4048-26.267 4.9638-1.595 1.5589-2.1158 24.983-4.346 24.958z" filter="url(#filter21394-1-5-5)"/>
    <path transform="matrix(.056226 0 0 .049149 75.472 131.37)" d="m56.125 47.804a8.8104 8.3209 0 0 1-8.8104 8.3209 8.8104 8.3209 0 0 1-8.8104-8.3209 8.8104 8.3209 0 0 1 8.8104-8.3209 8.8104 8.3209 0 0 1 8.8104 8.3209zm-8.8275 30.43c-2.2302-0.025486-3.1596-24.888-4.7186-26.483-1.5589-1.595-25.229-1.9005-25.203-4.1307 0.02549-2.2302 24.338-1.808 25.933-3.367 1.595-1.5589 2.4507-26.58 4.6809-26.555 2.2302 0.02548 1.9934 25.043 3.5524 26.638 1.5589 1.595 26.395 1.745 26.369 3.9752-0.02548 2.2302-24.672 3.4048-26.267 4.9638-1.595 1.5589-2.1158 24.983-4.346 24.958z" filter="url(#filter21394-1-2)"/>
    <path transform="matrix(.039818 0 0 .034807 89.725 87.917)" d="m56.125 47.804a8.8104 8.3209 0 0 1-8.8104 8.3209 8.8104 8.3209 0 0 1-8.8104-8.3209 8.8104 8.3209 0 0 1 8.8104-8.3209 8.8104 8.3209 0 0 1 8.8104 8.3209zm-8.8275 30.43c-2.2302-0.025486-3.1596-24.888-4.7186-26.483-1.5589-1.595-25.229-1.9005-25.203-4.1307 0.02549-2.2302 24.338-1.808 25.933-3.367 1.595-1.5589 2.4507-26.58 4.6809-26.555 2.2302 0.02548 1.9934 25.043 3.5524 26.638 1.5589 1.595 26.395 1.745 26.369 3.9752-0.02548 2.2302-24.672 3.4048-26.267 4.9638-1.595 1.5589-2.1158 24.983-4.346 24.958z" filter="url(#filter21394-1-5)"/>
    <path transform="matrix(.056226 0 0 .049149 85.205 87.219)" d="m56.125 47.804a8.8104 8.3209 0 0 1-8.8104 8.3209 8.8104 8.3209 0 0 1-8.8104-8.3209 8.8104 8.3209 0 0 1 8.8104-8.3209 8.8104 8.3209 0 0 1 8.8104 8.3209zm-8.8275 30.43c-2.2302-0.025486-3.1596-24.888-4.7186-26.483-1.5589-1.595-25.229-1.9005-25.203-4.1307 0.02549-2.2302 24.338-1.808 25.933-3.367 1.595-1.5589 2.4507-26.58 4.6809-26.555 2.2302 0.02548 1.9934 25.043 3.5524 26.638 1.5589 1.595 26.395 1.745 26.369 3.9752-0.02548 2.2302-24.672 3.4048-26.267 4.9638-1.595 1.5589-2.1158 24.983-4.346 24.958z" filter="url(#filter21394-1-81)"/>
   </g>
   <g fill="#fff">
    <g stroke-width="1.023">
     <path transform="matrix(.039092 0 0 .031361 22.588 102.24)" d="m56.125 47.804a8.8104 8.3209 0 0 1-8.8104 8.3209 8.8104 8.3209 0 0 1-8.8104-8.3209 8.8104 8.3209 0 0 1 8.8104-8.3209 8.8104 8.3209 0 0 1 8.8104 8.3209zm-8.8275 30.43c-2.2302-0.025486-3.1596-24.888-4.7186-26.483-1.5589-1.595-25.229-1.9005-25.203-4.1307 0.02549-2.2302 24.338-1.808 25.933-3.367 1.595-1.5589 2.4507-26.58 4.6809-26.555 2.2302 0.02548 1.9934 25.043 3.5524 26.638 1.5589 1.595 26.395 1.745 26.369 3.9752-0.02548 2.2302-24.672 3.4048-26.267 4.9638-1.595 1.5589-2.1158 24.983-4.346 24.958z" filter="url(#filter21394-985)"/>
     <path transform="matrix(.056226 0 0 .049149 30.931 88.03)" d="m56.125 47.804a8.8104 8.3209 0 0 1-8.8104 8.3209 8.8104 8.3209 0 0 1-8.8104-8.3209 8.8104 8.3209 0 0 1 8.8104-8.3209 8.8104 8.3209 0 0 1 8.8104 8.3209zm-8.8275 30.43c-2.2302-0.025486-3.1596-24.888-4.7186-26.483-1.5589-1.595-25.229-1.9005-25.203-4.1307 0.02549-2.2302 24.338-1.808 25.933-3.367 1.595-1.5589 2.4507-26.58 4.6809-26.555 2.2302 0.02548 1.9934 25.043 3.5524 26.638 1.5589 1.595 26.395 1.745 26.369 3.9752-0.02548 2.2302-24.672 3.4048-26.267 4.9638-1.595 1.5589-2.1158 24.983-4.346 24.958z" filter="url(#filter21394-55)"/>
     <path transform="matrix(.036243 0 0 .031681 45.141 156.07)" d="m56.125 47.804a8.8104 8.3209 0 0 1-8.8104 8.3209 8.8104 8.3209 0 0 1-8.8104-8.3209 8.8104 8.3209 0 0 1 8.8104-8.3209 8.8104 8.3209 0 0 1 8.8104 8.3209zm-8.8275 30.43c-2.2302-0.025486-3.1596-24.888-4.7186-26.483-1.5589-1.595-25.229-1.9005-25.203-4.1307 0.02549-2.2302 24.338-1.808 25.933-3.367 1.595-1.5589 2.4507-26.58 4.6809-26.555 2.2302 0.02548 1.9934 25.043 3.5524 26.638 1.5589 1.595 26.395 1.745 26.369 3.9752-0.02548 2.2302-24.672 3.4048-26.267 4.9638-1.595 1.5589-2.1158 24.983-4.346 24.958z" filter="url(#filter21394-72)"/>
     <path transform="matrix(.036243 0 0 .031681 169.14 81.993)" d="m56.125 47.804a8.8104 8.3209 0 0 1-8.8104 8.3209 8.8104 8.3209 0 0 1-8.8104-8.3209 8.8104 8.3209 0 0 1 8.8104-8.3209 8.8104 8.3209 0 0 1 8.8104 8.3209zm-8.8275 30.43c-2.2302-0.025486-3.1596-24.888-4.7186-26.483-1.5589-1.595-25.229-1.9005-25.203-4.1307 0.02549-2.2302 24.338-1.808 25.933-3.367 1.595-1.5589 2.4507-26.58 4.6809-26.555 2.2302 0.02548 1.9934 25.043 3.5524 26.638 1.5589 1.595 26.395 1.745 26.369 3.9752-0.02548 2.2302-24.672 3.4048-26.267 4.9638-1.595 1.5589-2.1158 24.983-4.346 24.958z" filter="url(#filter21394-02)"/>
     <path transform="matrix(.048642 .028202 -.024652 .04252 56.296 68.731)" d="m56.125 47.804a8.8104 8.3209 0 0 1-8.8104 8.3209 8.8104 8.3209 0 0 1-8.8104-8.3209 8.8104 8.3209 0 0 1 8.8104-8.3209 8.8104 8.3209 0 0 1 8.8104 8.3209zm-8.8275 30.43c-2.2302-0.025486-3.1596-24.888-4.7186-26.483-1.5589-1.595-25.229-1.9005-25.203-4.1307 0.02549-2.2302 24.338-1.808 25.933-3.367 1.595-1.5589 2.4507-26.58 4.6809-26.555 2.2302 0.02548 1.9934 25.043 3.5524 26.638 1.5589 1.595 26.395 1.745 26.369 3.9752-0.02548 2.2302-24.672 3.4048-26.267 4.9638-1.595 1.5589-2.1158 24.983-4.346 24.958z" filter="url(#filter21394-604)"/>
     <path transform="matrix(.056226 0 0 .049149 259.67 19.505)" d="m56.125 47.804a8.8104 8.3209 0 0 1-8.8104 8.3209 8.8104 8.3209 0 0 1-8.8104-8.3209 8.8104 8.3209 0 0 1 8.8104-8.3209 8.8104 8.3209 0 0 1 8.8104 8.3209zm-8.8275 30.43c-2.2302-0.025486-3.1596-24.888-4.7186-26.483-1.5589-1.595-25.229-1.9005-25.203-4.1307 0.02549-2.2302 24.338-1.808 25.933-3.367 1.595-1.5589 2.4507-26.58 4.6809-26.555 2.2302 0.02548 1.9934 25.043 3.5524 26.638 1.5589 1.595 26.395 1.745 26.369 3.9752-0.02548 2.2302-24.672 3.4048-26.267 4.9638-1.595 1.5589-2.1158 24.983-4.346 24.958z" filter="url(#filter21394-98)"/>
     <path transform="matrix(.031771 0 0 .027772 157.43 125.75)" d="m56.125 47.804a8.8104 8.3209 0 0 1-8.8104 8.3209 8.8104 8.3209 0 0 1-8.8104-8.3209 8.8104 8.3209 0 0 1 8.8104-8.3209 8.8104 8.3209 0 0 1 8.8104 8.3209zm-8.8275 30.43c-2.2302-0.025486-3.1596-24.888-4.7186-26.483-1.5589-1.595-25.229-1.9005-25.203-4.1307 0.02549-2.2302 24.338-1.808 25.933-3.367 1.595-1.5589 2.4507-26.58 4.6809-26.555 2.2302 0.02548 1.9934 25.043 3.5524 26.638 1.5589 1.595 26.395 1.745 26.369 3.9752-0.02548 2.2302-24.672 3.4048-26.267 4.9638-1.595 1.5589-2.1158 24.983-4.346 24.958z" filter="url(#filter21394-84)"/>
     <path transform="matrix(.017037 0 0 .022125 118.44 87.266)" d="m56.125 47.804a8.8104 8.3209 0 0 1-8.8104 8.3209 8.8104 8.3209 0 0 1-8.8104-8.3209 8.8104 8.3209 0 0 1 8.8104-8.3209 8.8104 8.3209 0 0 1 8.8104 8.3209zm-8.8275 30.43c-2.2302-0.025486-3.1596-24.888-4.7186-26.483-1.5589-1.595-25.229-1.9005-25.203-4.1307 0.02549-2.2302 24.338-1.808 25.933-3.367 1.595-1.5589 2.4507-26.58 4.6809-26.555 2.2302 0.02548 1.9934 25.043 3.5524 26.638 1.5589 1.595 26.395 1.745 26.369 3.9752-0.02548 2.2302-24.672 3.4048-26.267 4.9638-1.595 1.5589-2.1158 24.983-4.346 24.958z" filter="url(#filter21394-6)"/>
     <path transform="matrix(.035138 0 0 .03181 50.703 113.96)" d="m56.125 47.804a8.8104 8.3209 0 0 1-8.8104 8.3209 8.8104 8.3209 0 0 1-8.8104-8.3209 8.8104 8.3209 0 0 1 8.8104-8.3209 8.8104 8.3209 0 0 1 8.8104 8.3209zm-8.8275 30.43c-2.2302-0.025486-3.1596-24.888-4.7186-26.483-1.5589-1.595-25.229-1.9005-25.203-4.1307 0.02549-2.2302 24.338-1.808 25.933-3.367 1.595-1.5589 2.4507-26.58 4.6809-26.555 2.2302 0.02548 1.9934 25.043 3.5524 26.638 1.5589 1.595 26.395 1.745 26.369 3.9752-0.02548 2.2302-24.672 3.4048-26.267 4.9638-1.595 1.5589-2.1158 24.983-4.346 24.958z" filter="url(#filter21394-4)"/>
     <path transform="matrix(.056226 0 0 .049149 55.404 46.263)" d="m56.125 47.804a8.8104 8.3209 0 0 1-8.8104 8.3209 8.8104 8.3209 0 0 1-8.8104-8.3209 8.8104 8.3209 0 0 1 8.8104-8.3209 8.8104 8.3209 0 0 1 8.8104 8.3209zm-8.8275 30.43c-2.2302-0.025486-3.1596-24.888-4.7186-26.483-1.5589-1.595-25.229-1.9005-25.203-4.1307 0.02549-2.2302 24.338-1.808 25.933-3.367 1.595-1.5589 2.4507-26.58 4.6809-26.555 2.2302 0.02548 1.9934 25.043 3.5524 26.638 1.5589 1.595 26.395 1.745 26.369 3.9752-0.02548 2.2302-24.672 3.4048-26.267 4.9638-1.595 1.5589-2.1158 24.983-4.346 24.958z" filter="url(#filter21394-2)"/>
    </g>
    <circle cx="224.68" cy="59.674" r=".27842" fill-rule="evenodd" opacity=".99855" stroke-width=".43843"/>
    <circle cx="184.87" cy="54.199" r=".27842" fill-rule="evenodd" opacity=".99855" stroke-width=".43843"/>
   </g>
  </g>
 </g>
</svg>
