<svg width="1200" height="800" version="1.1" viewBox="0 0 317.5 211.67" xmlns="http://www.w3.org/2000/svg">
 <g transform="matrix(.30998 0 0 .30998 44.84 44.998)">
  <g>
   <path d="m76.095 20.79c-15.241 0.53859-34.561 6.3834-41.821 21.155-2.1086 4.7571-4.5719 9.4524-6.4452 14.255-0.03 3.0033 1.0971 6.1719-0.44586 8.9591-1.4335 4.4544-4.3955 8.7899-0.27557 13.676 11.429 38.775 70.203 45.412 91.985 12.264 5.4782-5.5915 5.043-13.237 6.5582-20.207 0.70955-5.1284 2.6129-10.257-0.29344-15.386-5.7964-21.353-27.78-34.988-49.262-34.717z" fill="#6dbcf6" opacity=".99855"/>
   <g stroke-width=".26458">
    <path d="m75.271 20.795c-13.732 0.53452-30.464 4.7527-38.758 16.593-3.0603 6.1006-5.8102 12.349-8.704 18.529-0.07426 2.997 1.1298 6.1765-0.33034 8.9756-1.768 5.8325-6.1012 11.719-0.46534 17.764 15.971 40.162 83.06 39.448 96.943-1.7173 0.92199-5.4796 1.8467-10.959 2.7747-16.437-1.1562-25.902-26.842-44.225-51.46-43.707zm3.3729 31.33c2.704 1.857-1.9977 1.3074 0 0zm37.064 0.34778c1.2252-0.11746-0.43123 1.607 0 0.12844zm0.26459 1.0583c1.8189-0.73428 1.9167 2.0846 0.8263 2.6458-0.69053-0.34783-0.78698-1.8435-0.8263-2.6458zm-67.676 0.52917c2.3051-0.16881 0.26708 1.1376-0.05744 1.8972-1.6805 0.83427 0.38304-1.0459 0.05744-1.8972zm-9.0527 1.0583c1.8839-0.44411-0.18954 1.308 0 0zm18.364 0.74259c1.9024 2.9104-1.935 1.2719 0 0zm35.238 1.3043c1.5283 0.71789 2.1448 1.3089 2.4441 1.8055 1.4527-1.0354-0.72114 1.7258-1.1289 1.4263-0.90675 0.19674-3.3785-0.30576-2.9648-1.9563 0.26292-1.0498 1.6406-0.18267 1.6496-1.2755zm-34.459 0.06977c1.9839-0.32246-0.17409 3.2404 0.03397 0.23187zm7.6316 2.8479c2.4409 1.6968-2.027 1.8386 0 0zm13.678 0.74776c1.8872 0.16489 2.7627 4.1634 3.5838 2.2252 1.1868 0.77217 2.249 2.6768 0.65952 3.3064-1.5789-0.12537-1.2687 3.2783-1.9649 0.472 0.47942-2.3974-2.1862-0.76102-2.7162 0.47177-0.82653 0.33863-1.921 0.90639-1.6494-1.0477-1.0591 1.5078-1.1633-0.0087-1.0313-1.4287-0.15074-3.5902 0.10776-1.4531 1.1171-1.1541-0.91844-1.4935 2.0426-1.2696 0.84711-0.34637 4.2997-0.52383 1.2329-1.6511-1.2706-1.3594-0.83827-0.93103 2.0396-0.14456 2.4249-1.1391zm-15.02 0.3731c-0.70265 1.4345-3.1905-0.1014 0 0zm43.531 11.14c2.8411 2.3065-1.7411 1.4042 0 0zm-70.856 1.2955c1.2185 0.69621 0.67953 0.95702 1.8759 0.6878 1.3 0.02569 3.4198 2.6871 2.4724 2.6385-2.0361-1.6658 0.02558 1.5996-1.6633 1.4261-0.82996 1.6687 3.1582 5.5368 0.25486 2.8021-1.1872-3.222-1.3048 0.90399-2.3246-0.47783-0.97422-0.3832-1.7749 2.5418-3.088 1.2507 2.8693-0.58085-2.6103-1.9862-1.7002-0.5-0.63227 0.85088-1.2236-0.99133-0.10116-1.9129-1.077-3.1128 1.8227-1.5393 3.152-2.7989-0.43585-1.1406 1.6541-0.81161 1.3488-2.0828-0.07585-0.34424-0.15116-0.68859-0.22677-1.0329zm50.842 0.96996c0.3268 1.9695 1.4864 1.715 2.4495 3.0086-0.91348 1.6091 1.0254 2.8561 0.41658 3.2913 1.6323-1.142 2.6183-0.68247 4.0968-0.37463 0.54039-0.55576-0.71994-3.4671 1.8232-1.0984 2.9804 0.12708-1.9279 2.6092 0.50683 2.9111 1.0415 2.0861-0.50301 1.0276-1.1047 0.42898 0.62345 2.3142-0.25237 1.2899-1.0515 0.39335 0.17929-1.1964-1.7505 1.1814-2.6005 1.3139-3.6687 1.296 0.37996-4.4424-3.0074-3.0635-1.0563-0.38503-0.15185-1.1903 0.06241-2.725-0.55515-0.76598-4.1686 0.35027-2.3087-1.6176 0.85738 0.08169-0.08193-2.1455 0.71756-2.4682zm-2.681 0.6258c2.9312 1.1589-4.3412 2.2209-0.26799 2.3487 1.8098 0.82611-1.4943 1.4375 0.98046 1.3829 0.27483 1.446 0.28484 2.5875-0.72023 2.6494-1.7138 2.6481 0.8189 0.8787 1.8984 1.2904 0.87444 1.8382-2.3346 2.0837-3.4053 0.773-2.0925-1.2157 2.2303-1.3535 0.47209-2.6319-1.2756 0.34104-2.9801 2.0046-2.7784 3.2628-1.053 0.56541-2.9864 0.08853-3.0231-1.9136-2.1276-1.2544 3.9579 0.08498 2.8814-2.3629 0.78917-0.17579 1.2743-1.2135 1.8336-2.4327-2.0399-0.50244-0.45024-2.2083 0.98926-1.3518 1.0966 0.48154 0.52673-0.51228 1.1398-1.0145zm-39.065 1.5792c1.5916 2.7317-3.1054 1.9439 0 0zm45.473 0.07751c3.0681 0.8488 2.778 2.1709 0.95603 1.2718-3.2341 1.5163-0.63876 0.16106-0.95603-1.2718zm-19.835 0.71624c1.3843-0.38943-0.13961 1.596 0.54067 2.1885-2.496 1.7632-0.7479-0.68501-0.54067-2.1885zm8.6997 2.2753c1.2025 0.62341 0.01589 1.5332 0 0zm-13.708 0.63511c0.82184 0.25692-1.3768 1.4645-0.22967 0.12313zm-31.157 0.10749c-0.42624 1.2891 1.7734 0.24777 0 0zm28.269 0.68626c2.2382-0.39117-0.60278 3.1301 0 0zm33.001 0c1.0663 0.7124-1.0301 0.62353 0 0zm-24.675 0.03876c0.30426 1.4554 2.8859 2.0493 1.8079 2.6018 2.9842-0.33403 2.1334-2.6133 4.1281-0.29288 0.81364 1.6384 0.5938 1.7371 0.49405 3.4408-0.7314 3.1105-1.6891-3.3247-1.9915 1.3025-0.14045 3.4073-1.6384-2.338-1.4753-0.07958-0.4388-1.9884-3.5244 0.35904-1.5715-1.6652 0.38567-1.8748-2.2881 0.81167-1.6239 1.8129-0.76824 1.3207-3.4594 1.417-1.2865-0.0541 0.15472-0.45084-2.132 0.74627-0.46195-1.4075 3.1035-0.69585 0.30263-2.6768 1.6707-3.9085 0.2989-0.94327-2.092-0.4914 0.31005-1.7503zm-2.5771 0.27544c2.0789 0.0049 0.57983 1.7783 0 0zm2.8572 1.7746c-1.1741 1.826-0.29371 0.64529 0.84524 1.3689 1.5107-2.2344-1.219-0.37631-0.84524-1.3689zm11.166 0.79065c1.5294 1.1407-0.48908 1.7987 0 0zm-7.8052 0.1633c0.70356 1.1053 1.6606 1.2141 0 0zm-5.425 0.1018c3.2502 1.8457-2.1196 0.75874 0 0zm18.27 0.06046c2.6866 0.84957 2.7711 1.4107-0.30851 0.49921 0.10252-0.1666 0.20551-0.3329 0.30851-0.49921zm-13.498 1.1958c-1.0309 2.6311 1.5836 1.4034 0 0zm-6.3273 0.62632c1.8521-0.4255-0.42425 1.0275-0.16381 0.26458l0.14947-0.24141zm-26.754 2.5399c1.2025 0.62341 0.01589 1.5332 0 0z" fill="#069ff9"/>
    <path d="m75.271 20.795c-13.732 0.53452-30.464 4.7527-38.758 16.593-3.0603 6.1006-5.8102 12.349-8.704 18.529-0.07426 2.997 1.1298 6.1765-0.33034 8.9756-1.768 5.8325-6.1012 11.719-0.46534 17.764 15.971 40.162 83.06 39.448 96.943-1.7173 0.92199-5.4796 1.8467-10.959 2.7747-16.437-1.1562-25.902-26.842-44.225-51.46-43.707zm-32.059 21.889c1.0663 0.7124-1.0301 0.62353 0 0zm0.55242 3.5279c1.3923-0.40531 0.36064 1.0392 0 0zm69.879 0.21187c-0.66534 2.1439 1.6347 3.7871 2.1391 5.5476 0.80792 0.82116 0.58847 1.4957 2.2542 1.9767 0.71091 1.7246-1.9495 4.4597-1.9194 1.448-0.75158-3.0963-2.316-5.7596-3.5525-8.6902 0.35951-0.09399 0.71901-0.18804 1.0785-0.28215zm-73.361 1.8407c-0.59329 0.85353-2.6899 4.9947-0.7612 2.8861 0.55355 0.46523-0.3983 2.3075-1.264 1.3937 0.14986-1.3341 0.65846-3.541 1.9172-4.2384zm5.2669 3.4153c0.84902 0.33017-0.58219 1.4551 0 0zm32.593 0.20877c2.6294-0.1509 1.442 2.9289-0.30985 0.9595-0.04006-0.2634 0.2402-0.66026 0.30985-0.9595zm-38.001 0.055811c1.117 1.0914-0.61714 1.1315 0 0zm7.1644 0c2.0448 0.54505 3.136 1.4765 1.6823 3.4215-0.2596 1.8542-3.8012 0.74841-1.8147 0.06898 2.2166-2.2069 0.18665-1.8832 0.13248-3.4905zm10.794 1.0087c1.7772 2.7123-1.8841-0.8071-0.29663 2.7182 1.6465 1.3595 2.765 4.0133-1.0525 3.8334 0.2822-2.1513-0.1718-2.4842-1.6085-1.3282-0.28532-1.847 1.73-2.1435 1.6553-2.7926 1.1592-1.4439-3.1975-2.6408-0.39326-1.5544 0.56512-0.29227 1.1303-0.58441 1.6955-0.87643zm-6.4203 0.0057c2.4762 0.35613 0.02618 4.5295 0.77438 1.4921-0.33737-0.30236-1.0989-0.49903-0.77438-1.4921zm-14.039 0.57309c2.0779 0.17833-1.0115 1.3883-0.38723 3.1765 0.45867 2.5401-2.0281 3.9221-0.67923 0.42935 0.1965-1.2525 0.6538-2.4168 1.0665-3.6058zm38.972 0c1.5352 0.0068-0.90058 1.9769-0.06145 0.23484zm-37.604 0.26458c-0.13449 0.80419 3.7427 1.5229 1.2202 2.3436-1.2854 0.35811-2.3842-1.5678-1.2202-2.3436zm75.67 0.79375c1.2695 0.5811-0.27323 3.4575 0.019 0.47232l-0.0114-0.28371zm-21.129 1.3648c1.1568 2.0287 2.1735 1.4535 2.843 0.63895-0.30567 1.1113 1.8312 1.1748 0.60599 2.7154-1.3139 1.3038-1.3286 2.4109-3.1828 1.6309-1.6325-0.06907-2.8655-1.3937-4.6822-0.85212-0.63689-0.87298 2.921-0.73935 1.361-2.9125 0.94478 0.57602 3.604 0.12645 3.055-1.2206zm-40.982 0.2036c1.8808 1.7747-1.2411 0.67997-1.5632 1.6062 1.0501-0.49297 0.2023-1.478 1.5632-1.6062zm44.922 0.5395c1.4599 0.59222-1.0275 0.7352 0 0zm-34.184 0.80254c1.2046 0.51517-0.2133 2.4622 1.8184 2.5073 0.70122-1.031 2.8301 0.58768 4.0928 0.1024 1.8344-0.62684 2.2005 1.5329 0.01142 0.82992-1.5822 0.06358 0.96966 1.879 1.6081 1.8521-1.7062-2.4216 1.941-0.0065-0.0049 0.26458 0.70039 2.7538-1.2012 0.08928-2.4333 0.18513-1.14 1.3761-0.40958-2.2626-1.7161-1.2869-1.1275-0.64481-2.1604 0.52311-3.4721 0.31015-1.1305 1.116-2.3271 2.8045-0.9462-0.45174-1.6776-1.1444 2.2019-0.29456 1.7111-1.7349-1.0607-1.0738-1.7165-0.219-1.4041-1.3616 0.45304-0.29194 0.56002-0.77271 0.73483-1.2165zm52.343 0.28835c0.27646 2.3602 1.4306 4.0522-0.65268 3.3429-1.3519 0.64484 1.1562-0.81563-0.13693-2.5533 0.26321-0.2632 0.52641-0.5264 0.78961-0.78961zm-68.73 0.24081c1.0663 0.7124-1.0301 0.62353 0 0zm12.965 0.19997c2.0673 1.3244-0.63391 1.8227 0 0zm9.2935 0.27389c0.9291 0.95586-1.6326 0.03106 0 0zm7.4001 1.0692c0.73322 2.223 1.3877 0.9595 3.397 1.0934 2.094-0.0015 1.1167-0.07239 1.9913 1.0696 0.45452 1.8581 2.4797-0.32048 2.3525 1.5856 0.34222 1.4453 3.0066 0.5234 1.3382 2.2489-1.0853 1.2819-1.36 1.0508-2.3788 1.8904 0.92647 2.8596-3.4678 0.11006-1.6913-1.1938-1.571-0.9914-1.7607 3.7802-3.9103 2.3012-0.01462-1.3358-1.6204-1.1585-1.3881-0.01145-1.7605 0.74647 0.86716-2.7179-2.1167-1.5312-0.43999-1.8459 2.4663-1.9653 1.8521-4.3238 2.719-1.9274-3.2845-0.73922-0.0077-2.797 0.18724-0.11066 0.37448-0.22132 0.56172-0.33199zm14.527 2.1611c1.366-0.52806-0.30159 1.3608 0 0zm-53.237 0.26768c1.0797 1.6494-1.3832 0.23771 0 0zm34.945 0.39378c1.1814 2.2642-1.4462 1.3149 0 0zm-12.664 0.13229c1.366-0.52806-0.30159 1.3608 0 0zm28.31 0.35295c3.0504-0.80512 0.14906 2.3161 0 0zm-1.2501 0.42116c0.52424 0.70243-1.0975 0.71884 0 0zm-28.648 1.5632c-0.16743 1.327-1.7299 0.77089 0 0zm-22.49 1.3291c0.72844 2.7259-1.5824 2.0815-0.1682 0.1682zm6.8792 1.8588c1.223 0.41507-0.30306 1.1101 0 0zm-5.8493 0.56017c1.4397 0.95945-0.77465 0.76883 0 0zm-1.3224 0.79375c1.0331 3.3536 0.42853-0.69743 1.8533 1.4314-0.37761 1.6635 1.0518 2.7764 1.6142 3.0231 1.5679 0.26553 3.8082 2.7534 2.9337 3.6295-1.3543 0.32817 1.4503 1.9081 1.603 0.84514 0.82673 0.41574 0.13843-3.4533 2.172-1.7994 2.0597 0.97213-0.21673 3.1041-1.3123 2.9244-0.8361-1.4913-0.92382 0.55238-1.3015 0.50849-0.96863 1.1714 1.3429 2.7739 0.14404 4.1393-0.22428 1.0956-1.0937-2.7765-2.4938-0.86769-1.0873-4.2692-1.3719 3.2372-2.2743-0.49558-0.21815-2.1687-2.2186-0.08129-3.5598-0.57778-3.2218 0.6751-3.0235-0.84811-5.2991-1.3766-0.15941-1.6366 1.23 0.82358 0.58029-1.5947 2.9368 1.734 0.22635-0.02558 1.1684-1.9327-1.5621-1.0792 2.2118 0.42126 3.0276-0.42979 0.43923-1.2156 1.9428-1.9758 1.2426-3.8123-0.03281-1.2049-0.06551-2.4099-0.09827-3.6148zm43.042 0.52917c1.9605 0.76454-2.7164 1.5332 0 0zm-42.187 1.1906c-0.15724 1.7924 0.96643 1.8949 0 0zm71.397 0.82734c2.7123 0.80336-0.12407 4.2351-0.38131 1.0928-0.4982-0.57011 0.0596-0.68331 0.38131-1.0928zm-65.858 0.89245c1.0136-0.46428 0.38433 2.0252 0 0zm57.175 1.1906c0.62251 0.92159-0.32076 1.524 0 0zm-14.859 0.03979c0.68586 2.1402 3.0457-0.95058 2.0886 1.0671 1.3902 1.3592 0.30019-0.29018 1.1086-0.85882 2.5698-0.85052 0.99485 2.5968 3.6484 2.526-0.49116-1.2846 1.3462 0.20278 2.902 0.79124 1.6503-1.1044 1.3648 2.3261 3.248 0.53582-1.255 1.8174 3.0006 0.71273 0.93138 2.4257-0.78098 1.0125 0.41042 6.2643-0.66628 3.9905-0.4235-0.98225-1.3157 2.6438-1.5962-0.19883-0.81751-0.01588-1.9483-1.0515-2.6671 0.5957-0.86604 0.5041-2.1906 2.1187-2.8304 1.1782-2.232-0.10291-2.8232-1.2368-5.1418-1.3766-1.6402 0.07955 0.34343 2.0751 0.29766 2.6458-0.4964 1.1882-2.5477-1.2166-3.0742-2.373-0.49554 0.66089-1.7217 2.7473-3.1435 2.0242-0.03966 1.9122 0.50764 3.052-1.6334 1.4903-0.80249 2.2709-2.2681 1.9193-2.6654 0.85966-0.85762 2.1418-1.563 2.137-0.72992-0.05495-0.1171-2.5932-0.28641 0.34091-1.3069-0.60012-0.61069-0.04653-2.1925 0.80822-1.9791 1.8078-1.3121 1.0126-2.3953-3.6081-2.9301-0.60927-0.44568 2.0623-1.1775-3.9014 0.54312-3.8328 0.90434-1.0694 1.5167-1.7746 2.8394-2.4733 0.92676-1.7881-2.5385-0.42877-1.9468-2.0252 1.731-0.64085-1.3513-0.76012-1.7567-0.76161 2.2391 1.8857-0.7915 1.0936-1.7958 0.44367-0.26969-1.5922 1.9452-0.89842 3.0616-1.0253 1.917 2.347 2.1896-5.9479 3.8176-1.9854-0.98364-0.02807 0.23944 2.0656 1.0092 2.7164-2.435 0.36944 0.51603 1.4633 0.59761 2.1658 1.2786-0.10181 1.4631-1.377 3.151-1.8448 0.22017-0.27043 3.7138 0.28251 2.3623-0.97324-0.54732-1.5836 2.3982-0.89001 0.32336-2.3702-0.74626-1.6969 1.0749-2.5918 2.5125-2.3972 1.0978 0.14993 2.4117-0.01498 1.4343-0.88117-0.03605-0.1534 0.0046-0.4497-0.01312-0.62173zm-16.965 0.48938c1.1297 0.72105 0.27719 1.4902 0 0zm48.942 1.8521c0.49626 2.2856-1.362 2.7845 0 0zm-34.666 0.08682c-0.90255 1.1713 1.4894 1.7797 0 0zm-37.03 1.2361c0.24534 1.4556 1.1373 0.78329 0 0zm71.162 0.89659c-0.0692 2.0185-1.469 0.58396 0 0zm-37.084 0.03255c1.4669 2.4391-1.8628 2.1678 0 0zm-37.23 0.12919c-1.371 1.7325 0.35919 1.3969 0 0zm52.925 0.13591c-3.1021 0.12407 0.07841 1.3074 0 0zm-6.3314 0.26097c-0.2812 1.3663-1.1678 2.2045-0.43171 3.4773 0.21401 0.65818 3.3269 3.4501 2.3307 1.1271 1.4122-2.5925-2.2039-1.2416-1.3874-3.283 0.38056-0.92953 0.55822-1.5169-0.5116-1.3214zm-46.056 0.26458c-0.02078 2.6023 1.8701-0.57651 0 0zm22.986 0c0.89732 0.61471-0.64202 2.1659 0 0zm-25.134 0.13229c0.24534 1.4556 1.1373 0.78329 0 0zm37.221 0.13229c0.60482 0.91411-1.1312 0.64473 0 0zm-5.2906 0.79375c-3.0777 1.3312 1.2849 1.4133 0 0zm-8.8196 0.0052c2.3176 0.05286 2.8149 2.0684 1.5803 2.9052-0.38222-1.151-2.8084-2.034-1.5803-2.9052zm-34.223 0.25937c1.0868-0.41622 0.45054 1.3763 0 0zm13.082 0.26458c0.0947 1.946 1.869 1.624 0 0zm66.324 0c2.3532-0.21155-0.316 2.2923 0 0zm-48.841 0.85576c3.4489 2.7146-3.2133 1.3054 0 0zm49.701 0.709c0.71877 0.47343-1.0699 1.6218 0 0zm-46.621 0.21549c0.10387 1.3686 0.17942 2.7349-1.2604 1.0428 0.31341-0.48009 0.81054-0.73212 1.2604-1.0428zm-19.621 0.07183c0.67702 1.3218 1.498-0.37447 0 0zm66.618 0.39688c2.9791-0.10312-0.34349 2.3602 0 0zm-27.428 0.13229c-0.40672 2.8215 2.1581-0.13504 0 0zm-37.82 1.0583c1.8629 1.3697-1.7898 2.4204 0 0zm-3.143 2.1208c0.30747 0.70544 4.4845 5.3066 2.4829 4.508-0.5541-1.4249-3.3227-1.2148-2.5305-3.3887-0.73512-0.53745-1.1232-0.7979 0.04754-1.1193zm70.663 0.54209c3.3974 1.0239-3.5012 2.5742 0 0zm-67.271 0.21652c2.2327 1.4673-0.21898 1.7159 0 0zm41.54 0.03101c1.5563 0.51807-1.4262 1.9053 0 0.09072zm19.066 1.3229c1.6167 1.4645-2.0404 1.1486 0 0zm-61.428 0.79375c2.1706 0.63316 2.1521 2.1315 0 0zm27.811 0.81029c1.5998 0.25537 0.20477 1.648 0 0zm-24.342 0.22737c1.6462 1.1946-0.17063 2.252 0 0zm61.631 0.41755c0.44685 1.5655-2.1337 2.1829 0 0zm-61.923 1.1968c1.1955 0.22857 0.75913 1.0579 0 0zm6.7743 7.5344c1.1053 0.70356 1.2141 1.6606 0 0z" fill="#0974f6"/>
    <path d="m75.271 20.795c-13.732 0.53452-30.464 4.7527-38.758 16.593-3.0603 6.1006-5.8102 12.349-8.704 18.529-0.07426 2.997 1.1298 6.1765-0.33034 8.9756-1.768 5.8325-6.1012 11.719-0.46534 17.764 15.971 40.162 83.06 39.448 96.943-1.7173 0.92199-5.4796 1.8467-10.959 2.7747-16.437-1.1562-25.902-26.842-44.225-51.46-43.707zm-0.86248 4.1362c5.6578-0.05831 11.432 0.40317 16.7 2.6171 4.8968 1.7843 9.4255 4.5245 13.317 7.9915-2.0375-1.1866-0.89849 0.89616-2.1882 1.0583 0.8116-1.1313-1.9718-1.4854-1.8138-0.83222-0.20715 1.7928-0.82032-2.527 1.3273-0.83073 1.8422-0.44905-4.0766-3.1882-0.62477-0.86661-2.2052 0.55704-1.0126-2.6326-2.7724-1.2854 0.04695-2.6388-4.9646-2.8462-1.8563-1.3227-0.12072 1.3628-4.8877-2.5398-1.5136-0.77308-0.34097-0.11693-0.9415-2.2703-2.5181-1.9113-2.6513 0.3012-4.7816-0.95686-2.2858-1.047-1.7548-0.57234-1.6437-0.37098-2.8666-0.82132-1.1531 1.3028-1.013 0.93373-2.3352 1.8892-0.0082-0.53606-0.55387-0.57948-2.2157-0.67337-0.22248-0.59828 1.9728-0.83483 1.3207-1.0261-2.2821-0.36449 2.7255-0.04169 0.57991-0.70692-1.3128-0.91481-1.5436 0.9415-3.284 0.58029-2.2838 0.45309 3.529-1.4634-0.607-1.4744-1.9465 0.12046-4.0033-0.49474-5.8484 0.30188 0.71857 1.339-2.3654-0.81504-3.6613 0.08421 0.34393 0.11885-3.6874 0.08431-1.3276 0.66148-0.41584 1.2047-2.2783-1.0297-2.6845 0.52917-2.8584-0.15644-1.3748 1.0405-2.394 1.4961-2.3801 1.1432-1.9464-2.0554-2.5944 0.08239-1.4444 0.7234-1.0553-0.50918-3.2037 0.73513-1.3091 0.56585-1.7827 2.4653-3.3732 1.7844-1.2014 0.5679-0.67751 1.2777 0.55663 1.1937-1.198 1.4659-2.2962-0.0838-3.7507 0.61443 2.0156-2.2851 6.0894-3.2803 7.7634-4.946 0.33627-0.9726 1.061 0.44179 3.1421-0.87424 3.6006-1.0693 7.2819-1.8004 11.012-2.2279zm4.5537 0.81907c-0.4827 1.1566-2.2138-0.48887 0 0zm-8.7938 1.0583c1.0868-0.41622 0.45054 1.3763 0 0zm8.8697 0.06097c-1.551 1.5827-2.7419-0.0064-0.1838 0.02018zm-3.375 0.08527c1.0551 1.7121-1.9586 1.5128 0 0zm-4.1124 0.11834c1.3945 0.5422-1.0499 1.253 0 0zm-7.1722 0.26458c-0.19862 1.3317 1.2119-0.49529 0 0zm3.2065 0c-0.49969 1.5248 4.4631-0.44689 1.6743 1.0588 0.57063 0.59596-2.828-0.7119-2.7714-0.53347-1.7159 0.20067 0.6448-0.69117 1.097-0.52534zm19.885 0.24495c0.52424 0.70244-1.0975 0.71884 0 0zm-10.707 0.22944c2.517 0.66141-1.6719 0.90717 0 0zm-9.7214 0.77721c0.19935 0.019-2.1818 2.4081-1.6076 0.7566 0.38218-0.37696 1.1126-0.48517 1.6076-0.7566zm13.022 0.05943c-0.72552 1.3341-1.5636 0.53783 0 0zm5.4126 0.20154c1.3615 0.37674 4.2492 1.2535 4.9253 0.2775 0.73924-0.02894 1.8171 1.9443-0.45906 0.96042-1.4378 0.21935-3.1396-0.54912-4.3567-0.90822l-0.08953-0.26945zm-2.3399 0.08113c1.1955 0.22857 0.75913 1.0579 0 0zm8.694 0.52297c1.0833-0.05033 1.0043 1.7522 0 0zm-15.577 0.26458c1.6537-0.01405 1.2742 1.3138 0 0zm-12.763 0.24546c2.9938 0.66144-2.5596 1.4387 0 0zm22.981 0.02739c1.3582 0.052 1.6235 1.0554 0.15836 0.10227zm-3.8365 0.22531c1.223 0.41507-0.30306 1.1101 0 0zm8.0698 0.47387c3.1098 1.4747 0.22549 1.8137 0 0zm-1.7064 0.09043c2.5447 0.71267-1.4098 0.27288 0 0zm0.87436 0.22376c3.4601 1.1401-2.554 1.9335 0 0zm-33.696 0.21291c0.942 1.8534-0.88368 0.51795 0 0zm2.5135 0.63097c1.8331 1.2077-1.3871 3.4371-0.12299 1.3152-0.79992-0.19874 0.08534-0.8587 0.12299-1.3152zm32.454 0.23358c0.84704 1.2175 2.9021 2.0966 0.34778 1.3978-0.72561-0.32436-0.47394-0.77158-0.34778-1.3978zm2.1074 0.22686c0.9291 0.95586-1.6326 0.03106 0 0zm1.3214 0.01654c1.9475 0.09266 1.808 2.9865 0.30282 0.6413-0.10094-0.21377-0.20188-0.42754-0.30282-0.6413zm-36.809 0.03876c-0.59307 1.0662-2.3013-0.45644-0.15992 0.0041zm27.252 0c1.0663 0.7124-1.0301 0.62353 0 0zm1.6759 0.02326c1.0983 0.72075-0.34705 1.3072 0 0zm-17.022 0.24133c2.0539-0.31246-0.18369 1.5015 0 0zm19.815 0.14728c2.5077 1.821-1.1947 1.9809 0 0zm9.9503 0.03256c-0.15183 1.2372 0.32119 2.241-0.73587 1.1472 0.81393 0.04912-0.62686-0.9479 0.73587-1.1472zm-1.7198 0.05374c1.9481 1.1704-2.3903 0.83605 0 0.52142v-0.26097zm-41.01 0.031c1.4292 0.18033-1.5545 0.97045 0 0.28008zm37.56 0.71572c1.8759 1.9346 0.9336 0.52539-0.44698 1.5878-0.22243-0.73826 0.99342-0.3111 0.44698-1.5878zm-34.352 0.02273c0.9291 0.95586-1.6326 0.03106 0 0zm-6.6477 0.0553c1.366-0.52806-0.30159 1.3608 0 0zm43.675 0.28474c3.3212 1.0632-0.44182 1.5335 0 0zm-43.905 0.08268c-0.62197 2.8378 3.0857-1.4401 1.6609 1.4097-0.63188 2.4275-0.61662-1.1332-1.696 0.90664-1.6427 1.2295 1.8117-2.1186-0.68988-0.95625-1.3191 0.76888-3.6776-0.33592-2.9813 1.7594-0.20312 2.644-0.74486-1.423-1.0762 1.3798-0.69142 1.0908-0.21804-0.8193-1.1053-0.63336-0.49866 0.84716 1.1116 3.4843-1.0694 3.5939-0.56395 1.2397-0.46748 1.7612-1.429 0.17124 0.817 2.4781-2.7894 2.4724-0.25881 3.4743 0.89822 1.1995 1.5672 0.39935 1.3466 1.9102 0.9797 1.7617-0.26888 1.2592-1.1782 1.5427 1.0955-0.80284 0.06925-0.87116-0.88009-0.95344-2.0391-0.43251-2.1026-0.41772-1.8206-2.066-1.6071 1.3536 0.10774-1.1534-0.11265-1.1503 0.73505-1.9141 3.2161-4.6215 5.0471-6.5867 1.9654-1.498 3.4325-4.3987 6.2427-3.8018zm3.5073 0.36173c1.2678 2.1776-2.636 1.6982 0 0zm-5.6276 0.32918c-2.0742 1.2004 1.1519 0.07178 0 0zm42.037 0.5457c1.8946 0.3659-0.32659 1.1023 0 0zm-35.536 0.51676c2.44 1.082-1.1908-0.06769 0 0zm46.886 0.26045c2.599 1.176 4.6869 4.3397 4.5098 4.64 1.6439 1.0175 2.6813 3.7918 4.0649 5.4948 2.1395-2.3733-0.27795 2.0865 1.4862 2.759 1.0311 1.0945 0.60602 2.7697 2.4019 2.7166-0.86619 2.0213 2.0772 0.79099 2.0495 2.2767-0.41579 1.0088 0.1878 2.6612-1.8113 2.4858-0.28311 1.5184 1.9108 6.9573 0.51836 5.4806-0.36324 0.63604-0.30828 0.77469-0.90284-0.04494-0.56361 2.1029 1.8716 1.5773 1.5448 3.7312-0.0922 2.6236-0.58826 5.1463-0.15424 7.7841-2.187 0.90296 0.54564 4.1891-0.97048 5.4069-1.4783 2.2335-4.975 6.536-4.1844 8.6383 0.85581 1.6708-2.8127 1.1815-3.0823 3.0366-0.71007 2.0699-2.069 3.6344-3.8422 4.9057-2.1221 1.7365-4.7089 4.7593-7.1602 5.2224 2.7214-2.5597 1.0636-2.1175-0.84026-0.52057-1.5948-0.08804-2.6373 0.76897-1.0673-0.67432 1.4613 0.64846 2.3213-1.6309 3.9462-0.94988-0.0241-0.74847 2.1375-1.9657 0.12561-1.7994-0.90191 1.539-2.998 0.26614-0.61686 0.3227 0.14814-0.2655-0.15182-2.4781 0.65975-1.643-0.64282 1.4806 1.0775 0.63585 1.043 0.54972 2.6003-1.827-0.71284 1.6623 0.21192 2.0935 1.5414-1.44 4.7234-3.9358 5.7302-6.657 2.2979-1.4361 3.1568-5.6797 4.2879-5.9346-0.48409-2.4034-2.2772-0.68716-2.1092 1.1478-1.1069 2.5834-2.3289-0.8056-1.6003 1.6404-0.0922 0.54413-1.3469-1.0123-2.6149 0.82094 0.82627 1.95-3.8061 2.4403-2.3209 3.9766-0.072 2.1328-1.9773 1.8932-0.49441 0.39731 0.85735-2.48-2.0651-1.3039-0.50657 0.15636 0.34345-0.12106-2.4051 1.8658-0.9197-0.6168-2.6916 1.1563-0.83892-1.02 0.38607-0.97598 0.93585-0.87718-2.1455-1.1801-1.1178-2.6863-1.497 0.87849-0.56336 0.20201-1.5775-1.1504-1.9969 1.8641 0.43872-2.0519 0.89689 0.27304 1.1472-0.94295 0.0638-1.4981 1.1792-0.71017-0.46896 1.1013 0.59739 1.7255 0.76223 2.9587 0.70465 0.60464 0.52509 0.0072 1.9838-0.3315-1.8849-0.20881-1.3798-1.9275-1.0176-2.0009 1.3128-0.25678 0.30933 1.3002 1.1504 0.76171 0.74993-1.0886 2.7171-1.4163 2.3544-2.8748-0.0435-1.9544 1.1324 1.5764 2.2919-0.45786 2.4666-1.056-1.7393-1.315-0.48573-2.7871-0.29928-1.4909-0.74966 0.29721-1.4072 0.80409 1.961 2.062-1.7579 0.75681-0.35673-0.85008 0.32169-2.9367 0.96344-2.4167 3.0269-2.8792-2.0089-0.24014 0.78261-4.762 1.6464-1.5547-0.77003 2.5987 0.30962 1.6698 0.74629 1.5581-0.0747 2.2859-0.0743 1.8596 1.2169 2.457 0.0458 2.5055 1.9481-3.7595-0.28421-0.26665-0.43528-1.0906-0.47895-3.1905-0.0721-3.0029 0.50692-1.3766-0.42778-4.3281 1.3367-5.0241 0.55865-1.7662 1.4404-1.4285-0.15279-1.4908 2.3619-0.42142-1.4392-1.0523 0.72329-1.4231-0.46292-1.3646 2.2312 0.62426 1.1045-1.2066-2.1157 0.89637 0.58131-2.5222 0.48358 0.32142 0.92928 0.63188-0.41394-2.8242 0.21485-3.7926 1.3187 0.2285-0.0378-0.31169-0.88723 0.16276-0.862-0.30126 0.11804 3.2375-1.4263 0.59686 0.10266 0.75297 1.1825-0.31349 1.0339-1.684-0.965-0.84407 0.24109-3.0418-0.78845-4.0113 0.12864 1.4417-1.0238 3.1408-1.2048 3.7696 0.2411 0.65572-1.7763-2.6764-1.1571-2.8875 0.58471-2.6737 0.30612 2.2424 1.6853-0.117 0.65969-2.1153 0.0273-2.5643-0.35018-4.3065-0.50331-0.29856-1.3236-1.5138-2.3632-1.9266 1.6055 2.2602 0.0183 3.8298-0.20205 0.17053-0.0444-0.91783 1.1789-2.8379-0.64131-3.329 6e-3 -0.29928 1.4144-1.8403 1.7917-0.39541-2.6935-0.31584 2.0595 2.9271-0.0269-0.73403-1.9032-2.5272 0.55749-0.68084 0.65066-0.88271 0.81894-1.1751-1.682-3.524-0.67759-3.7202-2.2771-1.5164 0.67526-1.0002-1.4981-3.9141 0.29325 1.2636-2.1795-0.90968-1.4498-1.4763-1.5598 0.32073-0.56852-2.0599-2.0182-2.6707-1.88 0.75546 0.27974-1.4767-2.6258-2.9165l-0.2083-0.19296zm-3.3595 60.315c-0.0276 0.01056 0.0171 0.0204 0 0zm-49.806-60.281c0.34552 0.70386-1.4623 1.2353 0 0zm44.462 0.0155c2.0789 0.0049 0.57983 1.7783 0 0zm1.7518 0.19534c1.8485 0.38056 2.0308 2.2799 0 0zm3.5088 0.01963c1.4574-0.43593 0.7295 1.3432 0 0zm-50.504 0.01654c-0.1952 2.2322-1.4527 0.02034 0 0zm7.8207 0.24805c0.60482 0.91411-1.1312 0.64473 0 0zm42.009 0.37414c1.9208 0.9831 0.45843 1.5884 0 0zm-33.948 0.15503c0.82108 0.63804-1.4874 1.8934 0 0zm15.487 0.79375c0.60482 0.91411-1.1312 0.64473 0 0zm15.663 0c1.8328-0.5854 1.3118 2.0531 0 0zm-47.494 0.1323c0.75159 1.266 2.9341-0.20193 0.28324 1.1257-1.483 2.7211-0.34771-0.52397-0.6336-0.79496l0.20648-0.1949zm5.6224 0c-0.70421 1.1134-1.6261 1.2583 0 0zm47.03 0.06615c-0.53574 1.5593-1.7534 0.83215 0 0zm-15.178 0.06614c1.3324 0.11431 0.895 1.2435 0 0zm7.9685 1.0583c2.2128 0.28494 1.6402 0.65674 0 0.52916v-0.26458zm-49.225 0.26458c-1.0965 1.8371-1.1803 1.7185 0.80667 1.3229-0.2721-1.0611-0.78687-0.53576-0.46974-1.3023l-0.2834-0.01737zm54.603 0.26458c2.1145 1.4284 0.99535 1.7998 0 0zm-49.828 0.01654c2.4839 0.58672-2.0124 1.8983-0.50982 0.51263 0.54877 0.10066 0.55318-0.0129 0.50982-0.51263zm-3.175 0.24805c2.0437-0.40416-0.12463 3.1706 0 0.98373v-0.98373zm55.854 0.79995c-0.34998 0.93038-1.6219 0.38528 0 0zm-4.6421 1.0521c0.60482 0.91411-1.1312 0.64473 0 0zm-28.71 0.17105c2.1013 1.4337-0.84141 3.2093-0.5414 1.0196 1.0162-0.0345 0.75187 0.2717 0.5414-1.0196zm29.332 0.41393c3.2218 1.2729-3.5591 0.63762 0 0zm2.3936 0.39843c1.3348 0.726 0.53653 1.5631 0 0zm-34.359 0.75499c1.7702 0.80185 0.19163 2.686 0.10077 0.73794-0.51448-0.3414-0.64496-0.30855-0.10077-0.73794zm41.968 0.36638c1.2523 0.22511 1.0086 1.5453 0 0zm-9.7276 0.73019c2.8384 2.6357-0.81894 1.6207 0 0zm-26.181 0.07545c1.0663 0.7124-1.0301 0.62353 0 0zm-30.162 0.49816c-1.044 0.51036-0.35498 1.5984 0 0zm25.532 0.03927c0.62993 0.2938-2.2776 0.76893 0 0zm-12.301 0.21807c2.2281 0.33568 0.30692 1.654 0 0zm45.654 0.30283c0.60482 0.91411-1.1312 0.64473 0 0zm6.4668 0.01654c1.5998 0.25537 0.20477 1.648 0 0zm-2.9275 0.0067c0.69044 2.114-1.713-0.01417 0 0zm-2.7812 0.58653c0.53293 1.0705 2.6318 2.6045 1.1489 3.2564 0.29216-1.4901-1.6011-0.50827-0.84717-2.2645-0.0562-0.22173-0.63796-0.85174-0.30176-0.99191zm-53.086 0.11265c1.5043 1.5088-0.97308 1.4543 0 0zm48.194 0.0615c1.7929 2.499-1.0171 1.1272 0 0zm-50.254 0.0098c1.8839-0.44412-0.18954 1.308 0 0zm28.094 0.1788c1.599 2.1406-2.2122 1.3058 0 0zm-35.778 0.21808c1.0243 1.5409-0.9554 3.79-0.07286 3.2181 0.7343 1.3466 4.0861 1.5266 4.3176-0.35809 0.825 0.26699 0.9585 1.5525 2.6393 1.5056 0.37701-0.74014 3.5844-2.9336 1.5265-0.78824-1.2086 1.2498 1.8434 2.2438 2.2109 1.8541 1.8708-0.34507 3.3765 2.1464 1.8341 3.4982 0.31569 0.35725 1.6948 3.6775-0.18138 2.3151 1.2147 2.427-2.6372 2.6917-2.4319 0.05581 1.9258-2.5432 1.6356-3.0619-0.38241-1.1012-2.4714-1.6163-2.3189 0.13642-0.34424 1.0527 0.19546 1.7098-3.1392-0.93092-2.0891 1.969 1.4624 1.5255-1.6667 2.616-0.53276 3.8445-0.62034-1.3435-1.7633-1.5164-2.821-1.1162 1.2285-1.4047-2.1982-2.3559-0.49996-3.5395-0.22048 1.2997 2.8154 1.5858 2.0942 2.7498 1.8691 0.53172-0.84622-1.9132 0.02195-2.4428 0.94357-0.14533 0.5264-3.5952 1.858-1.6045 0.34815-1.4236-3.3103-2.2745-0.71249-2.9591 0.27532-2.4577-1.5969-1.116-2.0414 0.0182 0.50057-1.7809-1.3697 1.1349-0.95395-0.60822 2.1826-0.88409-0.38855-3.8337 0.27647-1.6139-1.1863 1.5346-2.3125 0.37054-2.8185 1.2235 0.81331 1.3388 1.281 1.3717-0.24096 2.2043-0.08491 1.0951 0.69675 1.4475-1.5847 0.50276-0.90912-2.5026-1.5698-0.94185-2.1587 0.44676 0.88792 1.5008-0.36274 3.1276 0.82641 4.5064 0.99034 1.3402-1.5441 3.7312-1.4743 1.5669 1.0651-2.4581 0.44115-2.6195-0.2658-0.34226-0.54807 1.8549 0.30508 3.5214 0.8015 3.3141-0.92442 0.23556-1.1991 4.4336-0.59476 2.2424 0.98426-0.31775 1.827 0.85899 1.6037 1.7001-0.55764 1.6323 0.51164 3.4007 2.1523 3.123-0.41957-2.3619 2.8046 0.25062 1.8805-2.1835 0.8968-0.44182 1.3143 1.6582 0.64544 1.9482-0.04218 1.6078 3.414 0.0044 4.0955 1.9196 0.71059 1.5507 0.27482 2.704 0.08461 4.1575 0.74031-2.6192-2.6023 0.94974-2.6877 1.1906 1.7589 1.5587-1.8104-1.3576-0.16853 1.238 1.9979 1.0887 0.5117-2.6284 2.4975-1.7334 1.8752 0.72939 0.78826 2.0283 1.438 2.612-1.1078-0.85481-0.95102 0.80563-1.5645-1.5658 0.50937-1.2139-1.5165 1.2624 0.1788 3.0298-2.185-0.69981 1.0504 2.7389-1.4092 1.248-1.1134 1.1987 0.15839 3.435 1.7321 2.4592 2.4493-0.49882 0.30631 2.3065 2.2866 2.5216 0.0308 0.88853 1.515 2.9987 2.9867 2.1992 1.764 0.41709 1.9865-3.2104 2.0743-0.77006-0.67264 0.97469 1.5629 3.6361-0.61753 1.726 1.8696 1.4566 1.4533 1.9789-0.34463 2.1167 0.94029-0.6247-0.30769-0.85771-0.32665-1.5875-1.818-0.16407 0.45079 2.6696-1.8671 0.26458 0.84419 1.6122-2.8874-2.039-0.81893 2.053-1.447-0.0019-2.7207-0.84238-4.5233-3.0024-0.80538-1.7211-2.6377-1.0016-2.6691-2.7548-2.593 0.50156-3.5494-3.5126-2.9182-3.8024 1.8153-1.373-3.9298-0.49214-2.3657-2.5471-0.36574-1.3683-1.5318-0.91452-1.4515-1.576-1.0615-0.10906-2.6616-0.45104-4.1591-0.27655 0.05235 2.1312-1.6586-2.1234-2.7801 0.39688 1.0991-1.4183-3.2598-2.5351-0.07602-2.5135 0.09785-0.55949 1.1211-1.9657 1.7695-2.6298-1.7888-2.1483 1.8493 0.12414 2.486-1.3302 1.2383-1.4417 2.1753-1.9162 1.3159-3.4044-0.10456-1.5798 1.1282-3.8813 0.25993-5.5154 0.10022-0.87644 0.60613-2.9094 0.52743-4.4439 0.29205-2.8498 0.2054-6.2713 1.3639-8.6752 0.7366-1.9394 1.5976-4.4523 2.6458-6.5449 0.17257-0.22049 0.34514-0.44098 0.51772-0.66146zm38.641 0.08837c2.2618 0.50789-2.0664 0.33588 0 0zm26.427 0.04393c1.3324 0.11431 0.89499 1.2435 0 0zm-57.909 0.23102c1.0629 2.0295-1.48 1.2251 0 0zm62.936 0.03359c1.0868-0.41622 0.45054 1.3763 0 0zm-44.915 0.20929c0.9291 0.95586-1.6326 0.03106 0 0zm-12.161 0.05064c1.4054 0.46514-2.942 4.3647 0.28077 3.0441 1.3249 1.191 1.5044 2.1662 2.7656 1.3923-0.46121 2.9224 2.7531-0.85767 2.4025 1.9586-1.7333 2.1961 1.324 2.6928 1.9692 4.7574 0.07124 1.1801-2.4331 0.2448-3.3166 1.023-2.4104 0.56182 0.16267-2.8855-1.4276-1.8771-3.0804 0.50404-1.1094-0.63706-0.38915-2.38-1.285-0.89058-1.8074-1.7487-1.763-2.364-1.1873-0.64638 1.1254-3.2204-1.1223-1.5357-2.2355 0.47553 0.23099-3.3308-0.37863-3.4311 0.29795 0.53298 0.67835-0.49202 0.97927-0.58757zm7.0843 0.05478c-0.75066 2.6081-2.6678 0.37096 0 0zm39.439 0.21446c1.8839-0.44412-0.18954 1.308 0 0zm-24.342 0.42323c1.2025 0.62341 0.01589 1.5332 0 0zm3.7042 0.12247c0.49622 1.5132-2.0785 0.63923 0 0zm-37.571 0.15968c0.92338 1.5243-0.16531 2.2693-0.16382 0.16433zm34.66 0.05736c1.223 0.41507-0.30306 1.1101 0 0zm22.994 0.03101c1.7036-0.47061 1.7004 3.1122 0 0zm-1.4495 0.11265c1.7752 0.12192-0.47191 2.0794 0 0zm-18.642 0.5488c0.50112 1.2279-1.1228 2.1425 0 0zm-17.519 0.13229c1.4573-0.51619 0.94534 1.8389 0 0zm6.6792 0.15865c1.2025 0.62341 0.01589 1.5332 0 0zm38.17 0.34985c1.5119 0.43158-0.64246 3.0708 1.4289 3.4284-0.54064 0.11423 0.0541 4.4074-1.3429 1.907-1.0192-0.93174-0.50784-1.4362 0.63745-0.55219-0.1629-1.2946-0.76808-1.6597-0.99587-3.4203 0.0911-0.45422 0.18171-0.90853 0.27237-1.3628zm-27.058 0.22066c2.0929 1.2071-0.14425 2.3907 0 0zm25.575 0.04703c2.8406 1.055-1.1218 2.2745 0 0zm-58.235 0.01757c0.60482 0.91411-1.1312 0.64473 0 0zm55.15 0.01654c2.063 0.64737-0.49233 1.4982 0 0zm-52.388 0.24805c1.0663 0.7124-1.0301 0.62353 0 0zm11.377 0.49041c-0.75241 3.3571-2.0424-0.16005 0 0zm2.4365 0.04186c1.7567 2.1409-1.0355 0.84126-1.2588 0.65617 0.4195-0.21889 0.83913-0.43751 1.2588-0.65617zm15.323 0.14986c4.4599 1.2007-1.1381 4.0209-1.1428 1.233 0.38095-0.41099 0.76189-0.822 1.1428-1.233zm34.612 0.0217c-1.1456 1.0249 1.0819 2.0181-0.44545 1.5829 1.8368 1.3078-1.2934 2.3703 0.0202 3.3052 2.1128 1.7753 1.0863-2.7331 2.2908-2.4913 0.1561-1.0902-1.3424-1.5833-1.8655-2.3968zm-11.096 0.05323c2.382-0.28633 0.73818 2.4693 0 0zm-55.722 0.83044c-2.3236 1.4035 0.60996 0.91633 0 0zm36.046 0.36638c-0.52772 0.87569-1.2939 2.6873-1.6577 1.6454-0.42295-1.0843 1.1272-0.93676 1.6577-1.6454zm-5.3847 0.0708c0.03291 1.3962 0.66337 2.1961-1.119 3.2357-1.7098-0.63944 0.40743-0.41995-0.08452-1.0932-1.0919-0.40016 1.0112-1.5759 1.2035-2.1425zm-22.86 0.35657c0.41507 1.223 1.1101-0.30306 0 0zm47.391 0c1.9786 0.71459-0.48978 1.488 0 0zm-61.677 0.14779c-1.8267 2.1883 1.0857 0.75014 0 0zm32.837 0.13333c0.42429 2.4383-1.7583 0.03475 0 0zm11.906 0.48162c1.5294 1.1407-0.48908 1.7987 0 0zm18.819 0.03152c1.7993 0.97882 0.28786 2.3496 0 0zm-3.0138 0.21342c2.6688 1.2167 1.2098 1.9948-0.42892 0.69453 0.14298-0.23151 0.28595-0.46302 0.42892-0.69453zm-38.295 0.01963c0.01405 1.6537-1.3138 1.2742 0 0zm-11.304 0.03101c-3.6981 2.5894-0.29367 2.022 0 0zm35.646 0.20826c2.5516 0.69496-2.3215 0.88506-0.19017 0.07296zm10.561 0.26923c1.2156 0.46313 0.79187 1.9468 2.0374 2.5293 1.6898 1.7844-2.6524 0.77879-0.94796 1.7557 1.1602 0.80492-0.15488 1.4363-0.66765 0.43305 0.2144 2.0157-1.6339 0.94694-1.7367 2.8239-0.90342 1.4825-1.1243-1.6067-3.0873-0.77272-2.6121-1.9849 0.27202 0.86088-1.9813 1.1292-0.63621-0.08505 1.6552-3.0959-1.3694-1.103-0.60077 0.86722-4.1324 0.34604-1.9868 0.93048 2.182-1.024 3.6087 1.8791 5.0259 1.5392-1.1145-3.2897 2.2191 1.7011 0.69535 1.1279-1.5497-0.85173 0.1599 0.53837-1.8309 0.50947-0.94671 1.042 0.60684-2.792-1.1532-1.5899 0.20207 1.0541-3.2205-1.307-3.8188 1.051 0.01321 0.6474 2.443 1.5697 0.6898 1.366-0.94631-0.89859-1.6516 2.1875-3.4716 0.88987 0.86832 2.2203-1.7354 1.6158-1.6183 2.3886-1.4311-2.6542-1.522 1.2646-3.0119 1.5659-1.7111 0.20983-2.8332-1.048-4.4979-0.79916 1.3358-1.055 0.7239-2.7422-0.18721-2.6431-2.1339-1.5198-0.88506-2.8769 0.04203-2.9563-1.8775-1.7524-3.5342-1.7571-3.0381 0.45974-0.85649-1.8491-3.9495-0.48643-4.4121-2.2019-0.70985-1.8272-0.71782 1.5245-2.1131 1.3999 0.43642-0.67158-2.4569-2.7384-1.9283-0.92536 1.5605 1.5444-0.90937 1.4668-0.79037 1.2953-1.2914 1.2313-0.84509 0.08541-2.6562 0.71375-0.31801 1.0598-1.3518 2.1831 0.66355 2.2923-1.2089-0.36391-3.9431 0.23871-2.4919-0.53811 2.0191-1.4344-0.06559-1.037-1.0973-1.1535 1.4339 0.10402 0.79406-3.1508 1.8859-1.8508 0.06187-2.0971 1.6855-1.8635 2.7678-2.2159 1.323 1.2385-0.30859-1.9838 0.39016-2.0578 1.3354 1.1142 2.3426 0.85902 0.86248-0.30334-0.63963-1.1842 1.1717-3.6505 1.9072-2.1122 0.97441-0.39532 0.92815 1.2611 1.2223 1.7851 1.0066 0.02322 5.1736 0.93835 2.575-0.44034 0.41508-1.183 2.3613-0.32876 3.5037-0.60935 0.83745 0.802-3.592 0.06532-0.38596 1.8382 2.1785-0.972 2.3076 0.35281 0.37001 1.4822-0.34227 2.0618 2.6072-0.34051 1.9379 2.1466 1.9333 2.6477 2.9969-3.0181 2.9569-2.1151-2.4901 1.1975-1.0291-1.5371-3.3574-0.46044 2.3628-0.62896-0.17827-2.0489 2.1379-0.87962 1.1145-1.4263-3.3934-2.7641-0.43361-2.928 1.7198 0.24818-1.1169 1.4209 1.4568 1.8949 1.532-0.59916 2.051 1.3812 2.2624 0.61805 2.1357 1.7986 1.8302-0.7505 3.6225 0.42346 0.32531 3.9531 2.0445-0.8273 2.1275 1.1388 1.5061-0.92277 0.53298 1.7603 2.5994 0.25472 0.06154-1.486 2.1159-2.6665 2.5865-2.7777-0.53473-1.4058 1.1119-2.4854 2.0995-2.9744 0.74959 1.728 1.6941-0.13364 1.7192-0.51852 1.497 0.73698 2.1518 2.4159 2.6263 0.26943-0.06779-2.1742 1.6613 1.6495 1.4681-0.45682-0.05601-0.22285-0.11202-0.4457-0.16803-0.66854zm-12.951 0.48369c0.85815 2.1426-1.3057 2.0886-0.07414 0.07415zm-10.012 0.04186c0.9291 0.95586-1.6326 0.03106 0 0zm17.629 0.0553c2.2091 2.0137-2.9308-0.58843 0 0zm-6.6384 0.13229c3.0049-0.2446-1.1791 1.7433 0 0zm-8.401 0.06718c2.3829 0.90086-1.1501 1.0511 0 0zm10.666 0.01913c1.4911 1.179-1.2384 2.175 0 0zm-5.6162 0.04599c0.61411 0.73329 2.4155 1.2941 1.8521 3.1064 2.0215 2.1855 0.5018 2.1885-0.493 0.65921-0.88975-0.06312-0.2003-3.0884-1.3591-3.7657zm-3.1228 0.03669c2.206 0.37637-0.90434 2.4933 0 0zm36.989 0.49248c-0.33691 2.6364 1.7884 0.14079 0 0zm-42.496 0.0083c-0.32278 0.4194-1.1237 1.1178-0.8119 1.3695-2.004 0.61438 0.17618-1.4517 0.8119-1.3695zm27.374 0.25632c2.0378 1.4304-0.42943 0.82966 1.0992 2.3479-0.90267 2.1237-2.1035-0.64075-1.7343-1.3691 0.72186 0.0493 0.13883-0.91179 0.63511-0.97875zm-19.604 0.0083c1.0689 0.76659-3.3068 2.3742 0 0zm23.935 0.0026c2.4505 0.30743 0.7169 1.1601-0.71778 0.88471 0.23908-0.29505 0.47834-0.58995 0.71778-0.88471zm4.9093 0.12144c0.72883 0.87831 1.4533 2.6605-0.17279 0.66524 0.058-0.22164 0.11519-0.4435 0.17279-0.66524zm-48.354 0.15038c3.5603 1.2678-3.9825 2.2003 0 0zm19.981 0.55656c1.4225 1.9776-1.1733 2.8334-0.19895 0.12299zm24.986 0.3514c0.0617 1.5701-1.1517 1.9871-0.10227 0.15836zm-54.527 0.13229c0.41507 1.223 1.1101-0.30306 0 0zm56.387 0c1.0663 0.7124-1.0301 0.62353 0 0zm-30.461 0.0093c2.0313 0.75894-0.73936 2.2312 0 0zm38.407 0.15813c-0.89508 1.5909 1.5409 4.3298 0.42835 0.75177 6e-3 -0.34389-0.23231-0.53466-0.42835-0.75177zm-31.346 0.09715c0.60482 0.91411-1.1312 0.64473 0 0zm-20.264 0.13229c-1.1731 1.5565 0.4119 1.6227 0 0zm49.485 0.10129c-0.43592 1.4574 1.3432 0.7295 0 0zm-1.1906 0.04134c0.70442 2.0104-0.82028 2.9881-0.52917 0.12196l0.26458-0.06098zm-40.349 0.2707c1.8946 0.3659-0.32659 1.1023 0 0zm12.958 0.262c1.8173 0.99541 1.1022 4.2031 0 0zm-36.506 0.74879c0.50478 1.3136 1.2309 1.6317 0.38554 2.4213-0.12298 3.2628-0.82631-1.7546-0.38554-2.4213zm-10.905 0.1633c1.1926 2.9564-1.1932 1.8387 0 0zm17.255 0.10129c1.2263 0.2375-0.3203 1.6211 0 0zm57.944 0c1.223 0.41507-0.30305 1.1101 0 0zm-3.374 0.0083c0.71877 0.47343-1.0699 1.6218 0 0zm-63.53 0.02273c-1.1966 2.8767 1.9651 1.0818 0 0zm-9.2961 0.22066c-1.769 0.72854-0.31897 1.4052 0 0zm51.103 0.04393c-2.005 1.513 0.68973 1.2304 0 0zm-28.582 0.26453c3.6347-0.31522-1.644 1.4469 0 0zm-0.84078 1.0583c2.0843 0.45677-1.2973 0.87176 0 0zm38.38 0.28112c-0.8256 2.6661-2.0337 1.2123 0 0zm2.4164 0.45992c1.0485 1.0963-1.7168 0.84843 0 0zm11.077 0.0217c1.0969 0.74063-0.37032 3.6506 0 0zm-66.94 0.04754c0.49622 1.5132-2.0785 0.63923 0 0zm64.886 0.27337c1.8894 1.524-0.68411 1.0852 0 0zm-43.307 0.23926c-1.4059 0.75846 0.73191 0.80127 0 0zm23.119 0c-3.029-0.77813-0.58359 1.5725 0 0zm-46.286 0.01654c0.46428 1.0136-2.0252 0.38433 0 0zm56.076 0.51263c2.0843 0.45677-1.2973 0.87176 0 0zm-60.574 0.23357c-1.3218 0.67702 0.37447 1.498 0 0zm6.4296 0.49351c0.71323 1.1594 2.6768 1.496 0.35428 1.3908 1.4681 1.5877-1.8449 0.30235-0.35428-1.3908zm51.02 0.01394c1.0062 1.0194-2.2222 1.6281 0 0zm-52.98 0.05271c1.4622 1.0999-0.87689 1.183 0 0zm18.181 0c-1.117 1.0914 0.61715 1.1315 0 0zm-4.1295 0.52917c1.2147-0.0071-0.4351 2.4183 0 0zm15.875 0.15865c1.2027 0.62365 0.01547 1.533 0 0zm-34.908 0.10594c1.0136-0.46428 0.38433 2.0252 0 0zm3.1585 0c1.2252-0.11746-0.43123 1.607 0 0.12844zm26.458 0.46457c0.48725 1.3076-1.8374 0.90573 0 0zm21.969 0.19689c1.5188 1.3479-1.4464 2.1876 0 0zm21.994 0c0.55266 1.1245-0.28694 2.014 0 0zm-47.85 0.06769c2.7749 2.5237-1.246 1.7581 0 0zm-19.987 0.0646c-1.065 1.2948 1.6862 1.0228-0.09207 1.5558 0.1074 1.2822 2.9105-0.20424 0.62795 1.8445 0.88878 1.0673-2.8926-0.34587-1.4835 1.4641-2.0142-0.10128-0.24874-2.1838-0.31328-1.9628 0.7109-0.86295-1.6433-2.5531 1.2609-2.9016zm50.068 0c2.0539-0.31246-0.18369 1.5015 0 0zm-24.952 0.0041c2.4555 1.0876-1.1958-0.06944 0 0zm-29.816 0.22947c-0.09094 3.1287-1.3162 0.50088 0 0zm30.692 0.03101c3.3879 0.50725-0.72837 2.712 0 0.07188zm20.638 0.01654c1.8923 0.24721-0.49818 1.6008 0 0zm-50.543 0.38034c0.28228 1.7017-1.0417 1.1795 0 0zm28.84 0c0.45336 1.3525-1.1151 1.9229 0 0zm-14.28 0.13228c1.366-0.52806-0.30159 1.3607 0 0zm-8.3122 0.11989c1.4927 1.8536-0.66765 1.3262-0.83199 0.20464zm11.004 0.08527c1.7995 1.5588-2.0049 1.0184 0 0zm-4.8653 0.2527c2.6985 0.69258 0.55148 1.0733-0.46819 1.0635 0.01233-0.42316 0.26414-0.73195 0.46819-1.0635zm10.376 0.86506c2.0191-0.70064-0.5523 1.9565 0 0zm50.271 0c2.091-0.04039 1.5428 1.7544 2.8598 1.7849-0.80328 1.9929-2.2554-2.9183-2.854-1.1428-2e-3 -0.21404-4e-3 -0.42808-6e-3 -0.64212zm-5.9459 0.08733c1.4431 0.56625-0.49667 2.4471 0 0zm-32.427 0.0801c1.159 1.9511-1.6183 0.77142 0 0zm43.442 0.22944c-0.3084 1.5338 0.57905 0.97746 0 0zm-52.959 0.13229c2.1783-0.08385-2.3231 3.0738 0 0.51626v-0.28394zm-10.856 0.13229c1.2687 1.5357 0.72751 1.9887 0 0zm23.688 0c-1.4316 2.9514 3.5842 1.1124 0.76998 1.3875-0.51638-0.48829 0.21715-1.4602-0.76998-1.3875zm-20.902 0.15038c1.4554 1.1625 1.4441 2.0032-0.1323 1.1348 0.04825-1.0376-1.9681 0.37046 0.1323-1.1348zm-16.801 0.21549c0.33654 2.3159-1.1569 0.21465 0 0zm68.06 0.03101c1.1265-0.02758-0.8732 1.8661 0 0zm-55.163 0.24391c0.93544 1.6158-1.2842 1.4305 0 0zm58.805 0.4439c0.78891 1.6777-0.0954 2.0287-0.3718 0.3718 0.12393-0.12393 0.24787-0.24787 0.3718-0.3718zm-63.5 0.07493c0.27597 1.6218-1.2393 0.26198 0 0zm28.31 0.04754c-0.46428 1.0136 2.0252 0.38433 0 0zm14.575 0.24805c0.4372 2.0192-2.0461-0.34438-0.80188 0.86367 0.07825 0.13527 0.49482-1.1447 0.80188-0.86367zm-28.73 0.06718c2.7491-0.12187 0.56962 1.9336 0 0zm45.559 0.11576c1.3692 1.2603-9e-3 1.8526 0 0zm-40.692 0.08785c1.1955 0.22857 0.75913 1.0579 0 0zm-26.166 0.27492c1.5998 0.25537 0.20477 1.648 0 0zm66.188 0.38034c0.62251 0.92159-0.32076 1.524 0 0zm-32.728 0.10232c1.625 0.84432-0.06248 1.504-1.0387 0.76178 0.13866-0.46157 0.64526-0.61778 1.0387-0.76178zm-12.293 0.011375c0.52074 1.9264-2.3377 0.70122 0 0zm51.981 0.03204c1.168 0.6971-1.2996 0.77734 0 0zm-32.36 0.11886c0.55266 1.1245-0.28694 2.014 0 0zm28.061 0.13229c2.3905-0.08894-1.0749 2.0807 0 0zm2.6055 0c1.0136-0.46428 0.38432 2.0252 0 0zm-53.956 0.47646c1.0062 1.0194-2.2222 1.6281 0 0zm29.334 0.03721c1.2802 0.72529 1.977 2.0346 2.6321 2.8547-1.4193 2.1033 1.8703 0.47635 2.3782 1.864 1.2129 2.0574 2.9499 0.72319 4.2493-0.20528 0.89466-1.9242-1.9201 2.5377 0.40463 2.3812 0.3771-1.9969 2.3-0.32429 2.8695-2.286 1.1028-0.8129 2.3332 1.5328 1.6672-0.62442 1.2043 0.54346 3.394 0.81733 0.74318 1.5522-0.64161 1.3827-2.6654-0.07276 0.17074 1.7949-1.2281 1.6742-0.50467-0.93566-2.2511-1.4509-1.2957-0.7497-2.6829 2.7762-0.96787 1.5604 2.0046-0.58138-0.16187 2.9732-0.0018 2.4928-1.1085-0.35458 1.5428 2.1441-0.33175 2.6818 1.3968 1.6002 0.32678 2.3752-0.44986 3.0104 0.33948-2.0411-0.91744-1.3108-2.0639-0.95313-1.3085 1.5425-0.9855-2.3406-1.3757-0.12174-1.3774 0.5302-0.94473-0.65439-2.074 0.80412 0.48419 0.731-1.607 1.6048-2.424 0.13846-0.3788-1.1404-3.2505 1.5686-2.9104-0.83768-2.832-0.84811-1.1769 1.0165-0.24805 1.85-0.62302 1.5068-2.8819 1.2329-2.8117 2.7626 1.3922-0.66222 1.7052-1.4523 0.9431 0.32608-2.244 0.07156-0.09771 1.4828 0.9214 1.3269-2.1036 1.4623-0.0267 0.50791 0.93069 1.8791-0.33058 1.6086-2.2645-1.8868-1.2397 0.69251 2.0227 1.055 1.5859-2.2779 3.9157-0.97384 1.4571-0.67568 1.5201-2.4965 2.7124-3.3205 1.8553-1.7329 1.1735-0.3608 0.68683 0.65065-1.9301-0.0051-0.45342 3.0042-2.9003 3.3822-1.3181 0.88198-0.50496 3.8377-2.8532 3.0372-3.1133-0.34737 0.60835-0.17711-0.34115-0.85334-0.43001-0.72697 0.04154-1.6459-1.0953-0.79375 0.31461-1.0929-1.9934 2.0702-3.1187 0.26458-1.528 0.26789 0.60538-3.0912 0.96118-2.589 0.48138-1.3356 0.48014-2.2441-0.97778-2.7024-1.5522-0.55182-0.26578-3.352 0.7394-1.8733 3.3851-0.53072-1.3093-3.3995 0.14-0.68289-1.047 0.60508-2.2934-2.6748-2.9795-0.33587 1.4646-1.5399 1.4745 2.5675-0.02536 2.6244-0.67967 0.48189 0.12518-2.217-0.14621-2.3712-0.64959-0.1452-0.56835 2.8174-2.6877 0.73846-1.1923 1.1776-0.43814 2.7716-1.8717 2.8923-0.28459 0.28852-0.97126 0.77311 0.23307 1.6536-2.204 0.96298-2.2354-3.9457-3.1016-1.1256-1.5032 0.21253-3.1192 0.93492-0.86714 1.3933-1.5743 1.8613-2.5651-3.1474-3.6336-1.2828-1.4783-0.45956-0.06167 1.7008-1.4305 0.68201-0.99458-1.3114 0.90944-1.2205 0.36422-2.2791-2.6002 0.14288-1.1707-1.887-0.60867-2.7918 1.5061-0.64322-0.60155-2.4002 1.2175-2.2689 0.56668-1.2139 1.8367-1.9189 1.4213-3.906-0.42399-1.6761-0.83666 2.0674-2.3714 0.69123 0.223-1.5695-0.9785-0.59414-1.5699-0.49609-0.31955 2.3405-0.23321 1.1993-0.86802 1.1581-1.1607 1.2679-1.9653-0.57698-1.9719 1.796-0.41327 1.3435-3.2374-0.46152-1.6662 1.4674-2.0419 0.99506-0.95173-2.7288-2.6391-3.4871-0.57149 1.2434-2.5871-0.19962-0.51418-0.51986-0.20011-1.4332 0.65474-1.5118 0.90382-1.2015 0.51179-0.09043 2.4291 1.778 3.748 0.52917 1.7003 1.6025-1.431-1.3412-0.49036-2.3151 0.55585-0.91743 1.4361-1.0222 1.8128 0.47749 0.88526 0.27438 0.76018-2.0878 2.1385-0.29453 1.6741-0.293 3.5463 0.7032 4.7025-0.02483-1.02-0.84375-0.14431-1.2683-0.77317-2.4789-1.3267-1.3936 2.1499 0.37528 0.09311-1.9787 0.62155 0.7154 2.5111 1.9919 3.4305 1.8383 0.17815 1.1433-0.47664 1.8191 0.30723 3.2467 2.0891-1.5393-0.27496 3.5731 1.3079 1.8386-0.40401-2.8875 1.5183-2.4961 2.9104-3.375-1.0407-0.54171-2.251-2.2605-0.16745-1.0201 1.377-0.70827 2.3284 0.62726 1.3327 0.49508 1.5159 1.5361 0.61028-2.0105 0.22016-1.3755-1.2921 0.27727 1.2483-1.7369 1.5715-1.9173 0.62441 0.04498 2.5314 0.21087 3.2045-0.85532 1.1525 0.45625 2.3591-0.94968 4.1961-0.7276 0.12137-1.2347-1.3931-0.80199-1.3617-2.1322zm29.633 0.06253c-2.3244 0.06204-0.0464 3.1916-4e-3 0.17467zm-8.5308 0.1912c1.3827 0.10932 2.3636 2.3404 2.5996 1.6401 0.74064 1.019-2.2189 0.56057-2.1412 1.5561-0.2542 1.2161-2.1661-2.7837-0.88935-3.1063l0.27795-0.05799zm-25.717 0.55552c0.60482 0.91411-1.1312 0.64473 0 0zm6.7732 0.13229c0.62256 0.92168-0.32068 1.5242 0 0zm-37.864 0.20308c0.48904 2.1671-3.5275 0.10403 0 0zm39.376 0.06253c2.0253 1.4775 1.4239 2.6779 0 0zm-49.998 0.04961c0.03205 1.6972 2.6615 1.7895 0.35723 0.23722l-0.23654-0.15707zm18.018 0.05064c1.223 0.41507-0.30306 1.1101 0 0zm-12.684 0.03101c1.4648 1.139-1.008 1.1005 0 0zm1.5431 0.26458c1.5525 1.2071-0.5263 1.2964 0 0zm33.895 0c0.0032 1.12-1.6607-0.4807 0 0zm-21.299 0.03566c0.89329 2.0335-2.4354 1.0442 0 0zm55.959 0.49351c-0.55807 2.7264 1.9468-0.81953 0 0zm-16.898 0.13229c1.5789 2.0518-0.92714 2.2995 0 0zm13.783 0.13797c1.3927 0.76594-1.7938 1.2303 0 0zm2.0567 0.2589c-0.26131 3.5591 1.3501 0.74419 0 0zm-5.779 0.13229c1.3343 0.51608-0.1131 2.0318 0 0zm2.7848 0.03256c-0.22955 2.4105 1.8244 1.5369 0.33969 3.4794 0.88989 1.7758-1.8953-1.5465 9e-3 -0.73384-0.45296-1.1236-1.0906-1.5731-0.3483-2.7456zm-61.035 0.25838c1.2025 0.62341 0.01589 1.5332 0 0zm15.081 0c1.9492 0.89092-1.9548 1.0253 0 0zm-17.743 0.10594c2.0843 0.45677-1.2973 0.87176 0 0zm18.809 0.08837c2.8064-0.29136-0.50468 1.9337 0.293 0.35243l-0.18152-0.21834zm11.642 0.07906c1.7238 1.3473-1.2577 0.62443 0 0zm25.428 0.08837c1.596 0.74128-1.9019 2.2203 0 0zm-62.509 0.0088c0.41507 1.223 1.1101-0.30306 0 0zm2.2097 0c-0.55672 3.2906 1.1182-0.09125 0.43203 0.02119l-0.2836-0.01391zm11.84 0c2.0349 0.52478 0.98181 1.8963 0 0zm58.43 0.39688c-1.5723 1.4847 1.7171 3.1468-0.68006 3.3734-0.20054 3.4896 3.4686-1.819 0.7038-2.929l-0.0151-0.28353zm-66.098 0.10128c0.27597 1.6218-1.2393 0.26198 0 0zm0.52917 0.26458c1.3218 0.67702-0.37447 1.498 0 0zm61.088 0.03101c1.0868-0.41622 0.45055 1.3763 0 0zm1.6185 0.26458c1.0663 0.7124-1.0301 0.62353 0 0zm-53.471 0.20154c1.4779 1.4962 0.50805 1.9606-0.30816 0.42266-0.29449-0.04403 0.40592-0.33024 0.30816-0.42266zm-1.8268 0.03204c0.43593 1.4574-1.3432 0.7295 0 0zm9.5379 0.19482c2.3478 1.535-1.0921 1.0858 0 0zm-5.8648 0.36535c1.0868-0.41622 0.45054 1.3763 0 0zm49.508 0.04706c-1.0096 0.8542-0.96553 3.7273-1.0542 2.3816-1.316-1.0876-1.3425-2.5953 1.0542-2.3816zm-55.298 0.18652c1.223 0.41507-0.30306 1.1101 0 0zm7.9375 0.04754c1.8946 0.3659-0.32659 1.1023 0 0zm-6.1025 0.15968c1.3717 2.622-1.5772 0.82475 0 0zm8.678 0.34675c1.7097 1.91-3.0301-0.40737-0.72347 0.34727-0.18323 0.69348 0.56782-0.35258 0.72347-0.34727zm-14.441 0.66766c-0.66102 1.5414-1.6937 0.56468-0.0925 0.13219zm3.9574 0.01551c1.5771 2.0938-1.2102 0.92067 0 0zm56.327 0.08578c-0.43593 1.4574 1.3432 0.7295 0 0zm-51.065 0.82476c1.9794-0.31205-0.4515 1.2088 0 0zm4.7537 0.16743c0.95207 0.33766-1.832 1.2787 0 0zm46.311 0.09715c-0.19862 1.3317 1.2119-0.49529 0 0zm-54.092 0.31057c1.4554 1.2755-0.29803 1.8692 0 0zm54.215 0.71779c-3.0039 1.549 2.699 1.0626 0.0964 0.28973-0.0321-0.09658-0.0643-0.19315-0.0964-0.28973zm-53.304 0.18862c1.2025 0.62341 0.01589 1.5332 0 0zm52.211 1.4521c-0.42025 1.2941 1.1186 0.73394 0 0zm-20.06 0.33641c-1.601 0.5069 0.31499 2.1434 0 0zm-45.116 0.96325c0.0573 2.4766 1.7004 0.46431 0 0zm-4.0127 0.05271c-0.56798 1.847 2.1842 2.6572 1.896 4.4452 0.99242-0.12163 1.9599 1.7752 1.4552-0.16895-1.3247-1.9117 1.1763-0.33577 0.01444-1.831 0.08353-2.0283-0.4347-0.15723-1.9482-1.814l-0.68004-0.37494-0.73742-0.25632zm72.54 0.21188c-1.0663 0.71239 1.0301 0.62353 0 0zm-46.598 0.26458c1.4574-0.43593 0.7295 1.3432 0 0zm38.738 0.03669c-2.1262 2.7229-3.3001 0.17081 0 0zm-2.7239 0.92036c0.59089 1.6851-2.1555 1.979 0 0zm-16.669 0.1509c-0.33518 1.0621 2.4855 0.2666 0 0zm-37.439 0.7152c1.4335 0.60087 1.6125 1.3852 0 0zm56.256 0.0677c2.6714 0.58903 0.74438 1.7508-0.0129 1.9674-1.0145-0.05487-0.30895-1.544 0.0129-1.9674zm-57.841 0.04806c0.98443 1.2168-0.34516 0.68392 0 0zm3.6117 0.04548c0.62251 0.92159-0.32076 1.524 0 0zm-4.147 0.39687c2.0852 1.0907-1.4097 1.2363 0 0zm51.891 0.26458c0.63549 1.2336-1.0622 0.98752 0 0zm-38.561 0.03979c0.7538 2.2518-4.2235-0.06482 0 0zm-10.135 0.22479c1.553 1.4497-0.26425 1.4676 0 0zm17.105 0.26768c1.5534 0.9405-1.1256 1.3145 0 0zm23.532 0.21342c0.43942 0.45586-2.3933 1.6744-0.54879 0.17415 0.18293-0.05805 0.36586-0.1161 0.54879-0.17415zm-26.716 0.2868c2.4291 1.5551-1.3205 1.3388 0 0zm31.143 0.55501c1.0868-0.41622 0.45054 1.3763 0 0zm1.5017 0c0.60482 0.91411-1.1312 0.64473 0 0zm-7.8207 0.49816c1.223 0.41507-0.30306 1.1101 0 0zm-37.306 0.03101c0.55535 2.0278-1.8235-0.74814 0 0zm10.848 0.23357c1.223 0.41507-0.30306 1.1101 0 0zm7.9091 0.82476c-0.69826 0.99662 1.4319 0.91488 0 0zm21.621 0.0863c0.2488 1.6492-1.4387 0.19112 0 0zm-44.907 0.17828c0.41507 1.223 1.1101-0.30306 0 0zm52.198 0c1.2648 1.3547-1.4481 0.91167 0 0zm-50.346 0.26458c0.41507 1.223 1.1101-0.30306 0 0zm51.333 0.0062c1.1955 0.22857 0.75912 1.0579 0 0zm-46.01 0.25838c-1.0554 1.5229-0.77664 1.5056-1.7064 1.3239-0.76364-0.6304 1.0124-1.4737 1.7064-1.3239zm36.645 0.25632c0.73544 2.0566-1.481 1.3369 0 0zm6.7469 0.0083c1.7768 0.98523-1.9467 2.0715 0 0.52917v-0.28399zm-26.225 0.26458c-2.8508-0.28247 1.6143 1.7868 0.61288 0.36432-0.35775 0.47876-0.41219-0.19594-0.61288-0.36432zm23.601 0.52917c-0.1198 0.51834-1.6128 3.1825-1.08 0.32143 0.35327-0.12876 0.69408-0.29741 1.08-0.32143zm-12.392 0.26458c1.5885-0.35526-0.39494 2.7078-0.4583 0.55211 0.15294-0.18389 0.30553-0.36807 0.4583-0.55211zm23.366 0.26458c0.60482 0.91411-1.1312 0.64473 0 0zm-10.467 0.26458c1.366-0.52806-0.30159 1.3608 0 0zm2.9156 0c1.8234-0.02649 1.5594 1.9291 0.06377 0.0745zm-41.146 0.08682c0.98443 1.2168-0.34516 0.68392 0 0zm37.225 0.32763c1.8576 1.2827 0.27187 2.227 0 0zm12.111 0.08733c-0.22758 1.1961-1.0585 0.75853 0 0zm-32.617 0.15968c2.1491-0.08499 0.06797 2.5199-0.09095 0.59531 0.03032-0.19844 0.06063-0.39688 0.09095-0.59531zm9.9022 0.07751c0.93165 0.96136-1.6344 0.02536 0 0zm16.612 0.0093c0.72032 0.50203 0.83706 2.3221 0.0039 1.106-1.3925 0.15115-1.6204 2.3882-3.4011 2.3263-1.3887-1.5779-1.5423-0.0049-1.0775 1.3188-1.0033 0.30166-0.45764-1.5403-2.7886-0.57827-2.825-0.33019-0.57849-0.75706 1.1566-1.1358 2.4535-0.1533 0.84408-1.2905 2.3492-1.8996 1.1987-1.4813 2.7162 0.22752 3.7574-1.1374zm-46.839 0.04548c0.41507 1.223 1.1101-0.30306 0 0zm26.738 0c2.0843 0.45677-1.2973 0.87176 0 0zm5.0519 0.52917c-2.3139 2.3599 1.811 2.3975 0.2553 0zm-14.826 0.01654c2.6172 0.81195-2.4232 1.2155 0 0zm-10.054 0.48162c1.223 0.41507-0.30306 1.1101 0 0zm20.952 0.03101c1.5172-0.15898 0.17243 2.2158 0 0zm11.063 0c1.0663 0.7124-1.0301 0.62353 0 0zm-20.1 0.13229c1.8511 2.3359-2.3852 1.1847-0.73587 1.0831 1.1108 0.58513 0.61815-0.45136 0.73587-1.0831zm22.516 0.07958c0.81995 0.43627-1.6651 1.6291 0 0zm-5.5914 0.27337c-2.1428 0.73041 0.49438 1.5926 0 0zm-12.018 0.12299c1.435 0.72525-0.3666 1.6795 0 0zm-7.5608 0.18552c2.38-0.33911 0.28045 1.379 0 0zm28.575 0c-1.0663 0.7124 1.0301 0.62353 0 0zm-8.2021 0.23358c-1.044 0.51036-0.35498 1.5984 0 0zm3.7042 0.01241c-1.2704 1.7067-1.9798 0.82794 0 0zm-19.629 0.0186c-0.5888 3.1587-1.929-0.53011 0 0zm25.221 0.23249c1.6379 0.59817-1.8268 1.9884 0 0zm-41.64 0.29662c2.2133 0.44422 1.9288 2.7134 3.3619 4.0133 0.14718-0.03197-1.6782-0.68523-0.78497 0.48408-2.3438-0.25896 0.70105 1.8963 0.0018 0.35349 0.79455 1.0985 0.20266 1.5284 1.3663 2.7427-2.1409 0.30976-5.6564-2.1574-7.9318-3.7401-3.3374-3.0427-0.54449-0.35698 0.23874-0.90485 1.0007-0.98964 1.2021 2.3186 2.7218 0.3315 1.2693 0.02549 2.6092 0.0738 2.1301-1.9954 0.52452-1.1428-0.90255 0.82484-1.1038-1.2848zm23.083 0.22789c2.3497-0.17754 0.46632 1.842 0 0zm-15.338 0.16898c2.4567 0.62145-1.0102 2.552 0 0zm12.313 0.15451c1.8962 1.5134-2.442 2.4468-2.268 0.91777-1.7571-1.7084 1.865 1.3841 2.268-0.91777zm-7.5747 0.24236c2.0843 0.45677-1.2973 0.87176 0 0zm9.1591 0.52917c0.60482 0.91411-1.1312 0.64473 0 0zm20.04 0.01035c-0.61554 0.98377-1.7336 1.0369 0 0zm-14.598 0.19947c0.93165 0.96136-1.6344 0.02536 0 0zm10.026 0.12764c-1.318 1.6853-2.2024 0.0077 0 0zm-23.849 0.41186c2.797 0.62198-2.7805 1.2018 0 0zm28.226 0.30902c0.60482 0.91411-1.1312 0.64473 0 0zm-4.9103 0.26458c1.366-0.52806-0.30159 1.3607 0 0zm-4.7625 0.04961c-0.6516 1.5361-2.5659 0.50329 0 0zm-17.462 0.21497c1.0663 0.7124-1.0301 0.62353 0 0zm14.552 0c1.7135 0.17498-0.33498 2.5802 0 0zm10.473 0c-0.26452 1.5773-1.9701 2.1725-0.46617 2.4151-0.95708-0.31618-2.1939 3.8598-2.3233 1.9438-0.55229-1.0052 2.0027-1.9051 0.63608-2.3759-2.3599 0.81424 1.4328-0.57111 1.5834-1.6047zm-4.3878 0.26458c2.5314 0.73543-0.45592 1.6966 0 0zm-16.918 0.26458c1.0163 0.87407-1.5783 0.57051 0 0zm-16.932 0.02326c-0.86719 1.0897 1.9409 0.59543 0 0zm26.706 0.1974c0.24752 0.70054-1.888 0.99909 0 0zm-14.933 0.04393c0.60482 0.91411-1.1312 0.64473 0 0zm-9.1436 0.01654c1.8946 0.3659-0.32659 1.1023 0 0zm28.627 0.8139c2.214 0.22108-1.4105 1.445 0 0zm3.421 0.17312c0.93165 0.96136-1.6344 0.0254 0 0zm-6.6477 0.0548c2.403-0.3548 1.0033 0.87917 0 0zm-16.308 0.12815c1.7042 0.42773-0.21042 0.86899 0 0zm26.362 0.47439c3.0858-0.0579-1.9648 2.4041 0 0.0763zm-36.962 0.3235c-2.004-0.32268 0.91549 2.5733 0.0052 0.034zm30.348 0.10128c1.2261 0.23727-0.3204 1.621 0 0zm2.0841 0.031c1.0561 1.8446-3.5081 1.0437 0 0zm-12.64 0.27078c-0.34997 0.93038-1.6219 0.38529 0 0zm-11.427 1.5172c1.4422 0.61016-0.6043 1.5007 0.83584 2.4464 2.7939 0.28401-1.948-1.5638 1.039-1.0883 2.7052-1.8687-0.31877-0.0109 0.84953 1.4335 0.70118-0.67198 0.23756 0.36919 1.7565 0.39633 1.5506 0.67727 1.6978-2.2532 2.9202-1.187 1.9706 0.17923-0.87975 0.90382-1.3885 0.91489 0.37038 1.3026 4.3399-0.9726 4.4472-0.8353 1.1616 1.862 1.9707 1.0667 1.59-0.3624 1.5023 1.0588 2.4274 1.275 4.405 0.87137 1.6977 0.44506 3.1016-1.773 1.9757-0.15308 0.83112-1.0182 3.4647-0.65601 0.8858 0.12301-8.2342 2.1873-17.244 1.5894-25.114-1.6814 0.76047-1.0866 1.6306 1.1012 3.326 0.38354 2.6104 1.7145-0.39881-2.3356 1.7896-0.17342-1.2577 0.88122 0.96722-0.033 0.68254-1.0881zm18.047 9e-3c0.9291 0.95586-1.6326 0.0311 0 0zm7.1034 0.3824c-1.73 0.87179-2.5442 2.6753-3.6556 1.4604 0.4653-1.3188 2.4714-1.2551 3.6556-1.4604zm-9.4842 0.72709c-0.65703 1.323-2.3214 1.1051-0.41963 0.19127l0.25836-0.11776zm-6.119 1.8562c-0.03401 1.4225 2.149-0.57353 0 0z" fill="#042ece"/>
    <path d="m75.271 20.795c-13.732 0.53452-30.464 4.7527-38.758 16.593-3.0603 6.1006-5.8102 12.349-8.704 18.529-0.07426 2.997 1.1298 6.1765-0.33034 8.9756-1.768 5.8325-6.1012 11.719-0.46534 17.764 15.971 40.162 83.06 39.448 96.943-1.7173 0.92199-5.4796 1.8467-10.959 2.7747-16.437-1.1562-25.902-26.842-44.225-51.46-43.707zm4.4225 2.8386c2.4587 1.2327 5.6874 1.7857 9.058 2.5851 4.8114 1.2701 9.0016 3.9598 13.228 6.4376 1.5285 1.5816 3.4712 3.0853 5.2183 4.8178 1.0143 2.1072 3.042 3.4389 4.049 5.733 1.1552 3.7027 1.7009-2.0311 2.981 0.48676 1.072 1.5287-0.65178 3.8854 1.25 5.0054-0.24376 2.2631 1.7762 1.3678 2.7127 2.7046 1.1852 0.32578 2.9381 1.3417 2.6896 3.02 0.52101 2.2697-2.6057 3.2675-2.6267 5.5366 0.32455 1.3554 1.5186 2.7908 1.7477 4.4153-0.49045 3.1202-0.61098 6.3707-0.87448 9.4699-1.1093 1.9776 0.43634 4.6623-1.5626 6.4844-1.8559 1.6068-2.9602 3.6818-3.7629 5.9867 0.16713 1.8344 0.31888 3.4837-2.0435 3.5411-1.1486 2.1236-2.4979 3.9978-4.5992 5.4207-1.9403 1.0568-2.8061 2.6278-4.4169 3.5545-1.4957 0.76906-1.2325 2.7587-3.0726 2.2935-2.726 1.0638-5.1752 3.0496-8.1038 3.7965-0.13462 2.2397-2.3525 0.54268-3.5251 1.0646-7.6569 2.8111-16.269 2.3027-23.935-0.19309-1.8942-1.262-3.635-1.0478-5.0953-2.3123-3.2704-0.72532-6.0894-2.5303-8.1835-5.1175-2.7401-1.6192-4.5732-4.7611-7.5411-5.8157-2.5134-0.63312-4.074-2.9804-5.4459-4.9995-1.7528-1.5368-3.402-3.1957-5.6066-4.0144-2.3505-1.39-3.1113-1.5943-5.1485-2.0133-0.72555-2.3747 4.4486-2.1821 2.604-4.178-0.01181-1.821 2.4757-2.5937 3.5812-3.7264 0.90774-1.8073 1.628-4.8032 1.101-7.0169 0.29794-0.92403 1.6144-2.7853 0.41183-4.1703-0.21842-1.4009 0.99074-3.0101 0.53136-4.6957 0.04505-1.6181 1.1758-2.9639 0.75558-4.692 1.7064-2.1119 2.7608-5.1583 4.1016-7.3619 1.3374-1.1999 1.8423-3.9307 3.4927-5.6714 0.98702-1.7828 2.6248-3.3314 4.5993-3.957 1.1629-1.3351 2.7647-3.1073 4.3538-3.6605 1.7823-2.9168 5.8134-3.0024 8.1391-5.3875 3.282 0.12976 7.0376-1.9882 10.67-2.0115 2.198-1.575 2.7219 0.16909 5.1324-0.87858 0.52538-0.62163 4.268 0.77842 3.136-0.48071zm1.6356 3.8365c-0.17026 2.7068-3.1494 2.1737-3.8313 2.3435 0.42726 0.50227 3.2478 2.6238 0.73846 2.9435-0.32848 0.69474 2.188 0.97186-0.05943 2.7218 2.2249 1.1863 0.43205 1.7074-0.4512 1.2502-2.1566 1.1826-0.83034-0.67087-0.36943-1.383-1.0871 0.64927-3.0977-1.1889-1.5366-0.97053 2.3785 1.0437 0.77634-2.492 0.63485-1.7544-0.75427-2.8543-2.0959 1.4254-3.6753 1.1917-0.52255-0.7048-1.7313 0.42855-0.76314 1.0627 1.849-0.88983 1.3463-1.0417 0.82928 0.6643-1.5322 0.2728-2.8542 1.3457-4.0333-0.52917-2.3788-0.10538-0.91438-1.6815 0.3597-2.2053 0.18787-2.1857 2.3371 0.91684 2.3947-0.44051 2.0506 0.75377-0.29248 0.06043 0.74983-1.0418-0.87011-0.64451-3.1008 0.97513-3.623 0.87126-0.97479-0.25124-1.4237-0.12964-1.1364-1.1066-1.8177-0.1605 2.6475-1.4048 0.19536-1.5078-2.1737-0.07069-2.5867 2.6829-4.4318 2.2577-0.43561 0.41531 1.2779 0.24803 0.4811 1.0563 1.6828-1.8211 1.7558 2.3592 0.87333 1.7859-0.2512 0.95884-3.3987 2.3889-3.0548 2.445 0.27177-1.7575 2.571-2.4879 0.04431-2.0611-1.2252-1.0665-1.3681 2.4206 0.4329 0.47596-1.2416 1.2478-3.6897-0.21466-3.9222 2.8779-1.8468 1.5085-0.89563-0.60445-2.0647-0.54248-1.7728 1.089 0.93607 2.4249-1.918 1.6866-2.9462 1.2202 0.30787-0.53956-0.33306-0.75162-1.6509 0.40555-1.3043 1.4916-1.9112 2.4156-0.4437 0.55981 1.6646 0.29312 1.4699-0.79116 2.2481 0.30499-0.35866 2.6455 1.7139 1.9844 1.2956-3.8315 0.76329 2.6864-0.83626 0.75927-1.6804-0.86066-1.0922-1.7626-2.1165-0.53956 2.3886 0.40058-0.57929 0.16611-1.0997 1.5001 1.1761-2.0753-1.0707-1.7086-1.2525-0.18736-0.94575-0.57793-1.6877 0.90149-0.72056 0.51963 0.63489-0.01014 2.2465 1.504 3.7231 0.98883 1.3065 1.7433 0.52138 1.6021 1.6461 2.1854-0.67174 0.95652-2.4044 2.1163-0.68005 2.9334 1.6034 1.4382 1.3725 1.3005 1.8119-0.22839 0.2631 0.99122 0.7786-0.42091 0.54895 1.1706 1.4484 1.1974 2.9561-0.40394 1.627-1.3721 2.1104-0.5066 0.08457-3.1147-0.29872-1.9279-0.3516-1.4219-0.75305-1.807-1.4146-3.9721 2.2501-2.6318-0.14557 1.0616 2.0649 2.286 0.86077 2.1695 2.4998-0.93963 2.8247 1.3806-0.50673 1.9967 2.1238 1.255 2.2907 2.8291 2.1384-0.41249 0.16196 2.7102 1.3373 3.6246 1.3211 1.445 1.8416 2.6297 3.2307 2.5857 1.3457 1.603 1.4608-2.1139 2.5117-2.8227 0.43717-1.0773 3.9814-1.601 2.6596 0.1537-1.8749-0.47148-3.1844 2.4127-0.66503 1.5428 1.9069-0.88673 2.883-1.5428 3.7446-2.8328 1.7204-2.3892-0.26776-0.77406-0.85082-0.19193 0.4534-0.58718-3.0192-0.1753-2.3847-0.86373 1.5321 0.32416-0.43891-1.3767 0.27626-1.9247-1.9162-1.8144 3.3265 1.7046 1.186-1.1188-2.2443-1.4342 0.66342-2.9641 0.29689-1.7827 0.4296-2.2037 2.1367-0.03386 3.0373 0.81272-0.58246 2.4373 0.53467 0.77258 1.3007 0.07883-1.7459-0.26781 0.4174-2.4028 1.7906-0.11268 1.4149 0.0091 1.007 1.5477 1.7152 2.2306 2.5934-0.6319 0.05906 2.875 1.7812 1.443-1.733 1.4512 1.152 0.67252 1.0631 1.8519 1.2836-0.0078 1.5922-1.2829 3.2923-0.63924 2.0854 0.90814-1.6872 2.3712 1.0023 1.8395 0.54087 1.5068 0.49733-0.38208 0.90607-1.4633 2.3477 0.47282-1.8752 1.5099 1.943 1.6392 4.2169 0.65504-2.0598-1.587 1.0684-1.5276 1.4204 1.0246 2.4569 2.0746 3.701 0.79936 1.8259-0.99675 1.4334 0.83011 2.8822-0.60495 2.1636-0.21208 2.1385-2.9379 1.3132-4.4277-1.8293-0.60582 0.99339 6.0339-1.0677 2.0492-1.4956 0.1658-1.7465-0.70628-3.4865-0.73762 0.2774 2.2402-4.2117 0.35498-1.9162-0.40412 1.4859-0.77003 0.48526-0.66208-0.15886-1.9673 0.06354-0.56517-0.24361-3.3805 0.48648-2.002 1.2317 3.2494-0.40626-4.2812 0.61754-1.9653 0.47777-0.48587 0.18398-1.1896 1.9741-1.1726 0.95042-0.90492 2.4908-2.3037 3.1458-1.5512 0.96259-0.16893-1.7828-3.366-1.9715-1.2255-1.5388 0.64666-3.712 0.25557-4.0425-1.1439-1.399-0.99315-2.2877-0.71352-1.3674-1.5891-0.16561-1.9655-1.9972 0.6305-3.052-1.5038 1.651-2.2326-0.32333-0.94116-1.8286-1.3311 0.13824 1.3362-0.31146 0.63968-1.9649 0.96313 0.16184-1.5286-2.2722-1.7519-0.64955 0.03362-1.2782 0.46435-2.8 0.9204-0.26906 1.4613 0.86547 0.15022 0.94653 0.22978 1.7103 0.82949 2.5964 2.1645 0.8864 1.7051-1.0097 1.2025 1.6047-1.826-2.9388-0.91465 0.06925 0.79375-3.0614-0.16058-0.91368-2.8036-3.924-2.3411 0.31973-1.4141-4.3794-1.2371-1.7892-2.4444-0.15023-1.9307 1.3673-1.2002-1.1624-2.0275 0.37822-1.8341 2.3471-0.49735 3.8556-0.08857 1.4685-0.22369 1.7786-2.7063 0.16776-3.1675-2.4509-0.20046-1.2815-0.85338-2.4269-2.234zm-9.9389 1.4123c-4.4084 0.33326 1.3509 3.0136 0.34812 1.0524-1.2202 0.20855-2.0317 0.14635-0.34812-1.0524zm10.253 0.17518c0.73262 0.94092 2.0393 1.138 2.4634 1.6736-1.0859 1.8881-3.1154 0.27153-4.2979 1.0999-1.0426-1.5115 1.5608-0.90677 1.8345-2.7735zm-7.181 0.80925c-0.81453 1.6333 3.1968 0.86389 0.21828 0.35143-0.07265-0.11721-0.14552-0.23429-0.21828-0.35143zm-1.0253 0.38137c-0.49887 3.2276 1.335 0.44416 0 0zm-12.451 0.20516c-2.4072 1.5872 0.8585 2.0159-0.04458 0.37236 1.0628 0.43139 0.56151 0.31292 0.04458-0.37236zm8.7168 0.32401c-1.3682 1.4713 2.3689-0.48496 0 0zm17.182 0.26458c-2.085 0.45689 1.2978 0.87147 0 0zm-11.386 1.3028c0.58232 1.8613-1.3649 1.8225 0 0zm6.8724 0.493c-0.57517 2.0724 3.1411-0.21799 0 0zm-11.313 0.0036c-3.6435 1.524 0.81052 1.8288 0.05271 0.58188-0.93722 0.10461-0.06745-0.25515-0.05271-0.58188zm11.6 1.1043c-1.3098 2.6121 0.09715 0.40621 1.0748 1.5903 3.7271-0.87942-0.60728-1.0441-1.0748-1.5903zm-17.018 0.83819c2.6806 0.0973 0.28084 3.4085 1.766 4.1792-3.0019 0.94055-2.0111 0.19458-1.7918-1.8357-1.2574-0.09038 0.36762-1.0105-1.8748-0.68988-1.2965-1.0812 1.6791-0.24941 1.9007-1.6536zm2.7249 0.75603c2.0871 0.79784 0.1765 1.4532 0 0zm19.532 0.26458c1.4574-0.43593 0.7295 1.3432 0 0zm2.4438 0c-0.56232 1.1636-2.8329-0.42597 0 0zm-27.019 0.79375c1.2252-0.11746-0.43123 1.607 0 0.12844zm5.6885 0c1.982 0.49333-2.0441 0.60922 0 0zm21.828 0.52917c1.0663 0.7124-1.0301 0.62353 0 0zm4.778 0c-2.085 0.45689 1.2978 0.87147 0 0zm-14.02 0.28422c2.6401 1.0134 0.294 1.0603-0.71223 1.8351 0.75441 2.0558-2.2027-1.017-0.44894-1.061 0.50099-0.0432 0.83212-0.44628 1.1612-0.77412zm22.18 0.31471c0.28532 3.2066 4.0201 0.09366 0 0zm-50.08 0.19482c-2.1874 1.0479 1.5617 0.09361 0 0zm46.815 0c-1.4059 0.75846 0.73192 0.80127 0 0zm2.498 0.1726c0.82223 2.5262 1.8105 1.2557 0 0zm-38.894 0.32556c1.223 0.41507-0.30306 1.1101 0 0zm-3.3827 0.03101c2.8335-0.55522-0.67035 2.0585-0.05063 0.13182zm36.985 0.26458c-2.5623-0.63258-0.60381 1.2548 0 0zm-28.31 0.2646c2.0539-0.31246-0.18369 1.5015 0 0zm12.152 0.26458c1.8823-0.46486 1.806 1.5591 0.56638 1.7157-1.1573 0.94763-3.0477 0.72017-3.1936-0.62994 0.93618 0.74315 4.0673 0.51793 2.6272-1.0857zm-20.09 0.23358c-0.11431 1.3324-1.2435 0.895 0 0zm42.945 0.58808c-1.605 0.27704-1.0075 2.2315-1.0968 3.3193 1.306 0.31131 0.67071-2.9161 1.4936-2.5535 1.6321 0.21377-0.1533-0.4163-0.39682-0.76585zm-15.971 0.40928c1.1248 1.3588 3.1668 2.0019 0.17105 1.1855-0.7431 0.73782-0.95386-0.99476-0.17105-1.1855zm5.8343 0.35657c1.0663 0.7124-1.0301 0.62353 0 0zm-24.871 0.26458c2.6192 0.79882 2.3005 2.569 2.5604 3.8259-0.35205 0.11328-1.7328 0.60105-1.5021 1.4657-1.3687-0.01032-2.1429-0.09203-3.5638-0.93426-1.2927-1.0366 0.47791-2.0148 1.6647-2.9647 0.97771-0.253 0.87064-0.5251 0.84078-1.3927zm16.669 0.23358c1.3218 0.67702-0.37447 1.498 0 0zm16.933 0.03721c-1.1294-0.13465-3.0478 1.5056-0.98244 1.0464 2.0577 2.1356-0.46756-0.4304 0.98244-1.0464zm-11.906 0.01035c2.063 0.64737-0.49233 1.4982 0 0zm-39.701 0.05633c-2.3825 1.0751-1.2411-0.09227-2.3673 1.7792 1.4182 0.29125 0.98928-1.6304 2.3673-1.7792zm-2.4841 0.19172c-1.4059 0.75846 0.73191 0.80127 0 0zm55.656 0c1.3258 2.1389-1.8359 3.6405 0.68523 3.4396-9e-3 -1.0388 0.96006-0.87462 2.42-1.1989 1.0892-0.23994 0.19317-3.4687-1.7138-1.6149-0.32833-0.27039-0.83306-0.73813-1.3914-0.62585zm-8.9447 0.26458c2.9667-0.23166-2.1752 2.9208-1.6691 1.3229 0.66962-0.27086 1.1326-0.86451 1.6691-1.3229zm-15.638 0.19999c-0.30373 1.6025-1.68 1.3412 0 0zm26.424 0.27544c2.7549 1.5191-0.87145 0.6013 0 0zm-16.635 0.31833c1.0663 0.7124-1.0301 0.62353 0 0zm11.11 0.1788c0.0227 1.5001 0.2914 0.65111-1.5358 0.46715-1.8621 1.0804 2.9436 2.4682 2.9378 2.0288-0.0563-0.73968-3e-3 -2.3888-1.402-2.496zm-47.919 0.92811c0.11269 1.6194-1.8028 0.95594 0 0zm20.428 0.27698c3.0333 0.55632-1.5428 2.3113-0.55294 2.5849 0.6276 1.8399-3.7558-0.29006-0.8715-0.48884 0.47466-0.69878 0.94957-1.3974 1.4244-2.096zm-19.191 0.20361c0.60482 0.91411-1.1312 0.64473 0 0zm-6.798 0.13229c-1.1227 0.72958-1.2363 4.4327-0.72885 2.0399 0.39292-0.73623 2.0379-1.337 0.72885-2.0399zm55.303 0.13229c0.51036 1.044 1.5984 0.35498 0 0zm-54.473 0.23358c-0.27589 1.6223 1.2393 0.26139 0 0zm59.29 0.11937c0.44661 1.0457 1.2937-0.35355 0 0zm-0.51315 0.4408c-1.107 0.91604 1.4222 2.3226-0.56843 2.1125 0.25051 2.4016 0.6156 1.585 1.1698 3.8202-0.24889 2.0262 1.3734 3.6544 3.057 4.386 0.83718-1.3283 0.26111-1.5073-1.0518-2.358 0.25873-0.37355 0.7571-1.9462 1.5341-2.1419-1.0534 0.0025-3.1818-2.2731-0.68304-2.008 1.9276-0.06338-2.1621-2.6969-2.4608-1.1651-1.071-1.095 1.4678-1.9899-0.99684-2.6458zm-8.1091 0.08423c-1.2173 0.45239 1.9434 1.4472 0 0zm-33.999 0.07442c1.3223 0.78029-0.47634 2.1524 0 0zm32.577 0.31522c-1.4373 0.25155-0.03982-0.19597 0.15968 0.1602zm-13.412 0.0553c0.75925 1.7522-2.8504 0.68037 0 0zm17.048 0c1.5547 1.5029-0.70463 3.1939 1.8831 2.8267-0.57016-0.78839 0.72895-1.8722-1.0986-2.298-0.063-0.5616-0.31781-0.56571-0.78444-0.5287zm-61.215 0.75551c0.94735 2.3036 5.4891 2.2316 2.6107 1.3906-0.6588 0.75563-1.8936-1.1474-2.6107-1.3906zm64.609 0.30696c-1.1134-0.12026 1.6846 0.94953 0 0zm-39.56 0.20102c0.96406 0.8187 3.2095 0.7622 0.88005 1.3823-0.37078-0.38858-2.4515-0.41646-0.88005-1.3823zm32.498 0.32401c-0.57767 2.213 1.4095-0.06012 0 0zm-24.477 0.31316c0.6175-0.25148-1.9196 3.4746-1.1886 1.5405 0.48603-1.1782-1.1521-1.2902 1.1886-1.5405zm-22.121 0.21599c0.41507 1.223 1.1101-0.30306 0 0zm18.319 0c1.8521-0.4255-0.42425 1.0275-0.16381 0.26458l0.14947-0.24141zm1.3079 0.26458c1.2912 0.29101 0.59526 1.6899 0 0zm39.157 0c1.0162 0.87407-1.5783 0.57051 0 0zm-61.419 0.0093c-0.09235 3.3231-1.9683-0.81734-3.4519 1.1222-0.12184 0.30617 1.3525-0.55791 1.5974 0.60971 0.96222 0.40975 3.0218-0.35228 3.8415-1.1816-0.59884-0.36484-1.3174-0.40646-1.987-0.55035zm34.416 0.19068c1.8478 0.99834-0.47852 1.279 0 0zm10.583 0.03359c1.3218 0.67702-0.37447 1.498 0 0zm-3.437 0.1633c-0.85592 1.4346 0.7885 2.2151-0.67799 2.7786 0.42354 1.2133-2.1391-0.12616-1.7058-0.79422 1.2074 0.27001 1.5799-1.3597 2.3838-1.9844zm-2.6737 0.0186c1.0463 1.1175-2.8355 1.6228 0 0zm21.4 0.11369c1.5432 2.3013-3.0048-0.7806 0 0zm-57.046 0.26303c-1.3667 1.237-0.29918 0.5881-1.448 2.5642 0.0308 1.135 2.9874-2.4804 1.448-2.5642zm29.585 0.0016c-0.19862 1.3317 1.2119-0.49529 0 0zm15.758 0c-1.4059 0.75846 0.73192 0.80127 0 0zm-42.161 0.26768c1.3636 0.29873-1.0977 1.7318 0 0zm11.426 0.26148c1.117 1.0914-0.61714 1.1315 0 0zm9.6449 0c-0.38506 0.78973 2.5904 1.9853 0 0zm27.028 0c-0.0397 2.7232 2.0594 1.1804 0 0zm-34.382 0.21342c2.5457 1.0334-2.176 1.4026 0 0zm31.472 0.05116c-1.7813-0.37838-1.2322 0.81895 0 0zm-57.282 0.23668c-0.87136 2.1269 1.6944-0.16821 0 0zm42.763 0.23719c0.9291 0.95586-1.6326 0.03106 0 0zm4.6984 1.1136c1.0868-0.41622 0.45054 1.3763 0 0zm-19.504 0.03359c2.4366 0.72422-1.0843 2.6048 0 0zm-8.9752 0.12868c-0.90778 0.42074-0.99676 3.2384-1.7978 1.9761 0.12995-2.6376-4.9239 0.14954-1.2304-0.87075 0.76905 1.2519-0.64356 3.5766 1.1117 3.8917-0.1669-0.32372 0.56061-3.1791 0.71291-1.4335-0.67132 1.7512 5.6316 1.6272 3.3425-0.15758-0.20657-1.7537-2.2212 1.8929-2.0516-0.94258-0.63597-2.6822 2.886-0.12276-0.08733-2.4634zm28.394 0.3669c0.60482 0.91411-1.1312 0.64473 0 0zm-7.3003 1.7549c-1.803 1.2105 0.9141 0.39358 0 0zm6.3221 1.4113c-1.5637 0.63389 1.1245 1.248 0 0zm24.643 0.0088c-0.44412 1.8839 1.308-0.18954 0 0zm-70.882 0.06201c-0.35128 1.441-1.66 2.7739-0.42375 3.051-2.671 1.5494-0.3187 5.5954 0.66198 2.9078-2.301 1.788 0.05484-3.574 1.4835-1.9018 0.17471 2.8846 2.7337-3.1537 0.5314-0.54711 0.96183-2.4258-1.2124 0.05169-1.7468-1.1934 0.44334 0.3464 1.4798-1.0224 0.29212-1.9524-0.26617-0.12125-0.53226-0.24267-0.79839-0.36399zm58.711 0.43615c-0.41622 1.0869 1.3763 0.45054 0 0zm-27.195 0.03101c-0.69501 1.1239 1.7983 1.2618 1.691 1.7446 1.5552-0.60396 0.53679-0.98429-0.72978-1.0066-0.01636-0.59205-0.45544-0.83314-0.96117-0.73794zm3.9801 0.91932c0.28253 1.2789 1.3514 1.2216 0 0zm8.1959 0.40359c-0.97875 1.7194 1.04 0.48876 0 0zm17.362 0.03152c-2.155-0.40076-0.41723 4.2607-1.5487 2.3663-1.1063 1.0156-0.88869 1.5935-2.0872 0.03255 0.20355 0.54263-1.3355 2.2466-0.18138 2.7735 0.94055 1.9608-2.7898 2.7163-2.2298 0.74981 0.66204-2.0961-3.939 2.603-3.922 3.9528-1.4204 0.7319-2.0155-2.2426-3.1574-0.33206-1.1565 0.52849-2.9417-0.18835-4.2665 0.6188 1.2757 0.21306 3.8905 0.82468 0.20291 0.79685-0.43803 0.36595-1.0963 1.8511-2.1588 0.56572 2.0352 2.1968-2.2703 2.1046-1.2068 3.8702 0.20667 1.0663 3.2057 2.7485 1.8092 0.59221 2.2356 1.3279 2.4083-0.08043 2.0159-1.5984 1.5338 0.18158 1.5787-2.2056 3.7388-2.1167 0.15157 0.68782 2.0092 4.4449 2.7668 6.5174 0.37734 2.4415 2.1487-0.77905 1.1979-1.9952 1.3788 2.8859 1.5702 1e-3 2.2903-0.95033 1.6659 0.82037-1.1992 2.3009-0.2403 3.8804-0.75064 1.8724 2.1546-0.76204 2.0997-1.7227 0.44567-3.1179 1.5463 1.5534 2.5855-0.04102 1.8063 1.7667 3.1389-1.196 0.80076-1.1462-2.3217-0.35518 0.37206-2.3527 0.30282-0.44131 0.57724-2.3217 0.59522-0.11406 1.8578 0.81959 0.57062-0.02447 2.7298 1.1461 0.95653 1.0684-0.0722 1.5174-1.9987 1.718-3.1574 2.1598 1.7614-0.03799 1.8488 4.4519-0.17038 2.6383-1.7968-1.9263-0.49121 0.41873-2.2744 1.177 0.20656 1.6419 1.3691 1.1808 1.1126 2.7202 0.28405 2.3773 0.6869 0.52975 2.7293 0 0.16211-1.7234 2.5994-0.53477 0.8359-1.7885 1.0833-1.687 1.6671 0.48847 2.5931-1.4119 0.98772-1.9476-1.7483-1.9474-0.0562-3.1492 1.232-1.6544-0.32484-2.8014 0.109-4.6741-0.93953-1.2886-1.0609-3.0286-1.3122-4.5012-2.0464-2.6548 4.2278 1.3646 2.4971-1.1468-0.66262-0.57353 1.2707 0.2729 0.76922-0.98089 1.8551 1.6959 0.72242-2.0593 1.1963-2.9902-1.0602-1.5161-0.35406 1.6485-1.8993 1.8539-1.9461-2.2687 1.4922-1.4952-0.91209-3.1714 2.0354 0.62002 2.0383-1.8791 1.8155-3.2709-0.6668-0.52955-1.7865 1.6383-1.1794 2.5226-1.719-0.51538-2.459-0.74405-0.70036-2.3233 0.14843-0.52138-2.4726 1.1504-2.0421-1.3276-0.52654-0.19888-1.0531-0.39765-1.5798-0.59631zm-42.292 1.0268c-1.1245 1.2593 0.95847 2.7879 0.28008 1.1462 0.59799-0.26035-0.08261-0.90259-0.28008-1.1462zm-22.32 0.2899c-1.0906 1.3304 0.33538 1.4925 0.19638 2.6205 0.58635 1.6828 3.2701-3.096-0.10404-2.5964zm16.629 0.24391c-1.3389 0.74033-3.6969 1.3462-3.291 2.6412-1.5654-0.69629-3.9354-2.3532-1.698 0.33055-1.6094-0.67714-0.12163 2.8323-2.3248 1.2182 0.63504-1.4145-0.34045-5.5894-0.73005-2.5744 0.69602 0.82623 0.93634 4.2351-1.2764 4.394-1.3165 0.95835 0.24176 2.4928 0.96288 1.5123 1.0137 1.1901-3.3155 1.2555-1.1469 2.8994-1.1528-0.58845-0.66005 2.47 0.44804 3.2491 2.1886-0.7866 1.8459 3.9092 0.50582 0.9232-1.0878-1.973-0.22749 4.0793 1.2299 1.4102 1.507 0.71127 1.1049 3.969 2.2073 4.0436-1.1219 1.9269-1.8204 0.61151-2.4502-0.34777-0.37162-3.8108-0.98875 0.85332-0.34778 1.0444-0.40615 0.104 2.399 1.5923 0.95328 2.1727-1.482-2.2606 0.60322 2.9841-1.7734 1.6927 2.9324 0.89393-0.98345 1.2124-0.09589 2.3735 0.09724 0.53369 1.594 1.7113 1.8157 2.8541 2.0138 0.48793-2.1284-2.9992-0.03764-3.6818 0.41807 0.24248 2.5615 2.1371 2.8065 1.8365-2.6176-0.76504 1.8358 2.7559-0.40636 3.532 0.88787-1.5489-2.3736-3.4975-0.2458-0.9821-0.71551 0.52939-1.8557 2.0089 0.9018 1.5395 1.3787-0.80808 1.1789-0.37719 2.8024-1.609-0.71536 1.6902-0.9391 0.62131 0.52917 2.3849 0.47734 0.59165 2.874 2.2701 3.024 1.0129-3.741-0.10659 2.7104-1.0226-0.52447-1.5957 0.65559-0.41975 2.2226-1.3167 2.7306 0.31726 1.2081 1.8334-2.5696-1.3965-0.62012 1.247-0.96594-0.1446-1.6843-0.67928-0.75424 0.94982 1.2166 0.32827 3.4013 1.5273 2.1852 2.7993-0.95928 1.9512 4.3941 0.98833 1.1028 0.1819 0.27768-1.3753 1.434-0.84434 2.1799-0.46767 2.482 1.5874 1.8847 0.74397 3.1898 2.4787 2.8284 1.2338 0.15423-3.5929-0.42593-3.8281-0.52342-0.48184-2.4551-1.7773-2.2755-3.2848-0.22287-0.89019 1.5029-1.6301 0.78832-3.4357 2.1207-0.61906 0.78332-3.8788 2.9828-4.022 0.70251-2.0121-1.9939 1.4316-2.7275 1.0113-0.50303 1.9328-2.1059-0.27882-2.065 1.2909-1.4352 1.0449 1.3391 3.0581-1.016 3.5564-0.15068 1.1939 2.6617 3.3208 0.29992 2.7605-0.13773-0.53459-0.44178-2.8633-1.2898-0.57648-0.30616-0.694-1.1294-2.2976-1.4466-3.0614-0.86292 0.34361-3.1601-1.2853-1.9279 0.43086 0.05327 1.9942-0.97988-1.4535-2.0874-1.541-0.40692-1.346 0.38511-3.0898 1.1038-3.1983-2.7233-1.5284-2.069-1.5623-0.99086-1.8039-1.4826 0.09641-1.818-0.97076-0.6421-1.3253 0.22333-0.72298-2.312-1.3631-2.1477-1.1687 0.41123 2.5735-2.2468 1.4028-0.76275 0.0871-1.4431-0.71927 0.81977-2.6932 0.52917-2.6143-0.7193-0.02321-3.8238-2.9496-2.6991-3.1872 1.4507-0.30774 2.1636 4.3978 3.1032 1.0366 1.1867-1.8498-0.40017-2.2785-0.65257-3.5015 0.01193-1.1429-4.0506 1.4999-2.0372-0.81218 0.91873-0.96031 1.0749-3.9238-1.0216-2.8724-1.0229-2.3781 0.6824 0.5697 1.6022-1.728 1.3399 1.032 2.5494-1.9673 1.8534 0.45627-0.77133 2.2264 1.6832-0.34334 0.76616-0.68106 1.0876 0.63252-0.21887-0.97766 1.166-1.6118 1.3379-0.69758 1.0055-2.514 1.6366-1.7952 0.88351 2.9268 2.0239-2.3685-0.0083-0.89194-1.9994-1.4375 3.5036-0.97307 1.4916-2.003-1.5907 0.18213-5.4754 0.58855-2.3014-0.53645-0.11473-0.25922-0.45026-0.63809-0.65016-0.92962zm48.808 0.12764c0.34821 2.1649-1.0863 1.2411 0 0zm5.8787 0.13229c0.44093 2.4633 2.8357 0.40408 0 0zm-37.588 0.20929c-1.4373 0.25155-0.03981-0.19597 0.15968 0.1602zm-12.85 2.172c-1.4059 0.75845 0.73192 0.80127 0 0zm42.482 0.01497c0.61891 2.6342-1.8243 0.46438 0 0zm-30.008 0.05529c2.7591 3.1612 3.2929 1.2981 0 0zm19.824 0.46509c0.37997-0.0074 1.3935 4.1524 2.3978 1.1844-0.15734-1.4224-1.7585 0.41083-2.3978-1.1844zm12.666 0.0078c1.9584 0.90832-0.72166 2.1086 0 0zm-64.639 0.25055c-0.71005 0.96885-2.4092 2.4996-1.5901 3.5662 1.8082 1.7669-0.7134-1.6732 1.7164-1.733-0.13031-0.48277 0.42494-1.7715-0.1263-1.8332zm6.7686 0.19689c-1.7113 2.3099 1.7783 0.43414 0 0zm56.68 0.30127c1.2263 0.2375-0.32029 1.6211 0 0zm-58.921 0.29559c-1.2727 2.3274 3.008 1.3229 0.8545 0.79375-0.25231-0.15676-0.32614-0.97028-0.8545-0.79375zm-2.4619 0.26458c-1.0663 0.7124 1.0301 0.62353 0 0zm-0.81029 0.39688c-2.0934 1.6062 1.3199 3.0968 0.0083 0.5426l-0.0043-0.2839zm22.519 0.26458c-1.6973 1.268 0.28199 2.1694-0.02554 2.9286 1.1318 1.2264 2.2021 2.3062 0.12658 3.4743-1.9866 0.42272 0.8975 1.4032-0.5708 2.1183 1.895-0.67696 1.9039-0.38937 2.5579-1.9847-1.6145-2.1143 4.213-0.45017 0.33591 1.1364-1.2017 1.3216-7.4771 2.5472-3.4953 0.37309-1.6139-1.8578-2.2156 1.5212-2.3812 2.3954-0.87137 1.0781-3.267-0.26092-1.8521-0.52165-0.71462 0.39968-2.8325-1.5029-1.2679-2.3792 1.3695 1.9778 1.9778-1.3725 1.1547-2.7166-1.8108-1.2321-0.09618 1.1281-0.74414 1.7859-0.42715-0.14562-3.1298 1.0517-2.8008-0.5401-1.3583 0.01455-2.4291 2.6877 0.01185 3.0671-0.63952 1.0668-0.65061 3.1003-0.4059 3.5399 0.07119 2.1244 0.38912 0.11607 0.97821-0.8959-0.77284-1.8426 2.3432-2.6658 1.5144-0.91593-1.9093 0.51631 3.7482 3.4965 2.3252 0.8189 1.6863-1.9722-0.86959 2.2041 2.0234 1.2737-0.31122 1.3232-2.5467 1.2406-3.8177 1.2554-0.05627-2.5771-2.3974-0.40714-0.98405 1.1573 0.98544 1.0412 2.9824 3.7904 3.6101 1.625-0.37641 0.4666-0.3767 0.08027-0.5077-0.88149-2.1949 1.3374 0.39671-2.5004 0.67565-0.52618 0.13932 0.73758 3.4663-0.58787 1.8629-1.1307-2.5262-1.7808 3.5242 0.62951 2.6737-1.5885-0.66342-2.1885 0.11527-1.777 0.52967-2.682 1.9918 1.7498 0.96688 1.4783 1.9259 0.60151 3.1051-0.34194 0.75106 1.0897 1.2847 1.6955 1.3652 1.0164 1.1437-2.7005 2.0464-0.96687 1.7258 1.2165 4.374 2.5336 2.9397 3.4397 0.48572 1.1529 1.3498 1.832 2.8426 0.17347-0.98246-0.9973 0.83327-1.8308 0.97278-2.974 2.2748-1.3155-2.7384-0.60651-0.78693-2.4985 2.8129 0.29911 0.62997-3.2858-0.08446-0.79375-1.2406 0.88222-1.162-3.2918-1.3776-1.152-0.56647 0.46299-3.7372 1.2239-4.1526 0.90035-0.33741-0.74381 2.2052-1.6568 2.496-2.112 0.09904-0.96685-0.87692-0.36326-1.1886-1.1231-0.66523-0.74994-3.7936-1.0171-2.0262-0.66488-0.59955-1.4825-3.2797 0.74325-3.5584-1.1286-0.70365-1.5126-3.4682 1.3309-1.4816-2.1596-1.0481-0.07719-1.224-0.47908-1.3787-1.4236zm-14.946 0.13229c0.60482 0.91411-1.1312 0.64473 0 0zm56.707 0c1.0868-0.41622 0.45055 1.3763 0 0zm-4.2101 0.39688c0.411 1.2764-1.4589 1.8195 0 0zm3.7119 0.29559c1.5732 1.3783-0.091 2.2743 0 0zm-39.687 0.10129c-0.19862 1.3317 1.2119-0.49529 0 0zm-3.1709 0.44388c-0.55768 1.6269-3.3796-0.19758-3.0254 1.6299 0.37627 2.9102 2.0045 1.4895 2.7796-0.40135 0.08172-0.40956 0.1639-0.81904 0.24584-1.2286zm42.106 0.21756c0.62251 0.92159-0.32077 1.524 0 0zm-3.746 0.36587c1.2263 0.2375-0.3203 1.6211 0 0zm-38.365 1.3229c-0.41622 1.0868 1.3763 0.45054 0 0zm39.987 0.24288c1.0062 1.0194-2.2222 1.6281 0 0zm-62.477 0.05271c0.11785 1.4673-1.0096 2.4761-0.79592 4.0662 0.89078 2.5486 1.0719 0.88979 1.1073-1.1471-1.0738-1.8838 2.2285-2.0422 0.44369-2.9191h-0.75504zm55.298 0.05581c-0.68932 1.8258-2.4673-0.35456 0 0zm-50.8 0.0956c-0.1748 2.494 1.7699 0.96254 0 0zm65.881 0.08217c-1.2259 0.23805 0.32005 1.6207 0 0zm-19.05 0.03101c2.0978-0.4259-0.54297 1.8698 0 0zm1.5875 0.19999c2.1173 1.5524-0.61941 2.2874 0 0zm11.139 5.29e-4c0.0247 2.7682-2.8298 0.75396 0 0zm-5.5826 0.03307c1.223 0.41507-0.30306 1.1101 0 0zm-35.413 0.03101c-1.9895 1.8232-0.3895 0.95805-0.04134 0.77825 1.4552 1.0196 0.84465 0.6174 0.04134-0.77825zm-7.4486 0.04961c-0.85362 0.03558-1.4203 0.8532-0.14831 0.23978zm3.4386 0.21497c-0.19862 1.3317 1.2119-0.49529 0 0zm28.046 0.23358c0.43593 1.4574-1.3432 0.7295 0 0zm-37.542 0.29559c1.0185 0.81816-1.4327 1.4101 0 0zm51.861 0c2.6517-0.17177-0.61942 1.7696 0 0zm7.2161 0.03721c-2.4442 0.80985 2.6019 3.2327 1.0584 0.95968 0.089-0.90774-0.31751-0.38139-1.0584-0.95968zm-10.17 0.13436c3.1193 2.1405-2.1038 1.3562 0 0zm-51.496 0.0186c2.3852 2.4147-1.2302 1.8985 0 0zm9.9379 0.07441c0.3676 1.1633 1.6943-0.41471 0 0zm-4.3785 0.24184c-0.46534 2.3079 2.6896 1.0264 0 0zm-7.8688 0.26924c-1.2876-0.17498-2.0572 2.5985-0.95085 1.8508-0.0886-2.5792 1.1774 0.0681 1.3229 1.1451-1.5651 0.30582 2.7879 0.45422 0.22789-1.9283-0.19999-0.35588-0.39997-0.71176-0.59996-1.0676zm-2.0402 0.0181c0.51036 1.044 1.5984 0.35498 0 0zm52.948 0c1.9554-0.16921 0.51737 3.2729 0 0.28215zm-24.054 0.19947c1.1398 1.345-2.4994 0.53964 0 0zm-2.8603 0.04548c0.52424 0.70243-1.0975 0.71884 0 0zm35.381 0.28422c1.854-0.47411-0.0192 1.859 0 0zm-65.088 0.1633c-1.6669 1.6274 0.56134 2.0107 0 0zm9.2614 0.33435c1.6777 3.2076-1.4001 0.41741 0 0zm50.121 0.02635c1.785 0.30529-0.88318 3.0046 0 0zm-56.817 0.07958c-2.6804 1.1556 2.1227 3.1037 0 0zm38.445 0.03927c-0.34333 1.8966 2.4229-0.50304 0 0zm13.893 0.5023c0.98443 1.2168-0.34516 0.68392 0 0zm-24.476 0.17776c2.2272-0.85832-0.32094 2.282 0 0.24523zm18.785 0c-0.19862 1.3317 1.2119-0.49529 0 0zm-19.844 0.52917c1.4846-0.19636-0.25386 3.5088 0 0zm-8.5788 0.0062c-1.1222 0.52758 0.50485 1.9369 0 0zm19.691 0.25838c-1.0663 0.7124 1.0301 0.62353 0 0zm-20.902 0.26458c-1.0663 0.7124 1.0301 0.62353 0 0zm41.275 0c1.2252-0.11746-0.43123 1.607 0 0.12844zm-48.386 0.04134c1.7795 2.4001-3.9437 1.1897-0.61185 0.15761 0.20395-0.05254 0.4079-0.10507 0.61185-0.15761zm28.48 0.07234c-2.3034 2.7511 1.8746 0.63666 0.54984 0h-0.28394zm32.077 0.04496c0.0393 1.5382 1.1625 0.6314 0 0zm-67.796 0.3452c-0.23692 1.4369 3.8581 2.0168 0 0zm37.701 0.35553c-0.0913 1.4093 1.8298 2.0535 1.6139 0.08113-0.53794-0.02731-1.0759-0.05435-1.6139-0.08113zm8.1354 0.19896c0.11551 0.07924 1.6265 3.1413 0.89555 0.46302-0.05044-0.65992-0.43421-0.42301-0.89555-0.46302zm-37.835 0.49816c1.3218 0.67702-0.37447 1.498 0 0zm1.0273 0.82476c1.0868-0.41622 0.45054 1.3763 0 0zm20.117 0.19947c2.6509 0.91539-1.103 1.3617 0 0zm34.419 0.06511c-1.0663 0.71239 1.0301 0.62353 0 0zm-31.781 0.26458c1.0869-0.41622 0.45054 1.3763 0 0zm-10.023 0.26458c0.67983 1.5 0.08673 3.1272-0.96428 3.1871 0.4377 0.64246 2.3345 1.1729 3.8747 0.7816-0.42554-1.0785-0.32369-1.1767-0.24236-2.3812 0.91674-0.22116-2.2426-1.6245-2.6681-1.5875zm9.7834 0.46974c1.2409 1.9229-2.419 1.7473 0 0zm32.55 0.05943c-0.157 1.2328 2.0294-0.45754 0 0zm-51.594 1.0273c1.223 0.41507-0.30306 1.1101 0 0zm9.1958 0.82476c2.656-0.157 0.08454 1.9398 0.58373 0.71599-0.1786-0.23755-0.38923-0.47795-0.58373-0.71599zm-11.048 0.79375c-0.19862 1.3317 1.2119-0.49529 0 0zm-7.969 0.66146c0.24534 1.4556 1.1373 0.78329 0 0zm58.504 0.66146c1.4456-0.21469-0.22687 2.1208 0 0zm-53.71 0.99374c2.1173 1.5524-0.61941 2.2874 0 0zm1.5307 0.99064c1.2442 2.7013-1.1266 1.6669 0 0zm1.3508 0.80925c1.1047 1.7814-1.2702 1.0726 0 0zm50.564 0.64596c-0.558 1.2611 2.0817-0.41541 0 0zm-51.724 1.4097c0.98443 1.2168-0.34516 0.68392 0 0zm-0.39894 0.61857c0.942 1.8534-0.88368 0.51795 0 0zm5.0271 0.05736c-1.044 0.51036-0.35498 1.5984 0 0zm-4.1848 0.2558c1.4362 3.7096-1.0612 1.6536 0 0zm-2.1787 1.0981c1.9516 0.60245 0.98322 3.0215 0 0zm43.465 0.21859c-1.1353 0.62522 1.6312 1.1313 0 0zm-5.055 0.83819c-0.86791 1.8099-5.8782 3.522-2.1239 3.4101 1.381 0.05185-1.7686 2.0302-1.0867 2.0914 3.4443 0.11075 1.4556-1.1161 2.9139-3.0299 0.86606-0.58858 2.1147-2.1144 0.29662-2.4717zm-28.607 0.23513c-0.41622 1.0868 1.3763 0.45054 0 0zm30.088 0.0181c-0.40515 1.1704 2.3474 1.2939 0 0zm-38.512 0.14521c0.62251 0.92159-0.32076 1.524 0 0zm44.49 0.13229c-1.2739 1.1478-4.1846 0.28451-4.3794 0.70037 2.1997-0.19319 1.7113 4.6038 3.5035 1.5078 1.9419-0.831-1.2845-0.73184 0.87589-2.2082zm9.972 0.72915c-1.4607 1.5392-0.34149 1.278 0 0.30983v-0.30983zm-19.346 1.1229c1.4574-0.43593 0.7295 1.3432 0 0zm3.6086 0c-3.6573 1.756 0.84789 2.2037 0 0zm-40.884 1.0583c-1.0663 0.71239 1.0301 0.62353 0 0zm27.781 0c-0.26213 1.1497-0.83304 1.0305-1.3238 2.4659-0.15949 2.0166 1.9679 1.3074 0.68092 2.4583-0.35557 1.0443 1.3719 0.53508 0.709 0.0036 1.8073-0.80557-1.4855-2.1567-0.31138-2.8112 0.5308-1.5858 3.8736 1.2438 2.1335-0.51393-0.97408-1.0575-0.82406-0.07312-1.4206-1.6027h-0.23409zm19.844 0.26458c-0.31246 2.0539 1.5015-0.18369 0 0zm-15.346 0.5457c-1.8946 0.3659 0.32659 1.1023 0 0zm-22.357 0.32091c1.4757 0.71867 3.359 1.4828 4.2142 1.4728-1.9235 0.20454-2.158 1.4003-3.2246 0.04181-0.77998 0.30387-1.7353-0.94302-0.9896-1.5146zm5.1258 1.3823c1.725 1.4358-1.914 2.2935-1.0054 1.1906 0.80407 0.28315 0.68434-0.75586 1.0054-1.1906zm26.244 0.13229c0.3659 1.8946 1.1023-0.32659 0 0zm-34.096 0.27388c0.22758 2.0373 1.9465 0.3471 0 0zm-5.3439 1.049c-0.02651 1.0321 0.13663 3.0535 0.69674 2.4102-0.04484-1.139-0.13575-2.0441-0.69674-2.4102zm2.6458 0c-0.19862 1.3317 1.2119-0.49529 0 0zm11.447 0.0186c2.8158 1.0687-1.3048 1.4824 0 0zm-15.355 0.24598c-1.8892 1.4725 0.30819 2.4595 0.14358 1.0801 1.8884 0.26986-0.66408-0.95966-0.14358-1.0801zm39.627 0c-0.19862 1.3317 1.2119-0.49529 0 0zm-37.864 0.30799c0.2813 1.9264 1.1853 2.924 2.2794 2.3063 0.67572 1.2843 0.58352-2.9523-0.12219-1.0268-1.8511 1.5071-0.9853-0.77645-0.35427-1.0067-0.60314-0.07691-1.2026-0.17781-1.803-0.27285zm17.226 0.23771c-0.46428 1.0136 2.0252 0.38433 0 0zm-9.0982 1.4428c-1.5997 0.88912 0.22692 0.90249 0 0zm17.829 0.07183c0.29615 1.8695-2.6904-0.11004-3.1293 1.7672 0.78628 1.8432 2.6731-0.11017 3.1293 1.1996 1.5466 0.78046-0.59691-1.8225 2.1166-0.58537 1.3988-0.38362 2.8432-2.6505 0.03828-1.4223-0.48712 0.03621-0.37856-1.3379-2.1549-0.95912zm-11.377 0.056329c1.366-0.52806-0.30159 1.3608 0 0zm-2.1167 2.5812c1.5205 2.395 0.87823-0.76298 0.67488 0.54737-0.2253-0.18204-0.44992-0.3649-0.67488-0.54737zm2.3502 0.0646c0.3676 1.1633 1.6943-0.41471 0 0zm19.917 0.39688c-0.62786 1.8416 1.8637 1.5824 0 0zm-24.871 0.26458c-0.30845 1.5344 0.57908 0.97712 0 0zm21.287 0c-1.6162 1.4572 0.79219 1.1888 0 0zm-16.284 0.17725c-1.5757 0.63054-2.0658 0.82012-3.7544 0.72281-0.217 0.68773 1.4085 1.8061-0.83287 0.42284 0.34084 3.6416 1.1405 0.60946 2.975 0.91097 1.4412 0.37754 5.8856 0.30837 2.5126-0.75768-0.34841-0.35549-0.5937-0.88358-0.90027-1.2989zm3.5543 0.28215c-0.50986 1.3421-1.4153 2.874 0.80703 0.85976 1.1718-0.64616-0.53142-0.52673-0.80703-0.85976zm10.143 0.46664c0.81979 2.0276 3.8295 0.48931 0.68316 0h-0.68316zm-1.279 0.13229c0.01728 0.69918-3.6616 0.33968-1.8649 1.2782 1.4746 0.63528 1.4513 0.93805 2.7439 0.70926-1.7052-1.3122 0.24724-0.75476-0.87901-1.9875zm-19.315 0.25063c1.3202 3.1638 3.5549-0.26444 0.45995 0.0438l-0.28266-0.0269zm23.797 0.41083c-1.0161 0.87426 1.5789 0.57046 0 0zm-12.284 0.57413c-1.1625 1.1636 2.1124 0.94382 0.04985 0.0365zm8.5953 5e-3c0.62643 0.62405 0.3436 1.7476 1.0686 1.2626 0.58495-0.91425-0.53301-0.88201-1.0686-1.2626zm-3.4463 0.42013c-1.741 1.8294 1.0903 1.1501 1.1956 0.49268 0.87974-0.19458-1.1728-0.35004-1.1956-0.49268z" fill="#000e8f"/>
   </g>
  </g>
  <path d="m75.844 16.507c-3.9393 0.52584-7.9635 0.77764-11.851 1.4711-6.5186 3.1609-12.57 7.1271-18.665 11.02-2.2709 1.5599-4.8578 2.8362-6.9365 4.5686-3.716 7.36-7.1257 14.866-10.582 22.35-0.07426 2.997 1.1298 6.1765-0.33034 8.9756-1.2037 3.7109-3.0213 7.3345-3.5816 11.186 0.10168 2.6568-0.20068 5.4255 0.14609 8.0144 1.6412 3.0806 3.661 5.8811 6.1469 8.3365 2.4177 2.5165 4.3828 5.5751 7.654 7.0694 4.5331 2.6636 8.8559 5.7691 13.523 8.1523 5.6807 1.8933 11.321 4.0942 17.027 5.7966l29.608-2.2092c4.9287-3.0357 10.097-5.8218 14.878-9.0121 3.3477-5.283 6.9858-10.453 10.154-15.806 1.3125-8.411 3.0335-16.772 4.0939-25.213 0.0162-2.9338 1.0916-6.0043-0.36076-8.7485-1.3774-3.5161-1.9614-7.4354-4.5417-10.34-1.825-2.2939-3.1188-5.1153-5.2873-7.0681-5.3662-3.6632-10.388-7.8857-16.322-10.627-3.4066-1.6754-6.6603-3.7891-10.161-5.1938-4.8703-0.90722-9.7406-1.8144-14.611-2.7217zm-9.3483 5.5077c1.223 0.41507-0.30306 1.1101 0 0zm13.626 0.82682c2.6961 1.8975 6.2797 1.5291 9.2604 2.8355 3.3794 0.8108 6.3153 2.6555 9.525 3.9543 1.0716 1.7182 3.5419 1.5374 4.565 3.3952 2.9401 3.0282 6.1153 5.9226 8.3014 9.5304 1.015-0.37716 3.0856-1.5017 3.6701 0.50866-0.092 1.8265-0.1863 4.4997 1.5986 4.3939-1.0408 2.8158 1.5352 0.57485 2.3334 2.0628 0.79971 1.2312 2.5161 0.85439 2.8518 1.8334 0.37385 1.0967 0.96675 2.2691 0.65975 3.569-0.75395 1.3668 1.2689 3.6073-1.474 4.0429-0.81377 0.88401-2.0899 2.0785-1.1956 3.5614 0.78376 2.3898 1.5864 5.0889-0.0109 7.371-0.2251 2.772 0.31342 5.6934-0.40584 8.3687-0.5842 1.7984-1.2881 3.5143-2.9588 4.5642-1.209 0.89534-0.66674 2.8938-2.1916 3.5886-0.27251 1.489 0.79695 3.703-1.1271 4.2996-1.6739-0.28146-2.2908 1.1258-2.7094 2.3561-0.90351 1.93-2.932 2.0801-4.3655 3.5751-2.2287 1.1273-4.0651 4.1688-5.5844 5.2171-2.5936-0.64611-4.2212 2.6821-6.7827 2.9041-1.8249-0.0235-2.5941 1.9762-4.3229 1.6741-2.4752-0.18599-4.4787 1.9054-6.9894 1.7569-3.5146 0.0614-7.1416 0.86651-10.612 0.3445-3.5038-1.2398-7.6803-0.54292-10.556-3.353-3.1747-1.2762-7.0429-1.2532-9.3025-4.1821-3.0648-2.8077-6.3715-6.1592-10.153-7.5098-2.151-0.95142-3.5547-3.5469-5.5831-4.9058-1.8904-2.5395-4.5597-2.5407-6.2813-5.0718-1.1456-0.75047-2.7017-1.2024-4.0195-2.308-1.1036-1.8412 2.5106-1.8314 2.307-3.377-0.8906-1.8141 1.9035-2.2715 1.6794-3.8942 2.3305-0.36607 2.5436-2.4296 2.4272-4.4705 0.70052-1.4591 0.3713-2.9653 0.98965-4.4572 1.0153-1.9207-1.234-3.6657 0.86295-5.4259 0.2651-3.3661 0.09844-6.9611 2.1615-9.8229 0.97444-1.8708 2.1681-2.8444 2.2899-4.6455 2.2275-1.5367 2.9893-4.7807 4.9405-6.7208 2.3638-2.0787 5.1117-3.7623 7.2603-6.0401 1.7672-0.19015 2.6799-2.6805 4.5746-3.1783 1.6919-0.99951 3.8684-1.4804 5.2645-2.796 1.2447-0.66764 3.3209-0.46192 4.8321-1.2131 2.1085-0.92797 4.6407-0.44214 6.6633-1.3335 2.2946-0.66289 5.1453-0.71045 7.6073-1.002zm-7.5634 13.631c-1.0721 1.5388 0.21798 1.5846 0 0zm17.963 1.449c-1.8937 1.5461 1.6517 2.8407 0 0zm-16.732 0.05529c-1.0922 1.0396-1.9639-0.09814-2.2375 2.1015-2.2626 1.2597 1.6261 0.40632 1.2784 2.3344 1.8087 1.9003 2.9177 1.4392 2.9148-0.28259 0.57444 0.65401 3.0537 0.44786 3.1226-0.18146-0.39904-1.198-2.0833-0.04228-2.8469-1.4196 2.3266-0.77285-1.4464-0.43036-1.3229-1.8883-0.30269-0.22153-0.60551-0.44288-0.90847-0.66404zm-13.954 0.73794c-1.6907 0.50246-2.393 4.6061-0.38618 4.5437-1.655 0.21091-1.6434 3.7049 1.3174 1.9074 0.95443 1.4938 0.79189 2.0033 1.402 3.2909 1.2337 0.19994 1.9649-2.4934 2.2209-3.5134 1.522 0.09969 2.2188-3.0788 0.25443-2.5245-0.11356-1.5074 3.0182-1.6532-0.06379-2.7368-1.7667-1.367-2.3537 1.2838-3.5502 1.4139-1.4322-0.98368-0.56287-0.3772-0.91961-2.3812zm33.352 0.79375c0.41507 1.223 1.1101-0.30306 0 0zm-0.76274 0.79375c0.0313 1.8401 2.4711-0.59549 0 0zm2.6458 0c-0.03401 1.4225 2.149-0.57353 0 0zm-28.575 0.23358c-0.41622 1.0868 1.3763 0.45054 0 0zm18.02 0.29197c-1.2298 2.0525-1.4457-0.33306-2.8514 1.0389-0.23664 1.9992-6.5322 3.3532-3.2003 4.1311 2.4937 2.272 3.122-1.6518 3.9256-0.77331 2.1117-1.21 3.7556 1.835 1.7944 2.2214 0.87379 2.6504 0.88837-0.53513 1.8943-0.93851 1.2517 0.12162 0.6453 3.342 2.6383 1.7354 1.8104-1.8949 1.3621 4.822 3.3867 1.9858 0.97951-1.6308-1.2534-2.6828-2.4007-3.3062 1.3545-1.7667-1.4035-0.71476-1.6978-2.5386 1.0753-3.5478-3.4632 0.54106-2.5843-2.7173 0.31812-0.55082-0.66757-0.54915-0.90463-0.83891zm7.8822 0.98289c-1.1827 0.59286 0.24575 2.0321 0 0zm-30.665 1.3581c0.48762 1.6422-2.0361 0.64498 0 0zm10.842 0.5457c-0.93086 0.3516-0.38408 1.6208 0 0zm-13.752 0.02739c1.0663 0.7124-1.0301 0.62353 0 0zm31.156 0c0.03911 2.8617 2.425-0.53286 0 0zm-14.955 0.26459c-1.0589 2.9448 1.8637 0.7608 0 0zm10.217 0.22479c1.9705 0.63684 0.14072 2.6951 0.11856 0.23023zm7.2135 0.78393c-1.744 3.1179 2.9683 1.6126 0.67231 0.16846-0.2241-0.05615-0.44821-0.11231-0.67231-0.16846zm-37.838 0.34158c-0.254 1.025 0.15348 3.3029 0.40565 3.5281 0.22819-1.3284 1.4244-0.85824 1.419-2.4971-0.91278 0.23913-1.2331-0.51004-1.8247-1.0309zm12.011 0.78342c-1.869 1.5497 2.4075 0.46472 0 0zm1.0935 1.0702c-0.44025 0.48672-0.99269 4.0264 0.08681 1.8347 0.11257 0.81287 3.7007-0.08167 2.6329 2.1051 2.2132-0.04513 0.05451-2.9621-1.1369-2.4515-0.9935 0.54638-1.0475-1.0051-1.5829-1.4883zm-11.545 0.73381c-0.09034 1.5367-1.8881 2.5807 0.12589 1.7138 2.5235-1.0917 0.21842 0.08696-0.12589-1.7138zm-1.6185 0.8971c-1.5216 0.8569-0.74125 2.4881 0 0zm2.4665 0.92708c-1.365 2.4928 2.2162 1.5184 0 0zm8.4408 0.85266c-1.6861 1.7382 2.0596 4.5126 0.23616 1.4842-0.14229-0.3911 0.30736-1.5207-0.23616-1.4842zm2.3663 0.52917c-1.811 2.1218-1.2489 3.9031 0.86736 4.4979 1.4532-1.9184 1.1247-5.3835-0.0025-1.2056-2.8761-0.01576 0.94988-3.6602-0.86485-3.2923zm24.593 0c-0.66265 1.1008 3.4392 2.4509 2.1632 0.82891-0.62862-0.69229-1.2296-0.94793-2.1632-0.82891zm-0.49609 1.2676c-1.4373 0.25155-0.03982-0.19597 0.15968 0.1602zm-37.053 6.8688c-1.4053 1.6418-2.162 2.7793-3.8587 2.976-1.6031 0.23243 1.3453 2.7231-1.062 3.1864-0.07103 1.2401 0.82 1.4499 1.7901 0.58681 0.88493 0.5831 1.6514-1.3445 2.1952-0.95681 1.4248 1.1588 3.7656-3.9403 0.54105-1.8629-1.9115-1.2024-0.40931-2.0457 1.5566-1.8224 0.60695-0.60988-2.9755-0.43939-0.9752-1.9206zm49.035 0.03566c-1.5882 0.32966-0.49251 3.5909 0.29852 2.2164 0.0541-0.75217 0.017-1.5196-0.29852-2.2164zm-3.5073 2.2789c-0.3084 1.5338 0.57905 0.97746 0 0zm2.604 0.39688c-0.75877 0.75987-1.4198 2.3941-2.7079 1.8535 0.27323-0.35226-1.9014 3.2969-1.2874 3.5839 1.8605-0.08433 1.3037-3.3046 3.4063-3.8745-1.016 3.3169 0.3661 2.3217 1.0582-0.34893-0.0185-0.36023-0.1245-0.97616-0.46921-1.214zm-49.117 1.2661c-1.2645 1.8276-1.8049 0.01362 0 0zm50.99 0.06563c-1.8642 0.7244-0.28418 3.0955 0.15451 0.40256l-0.10174-0.26508zm-54.789 0.78032c-1.2517 1.1963-1.9611-0.94164-2.7008 1.063 0.10358 0.24854 0.54371 1.9371-0.20957 2.6939-0.22378 1.9619 3.2136 3.7238 1.8447 5.0298 0.37954 1.9633-1.4032-0.74373 0.07874 1.1269 0.27097-1.188 0.86952-1.6794 0.75928-3.4184 0.67645 1.5384 2.1884-2.1536 0.66355-1.3097-1.0372 3.0226-3.1332-0.35674-1.0993-1.4105-0.28265 0.14939-1.9399 0.24239-0.78393-1.6707 0.06324-1.1755 1.7508-0.81322 1.4474-2.1043zm46.588 0.0047c-1.1168 3.8297 1.2577 2.3315 0.48862 0h-0.48862zm10.628 1.4113c-1.8969 0.08411-0.29651 3.8581 0.72761 0.11318l-0.72761-0.11317zm-6.3588 1.2346c-0.0736 1.8398-2.3501 1.5452-1.2614 3.5845-1.2433 3.0316 3.4004 1.5054 3.5853-0.84952-2.0608 0.67814-2.9271-0.41001-1.5875-1.9061 0.0723-0.82988 0.0911-0.8995-0.73639-0.82894zm-40.57 0.26458c0.3676 1.1633 1.6943-0.41471 0 0zm37.854 0.83199c-2.1987-0.35154-4.6 1.8198-0.83044 0.49093-0.57987 2.1576 0.26912 0.34236 0.83044-0.49093zm-8.6889 0.22634c-2.5275 1.9832-0.23894 0.65566 0.7643 0.49327 0.21862-0.72684-0.30885-0.43252-0.7643-0.49327zm4.9976 1.0309c-1.0914 1.4116-2.4843 1.4604-0.42878 1.58 0.73794 3.1043 2.7786-1.482 0.42878-0.70207v-0.87798zm-24.688 0.03152c-1.1134-0.12026 1.6846 0.94953 0 0zm22.042 1.0542c-0.35658 2.5423 1.5499 0.02841 0 0zm5.8208 0.23358c-1.3218 0.67702 0.37447 1.498 0 0zm-28.84 0.03101c0.21052 1.5011 2.4512-0.56447 0.10909 0zm-22.225 0.01654c0.18127 1.605 2.921 1.8361 0 0zm54.504 0.24805c1.9794-0.31205-0.4515 1.2088 0 0zm-46.038 0.48524c-2.1428 0.73041 0.49438 1.5926 0 0zm38.365 0.46716c0.03975 1.5385 1.1622 0.63113 0 0zm10.583 0.37052c-0.11747 1.2252 1.607-0.43123 0.12844 0zm-36.883 0.03462c-3.2954 0.05781-2.5359 3.3097 0.66878 1.0951-0.19346-0.35991-0.44944-0.73177-0.66878-1.0951zm3.8101 0.22014c-3.1343 0.6542-2.322 2.2087 0.3731 1.3302-1.5195 1.2335 2.6013 2.711 0.70438 0.87138 1.3133-1.0307 3.2372 2.2186 2.8913-0.0091-0.39866-1.4679-2.1444-2.2479-3.1168-1.2159-0.37382-0.20689-0.96508-0.44661-0.85197-0.97646zm28.31 0.02635c-1.5131 0.14985-2.074 5.0892-0.62163 2.1566 0.34804-0.65997 0.69584-1.3889 0.62163-2.1566zm-46.637 0.46405c-1.2227 2.0589 2.8264 1.2183 0.08304 0.05182zm53.976 0.01291c-1.3708 1.1224 0.94946 2.0426 0 0zm-44.352 0.57102c-1.1959 0.229-0.75829 1.0578 0 0zm0.79375 0.26458c-1.1959 0.229-0.75829 1.0578 0 0zm-3.9662 1.0883c-4.0816 0.20621 0.96404 2.1884 0 0zm-6.1154 0.19741c-0.41622 1.0868 1.3763 0.45054 0 0zm8.8635 0.24598c1.1855 1.6946 3.6042 0.62956 0 0zm-11.816 0.97565c-0.57643 1.9662 0.97971 1.4552 1.0326 1.0307-0.42242-0.64187-1.2454 0.0082-1.0326-1.0307zm17.652 0.39688c-1.4059 0.75846 0.73191 0.80127 0 0zm36.909 1.0583c-2.085 0.45689 1.2978 0.87147 0 0zm0.74725 0.79375c0.41506 1.223 1.1101-0.30306 0 0zm-55.002 1.2216c-0.02268 1.2424 0.9134 1.8095 0.52102 2.9747 0.77662 1.3802 3.1922 1.9821 1.6716 0.93149-2.0809-0.6609-0.3581-3.0633-0.33054-3.3667-0.78882 0.21013-1.2545 0.84174-1.8621-0.53947zm53.975 0.52452c-0.53514 2.1852 1.3244 0.81934 0 0zm-0.84388 0.85473c-2.7996 1.5863 1.4704 2.6929 0.59841 0.95912-0.45505 0.61632-0.38189-0.84759-0.59841-0.95912zm-53.211 0.57413c-1.3754 0.62778 0.02542 1.9223-0.59221 3.2654 0.94119-0.02565 2.2028 1.5464 2.7849 0.90176-0.86684-1.3623-2.6518-1.6027-0.39688-1.5611-1.1928-0.35678-1.2355-1.6662-1.7958-2.6061zm4.6147 2.698c-0.03165 0.85951-0.44199 1.1484-0.21859 3.1729 0.51166 2.187 0.0042-2.4454 1.2154-2.9807-0.33227-0.06412-0.66456-0.12817-0.99684-0.19224zm0.22118 5.5041c-0.76671 1.8817 2.5153 2.1957 0 0z" fill="#000254" fill-opacity=".8586" stroke-width=".26458"/>
  <path d="m75.844 16.507c-3.9391 0.31085-7.9661 0.30964-11.85 0.81558-4.8862 2.5288-9.7348 5.12-14.177 8.3868-3.7843 2.6441-7.8114 5.0594-11.444 7.8468-2.524 4.3346-5.3709 8.51-6.9268 13.322-1.6051 4.3686-3.981 8.5193-4.3517 13.237-0.91617 6.2968-3.71 12.326-3.1964 18.803 0.15802 2.3572-0.62581 4.9754 1.1687 6.8793 2.5778 4.5611 6.25 8.3678 9.356 12.565 5.6689 3.0505 11.175 6.4648 16.945 9.2891 5.681 1.8988 11.321 4.0832 17.027 5.8048 9.9507-0.45398 19.901-0.90796 29.852-1.3619 5.1276-2.9586 10.52-5.6399 15.483-8.7715 3.2881-5.4715 6.8401-10.842 9.9641-16.376 1.2011-6.9856 2.8424-13.914 3.0738-21.025 0.22183-3.7653 0.72085-7.5722 0.73692-11.314-1.3411-3.4294-2.123-7.143-3.816-10.394-2.2086-2.9685-4.0914-6.2438-6.5009-9.023-4.0874-3.0498-7.8488-6.5933-12.157-9.3092-4.6901-2.4659-9.2928-5.2046-14.037-7.5023-5.05-0.62389-10.1-1.2478-15.15-1.8717zm-8.3209 5.0095c1.0802 2.66-1.9086 0.59418-3.3144 0.74878 0.08055-0.2533 2.3627-0.82337 3.3144-0.74878zm12.334 0.86765c3.1815 1.4937 6.8573 0.98686 9.9896 2.6319 2.8432 0.54568 4.709 2.0367 7.4206 2.8375 1.918 0.73003 3.4219 2.2631 5.2745 3.0862 1.8332 1.7009 3.9042 3.0877 5.5312 5.0415 2.0803 1.1139 3.4113 5.8319 5.8209 3.9484 2.6903 0.34196 2.7661 1.9751 3.225 3.9823 2.439 1.307 3.8865 3.4411 6.3284 4.5352 0.6848 1.8539 1.8949 4.083 2.0505 6.1686-1.1831 1.281-0.58416 2.8455-0.61664 4.345-0.56457 1.5196-0.66527 3.3232-2.0801 3.899-0.93855 1.3013 0.64514 3.0069-0.15136 4.6426 0.0249 2.063-1.9624 3.5691-1.3852 5.7259-0.037 1.9927 0.31298 4.063-0.82269 5.8352 1.0738 2.8036-2.3092 3.7401-3.043 5.9713-1.703 2.5182-0.74145 6.3041-3.3881 8.2066-1.3669 1.7523-3.5964 3.3536-5.4462 3.3951-2.6564 1.6081-4.654 4.2533-7.3255 5.7577-2.7473 0.89742-4.7548 3.5188-7.7471 3.5223-2.9457 1.3834-6.2829 1.8572-9.439 3.0576-3.917 0.55492-7.9345 0.70127-11.895 0.91332-2.87-1.6644-6.5604-0.96424-9.5446-2.5363-2.6983-2.1625-6.3421-1.8932-9.4279-3.626-2.5505-1.6232-4.3828-4.8317-7.4506-6.0018-1.2823-1.0616-2.4598-3.5856-4.2991-1.647-0.37951-1.1157-1.9416-2.311-2.995-3.4089-0.63682-1.3849-2.354-2.3664-3.915-2.0944-0.97471-1.6293-2.3978-2.6876-4.1966-3.267-0.57096-1.8707-1.8997-1.4109-2.1014-3.5216-0.60047-1.7028-3.4049-1.7117-2.9743-4.0019 1.0917-0.96323 2.8644-3.1276 0.31529-3.2687 1.6158-0.62748 3.4004-2.1521 3.7726-4.3064 1.2807-1.1821 0.1348-3.1153 0.78259-4.3179 1.0267-1.9052 2.6228-4.0821 1.9847-6.3626 0.76875-2.1254 1.6266-4.642 1.7489-7.1578-0.35359-1.9924-0.46836-3.6632 0.60977-5.6024 0.89355-0.95809 1.8381-2.2135 2.4851-3.2568 1.9017-0.0027 1.2677-2.6466 2.7488-3.7519 2.618-2.6788 5.3435-5.5556 8.4702-7.8299 3.6759-3.063 7.5183-5.8502 11.958-7.7754 1.5494-1.3386 3.4636-1.2004 5.1459-2.0003 2.6034-0.29507 5.6573-1.024 8.497-1.2114 2.0284-0.18549 4.0569-0.37092 6.0853-0.55656z" fill="#000005" stroke-width=".26458"/>
 </g>
</svg>
